{"glyphs":{"0":{"ha":833,"x_min":0,"x_max":0,"o":"m 797 463 b 664 851 797 622 754 764 b 415 947 610 904 529 947 b 169 851 304 947 225 906 b 36 463 79 764 36 622 b 169 75 36 304 79 164 b 415 -21 225 21 304 -21 b 664 75 529 -21 610 22 b 797 463 754 164 797 304 z m 417 764 b 503 729 453 764 478 753 b 581 464 571 663 581 529 b 503 197 581 392 568 261 b 417 163 478 174 453 163 b 331 197 381 163 356 174 b 253 464 265 261 253 392 b 331 729 253 529 263 663 b 417 764 356 753 381 764 z "},"1":{"ha":833,"x_min":0,"x_max":0,"o":"m 321 0 l 535 0 l 535 926 l 189 926 l 189 746 l 321 746 z "},"2":{"ha":833,"x_min":0,"x_max":0,"o":"m 742 181 l 422 181 l 519 274 b 668 433 579 331 628 378 b 738 638 713 496 738 556 b 651 860 738 733 701 810 b 411 947 618 892 546 947 b 156 851 279 947 200 899 b 60 619 99 792 67 700 l 274 619 b 313 733 274 656 288 706 b 397 767 331 753 357 767 b 482 740 433 767 464 757 b 518 649 504 719 518 683 b 463 492 518 585 483 525 b 311 303 433 447 360 357 l 33 0 l 742 0 z "},"3":{"ha":833,"x_min":0,"x_max":0,"o":"m 268 649 b 301 735 269 678 282 714 b 385 765 319 753 349 765 b 464 738 419 765 447 753 b 494 663 482 721 494 694 b 460 579 494 625 479 596 b 367 553 429 554 379 553 l 354 553 l 354 406 l 371 406 b 485 376 403 406 451 403 b 525 288 507 358 525 326 b 488 193 525 250 510 214 b 394 161 465 172 431 161 b 292 199 350 161 314 176 b 247 303 267 224 250 267 l 33 303 b 136 74 43 210 83 128 b 407 -22 218 -8 317 -22 b 651 58 482 -22 572 -14 b 744 269 717 118 744 199 b 701 415 744 319 729 378 b 596 490 676 450 635 476 b 665 549 622 503 646 521 b 703 675 694 589 703 629 b 632 864 703 765 671 826 b 389 946 585 911 503 946 b 154 858 313 946 222 929 b 63 649 106 808 71 726 z "},"4":{"ha":833,"x_min":0,"x_max":0,"o":"m 685 926 l 435 926 l 26 297 l 26 175 l 479 175 l 479 0 l 685 0 l 685 175 l 796 175 l 796 344 l 685 344 z m 251 344 l 479 704 l 479 344 z "},"5":{"ha":833,"x_min":0,"x_max":0,"o":"m 685 926 l 229 926 l 135 425 b 324 474 181 450 246 474 b 478 425 421 474 467 435 b 525 317 500 406 525 372 b 471 200 525 263 500 222 b 339 163 438 174 388 163 b 199 203 283 163 238 178 b 110 279 169 221 135 251 l 61 81 b 369 -21 178 -10 282 -21 b 650 76 464 -21 565 -7 b 744 315 693 119 744 196 b 660 539 744 425 701 497 b 424 629 608 592 528 629 b 347 622 400 629 371 626 l 372 746 l 685 746 z "},"6":{"ha":833,"x_min":0,"x_max":0,"o":"m 400 947 l 188 668 b 39 313 108 564 39 460 b 119 88 39 231 58 153 b 419 -21 211 -12 335 -21 b 704 83 501 -21 619 -8 b 792 332 764 149 792 243 b 711 546 792 444 744 511 b 482 635 671 588 599 635 b 385 619 442 635 413 629 l 629 924 z m 413 154 b 300 197 365 154 326 172 b 253 313 265 229 253 269 b 300 431 253 376 282 414 b 413 471 332 461 371 471 b 524 432 449 471 489 463 b 572 318 550 408 572 372 b 524 196 572 258 549 219 b 413 154 504 178 468 154 z "},"7":{"ha":833,"x_min":0,"x_max":0,"o":"m 69 28 l 268 -21 l 817 926 l 81 926 l 81 746 l 489 746 z "},"8":{"ha":833,"x_min":0,"x_max":0,"o":"m 415 -21 b 671 57 503 -21 589 -17 b 760 258 742 121 760 197 b 697 417 760 338 725 388 b 582 486 667 449 622 474 b 667 543 606 496 638 513 b 724 690 708 586 724 633 b 656 863 724 768 694 824 b 418 947 588 932 499 947 b 178 863 335 947 246 932 b 110 690 139 824 110 768 b 167 543 110 633 125 586 b 251 486 196 513 228 496 b 136 417 211 474 167 449 b 74 258 108 388 74 338 b 163 57 74 197 92 121 b 415 -21 244 -17 332 -21 z m 417 789 b 497 760 450 789 478 776 b 532 679 507 750 532 725 b 497 600 532 647 521 622 b 417 569 474 578 446 569 b 335 600 383 569 356 582 b 300 679 318 615 300 640 b 335 758 300 710 311 736 b 417 789 360 781 388 789 z m 414 400 b 507 367 450 400 485 389 b 543 276 528 347 543 315 b 507 182 543 236 528 201 b 417 149 483 160 449 149 b 326 182 385 149 350 160 b 290 275 301 206 290 242 b 326 367 290 307 304 344 b 414 400 346 386 378 400 z "},"9":{"ha":833,"x_min":0,"x_max":0,"o":"m 431 -21 l 642 258 b 750 431 685 315 726 379 b 792 619 778 493 792 561 b 697 854 792 735 743 811 b 419 947 649 899 565 947 b 129 843 346 947 219 938 b 39 601 101 814 39 739 b 119 378 39 501 69 428 b 353 292 171 326 253 292 b 446 306 383 292 414 296 l 201 3 z m 418 772 b 531 731 472 772 508 751 b 578 618 564 699 578 663 b 531 496 578 554 553 517 b 418 456 504 472 465 456 b 306 494 376 456 335 468 b 258 614 279 518 258 556 b 307 731 258 678 289 714 b 418 772 335 757 375 772 z "}," ":{"ha":324,"x_min":0,"x_max":0,"o":""},"!":{"ha":386,"x_min":0,"x_max":0,"o":"m 296 299 l 296 926 l 90 926 l 90 299 z m 67 104 b 193 -22 67 33 122 -22 b 319 104 264 -22 319 33 b 193 231 319 175 264 231 b 67 104 122 231 67 175 z "},"\"":{"ha":565,"x_min":0,"x_max":0,"o":"m 253 926 l 58 926 l 90 554 l 219 554 z m 507 926 l 313 926 l 346 554 l 475 554 z "},"#":{"ha":833,"x_min":0,"x_max":0,"o":"m 654 410 l 675 538 l 815 538 l 839 690 l 699 690 l 738 926 l 560 926 l 521 690 l 397 690 l 436 926 l 258 926 l 219 690 l 81 690 l 57 538 l 196 538 l 175 410 l 36 410 l 11 256 l 151 256 l 110 0 l 288 0 l 329 256 l 453 256 l 411 0 l 589 0 l 631 256 l 772 256 l 796 410 z m 476 410 l 353 410 l 374 538 l 497 538 z "},"$":{"ha":833,"x_min":0,"x_max":0,"o":"m 365 1076 l 365 936 b 213 860 306 926 250 897 b 133 654 164 811 133 736 b 196 501 133 592 153 546 b 336 417 238 460 288 436 l 385 397 b 481 356 435 378 458 371 b 522 281 507 338 522 314 b 489 210 522 247 507 225 b 396 181 461 186 426 181 b 267 218 343 181 303 196 b 176 290 221 246 188 279 l 74 138 b 199 43 110 99 151 68 b 365 -3 257 13 310 0 l 365 -156 l 490 -156 l 490 3 b 658 89 560 14 618 46 b 735 296 703 136 735 208 b 669 467 735 363 715 419 b 539 546 633 503 586 525 l 461 579 b 368 625 424 596 390 606 b 342 679 351 639 342 656 b 369 738 342 703 354 724 b 457 764 388 754 418 764 b 608 699 515 764 567 736 l 701 847 b 490 936 615 919 531 933 l 490 1076 z "},"%":{"ha":1153,"x_min":0,"x_max":0,"o":"m 257 3 l 353 -19 l 897 921 l 800 942 z m 285 826 b 364 794 322 826 349 811 b 394 714 382 776 394 747 b 364 633 394 681 382 651 b 285 601 349 617 322 601 b 206 633 247 601 221 617 b 175 714 188 651 175 681 b 206 794 175 747 188 776 b 285 826 221 811 247 826 z m 528 714 b 468 869 528 796 492 846 b 285 939 425 914 358 939 b 101 869 211 939 144 914 b 42 714 78 846 42 796 b 101 558 42 632 78 582 b 285 489 144 514 211 489 b 468 558 358 489 425 514 b 528 714 492 582 528 632 z m 868 325 b 947 293 906 325 932 310 b 978 213 965 275 978 246 b 947 132 978 179 965 150 b 868 100 932 115 906 100 b 789 132 831 100 804 115 b 758 213 771 150 758 179 b 789 293 758 246 771 275 b 868 325 804 310 831 325 z m 1111 213 b 1051 368 1111 294 1075 344 b 868 438 1008 413 942 438 b 685 368 794 438 728 413 b 625 213 661 344 625 294 b 685 57 625 131 661 81 b 868 -12 728 13 794 -12 b 1051 57 942 -12 1008 13 b 1111 213 1075 81 1111 131 z "},"&":{"ha":1033,"x_min":0,"x_max":0,"o":"m 828 468 b 710 339 794 425 756 381 l 575 488 b 675 551 613 503 649 526 b 746 714 725 600 746 660 b 682 872 746 778 719 835 b 475 947 639 915 569 947 b 271 872 376 947 311 911 b 206 706 236 838 206 785 b 231 597 206 668 213 632 b 294 515 244 571 272 538 b 144 429 238 499 182 468 b 72 244 97 381 72 321 b 151 53 72 142 121 82 b 386 -21 224 -15 310 -21 b 560 7 447 -21 507 -15 b 678 90 600 24 643 56 l 761 0 l 1022 0 l 825 217 b 949 350 867 254 908 299 z m 558 225 b 415 164 528 199 476 164 b 325 194 379 164 347 175 b 292 267 307 211 292 236 b 324 350 292 290 297 321 b 399 404 342 371 375 392 z m 404 721 b 431 781 404 743 413 765 b 489 800 450 797 472 800 b 551 778 521 800 540 788 b 575 718 565 764 575 743 b 546 642 575 689 563 661 b 481 592 531 624 503 603 b 428 653 479 593 449 622 b 404 721 414 674 404 694 z "},"'":{"ha":311,"x_min":0,"x_max":0,"o":"m 253 926 l 58 926 l 90 554 l 219 554 z "},"(":{"ha":465,"x_min":0,"x_max":0,"o":"m 253 1028 b 143 761 214 957 174 869 b 94 385 108 638 94 524 b 143 11 94 249 107 135 b 253 -256 174 -97 214 -185 l 388 -181 b 299 63 346 -96 318 -17 b 261 385 271 175 261 269 b 299 710 261 496 269 592 b 388 953 318 789 346 868 z "},")":{"ha":465,"x_min":0,"x_max":0,"o":"m 94 953 b 183 710 136 868 164 789 b 221 385 213 592 221 496 b 183 63 221 269 211 175 b 94 -181 164 -17 136 -96 l 229 -256 b 339 11 268 -185 308 -97 b 388 385 375 135 388 249 b 339 761 388 524 374 638 b 229 1028 308 869 268 957 z "},"*":{"ha":813,"x_min":0,"x_max":0,"o":"m 204 915 l 161 785 l 315 749 l 214 629 l 322 549 l 406 683 l 490 549 l 599 629 l 497 750 l 651 786 l 608 915 l 463 854 l 475 1013 l 338 1013 l 349 854 z "},"+":{"ha":694,"x_min":0,"x_max":0,"o":"m 46 392 l 260 392 l 260 176 l 435 176 l 435 392 l 649 392 l 649 553 l 435 553 l 435 767 l 260 767 l 260 553 l 46 553 z "},",":{"ha":488,"x_min":0,"x_max":0,"o":"m 33 -178 l 158 -183 l 368 204 l 186 214 z "},"-":{"ha":494,"x_min":0,"x_max":0,"o":"m 69 264 l 425 264 l 425 439 l 69 439 z "},".":{"ha":386,"x_min":0,"x_max":0,"o":"m 67 104 b 193 -22 67 33 122 -22 b 319 104 264 -22 319 33 b 193 231 319 175 264 231 b 67 104 122 231 67 175 z "},"/":{"ha":972,"x_min":0,"x_max":0,"o":"m 21 -256 l 178 -283 l 910 1013 l 753 1040 z "},":":{"ha":386,"x_min":0,"x_max":0,"o":"m 67 106 b 193 -21 67 35 122 -21 b 319 106 264 -21 319 35 b 193 232 319 176 264 232 b 67 106 122 232 67 176 z m 67 514 b 193 388 67 443 122 388 b 319 514 264 388 319 443 b 193 640 319 585 264 640 b 67 514 122 640 67 585 z "},";":{"ha":492,"x_min":0,"x_max":0,"o":"m 6 -178 l 131 -183 l 340 204 l 158 214 z m 117 514 b 243 388 117 443 172 388 b 369 514 314 388 369 443 b 243 640 369 585 314 640 b 117 514 172 640 117 585 z "},"<":{"ha":694,"x_min":0,"x_max":0,"o":"m 46 539 l 46 389 l 649 85 l 649 257 l 231 464 l 649 671 l 649 843 z "},"=":{"ha":694,"x_min":0,"x_max":0,"o":"m 46 515 l 649 515 l 649 668 l 46 668 z m 46 276 l 649 276 l 649 429 l 46 429 z "},">":{"ha":694,"x_min":0,"x_max":0,"o":"m 649 539 l 46 843 l 46 671 l 464 464 l 46 257 l 46 85 l 649 389 z "},"?":{"ha":729,"x_min":0,"x_max":0,"o":"m 443 297 l 443 414 b 601 496 522 425 574 465 b 671 672 639 536 671 596 b 593 864 671 739 649 810 b 364 947 546 910 472 947 b 135 863 238 947 169 899 b 58 671 96 822 60 756 l 272 671 b 296 749 271 699 281 732 b 367 775 308 761 331 775 b 433 749 386 775 413 771 b 460 678 450 731 460 706 b 418 582 460 639 443 604 b 240 553 376 546 301 539 l 240 297 z m 221 106 b 347 -21 221 35 276 -21 b 474 106 418 -21 474 35 b 347 232 474 176 418 232 b 221 106 276 232 221 176 z "},"@":{"ha":1019,"x_min":0,"x_max":0,"o":"m 650 618 b 513 690 640 636 604 690 b 347 619 458 690 399 674 b 271 413 286 556 271 481 b 329 250 271 354 282 299 b 468 194 365 213 410 194 b 638 283 499 194 583 199 b 669 232 642 268 649 249 b 744 206 689 215 714 206 b 874 261 768 206 821 210 b 974 529 936 321 974 422 b 858 815 974 656 928 747 b 539 935 758 914 636 935 b 186 800 406 935 286 897 b 46 453 110 726 46 614 b 175 114 46 331 90 203 b 551 -24 282 1 422 -24 b 824 21 635 -24 724 -14 l 797 126 b 547 81 744 107 657 81 b 279 168 464 81 365 92 b 160 447 206 235 160 339 b 269 722 160 543 197 649 b 538 831 331 785 425 831 b 790 733 646 831 738 789 b 871 521 836 686 871 610 b 797 321 871 463 847 364 b 753 300 785 310 767 300 b 729 308 742 300 735 303 b 717 347 719 317 717 335 b 722 394 717 360 719 383 l 778 676 l 661 676 z m 497 313 b 432 338 469 313 447 322 b 403 418 415 354 403 381 b 451 538 403 460 419 507 b 529 569 472 558 497 569 b 589 549 546 569 569 567 b 619 464 607 532 619 503 b 572 344 619 422 603 375 b 497 313 549 321 524 313 z "},"A":{"ha":940,"x_min":0,"x_max":0,"o":"m 715 0 l 938 0 l 572 926 l 376 926 l 3 0 l 225 0 l 296 175 l 646 175 z m 358 339 l 474 650 l 588 339 z "},"B":{"ha":825,"x_min":0,"x_max":0,"o":"m 101 926 l 101 0 l 450 0 b 694 79 507 0 618 6 b 767 267 731 115 767 174 b 707 432 767 349 738 401 b 579 494 674 465 624 488 b 657 563 601 504 633 524 b 688 681 682 603 688 644 b 621 856 688 721 681 799 b 385 926 549 924 435 926 z m 313 760 l 346 760 b 457 736 385 760 426 760 b 493 658 474 724 493 699 b 456 576 493 618 475 590 b 347 550 425 554 376 550 l 313 550 z m 313 392 l 371 392 b 524 357 414 392 486 392 b 553 282 538 344 553 319 b 522 204 553 249 542 222 b 364 167 483 168 418 167 l 313 167 z "},"C":{"ha":840,"x_min":0,"x_max":0,"o":"m 771 275 b 558 179 689 194 614 179 b 358 257 444 179 378 238 b 278 461 317 297 278 365 b 365 675 278 550 314 625 b 554 747 414 722 476 747 b 771 649 653 747 724 699 l 771 896 b 549 947 681 935 610 947 b 203 814 404 947 285 893 b 58 465 119 733 58 611 b 203 114 58 317 119 194 b 567 -21 281 38 396 -21 b 771 29 622 -21 689 -12 z "},"D":{"ha":951,"x_min":0,"x_max":0,"o":"m 101 926 l 101 0 l 401 0 b 767 139 479 0 639 10 b 893 467 843 215 893 321 b 760 799 893 611 842 719 b 394 926 646 908 517 926 z m 315 746 l 372 746 b 597 667 438 746 528 736 b 674 467 633 631 674 567 b 583 243 674 364 633 285 b 372 181 514 185 417 181 l 315 181 z "},"E":{"ha":697,"x_min":0,"x_max":0,"o":"m 625 926 l 101 926 l 101 0 l 625 0 l 625 181 l 315 181 l 315 386 l 610 386 l 610 567 l 315 567 l 315 746 l 625 746 z "},"F":{"ha":671,"x_min":0,"x_max":0,"o":"m 615 926 l 101 926 l 101 0 l 315 0 l 315 386 l 593 386 l 593 567 l 315 567 l 315 746 l 615 746 z "},"G":{"ha":1065,"x_min":0,"x_max":0,"o":"m 547 333 l 771 333 b 704 224 753 265 711 229 b 543 174 683 206 635 174 b 356 246 472 174 410 190 b 278 458 317 285 278 353 b 357 678 278 544 306 624 b 549 753 401 725 464 753 b 690 708 601 753 649 739 b 772 608 726 682 754 644 l 965 713 b 815 878 932 771 878 836 b 556 947 729 935 632 947 b 192 813 446 947 306 931 b 58 461 114 733 58 613 b 194 108 58 276 140 164 b 533 -21 303 -3 422 -21 b 864 106 643 -21 761 -1 b 1007 496 967 213 1007 383 l 1007 506 l 547 506 z "},"H":{"ha":1000,"x_min":0,"x_max":0,"o":"m 315 926 l 101 926 l 101 0 l 315 0 l 315 393 l 685 393 l 685 0 l 899 0 l 899 926 l 685 926 l 685 574 l 315 574 z "},"I":{"ha":425,"x_min":0,"x_max":0,"o":"m 106 926 l 106 0 l 319 0 l 319 926 z "},"J":{"ha":576,"x_min":0,"x_max":0,"o":"m 261 926 l 261 297 b 233 188 261 258 260 214 b 183 168 218 172 201 168 b 131 189 163 168 146 174 b 97 240 119 200 106 224 l -36 90 b 51 13 -12 61 22 31 b 199 -21 100 -17 149 -21 b 394 49 258 -21 333 -12 b 475 296 471 124 475 226 l 475 926 z "},"K":{"ha":931,"x_min":0,"x_max":0,"o":"m 315 926 l 101 926 l 101 0 l 315 0 l 315 411 l 647 0 l 922 0 l 518 488 l 893 926 l 632 926 l 315 540 z "},"L":{"ha":622,"x_min":0,"x_max":0,"o":"m 101 926 l 101 0 l 603 0 l 603 181 l 315 181 l 315 926 z "},"M":{"ha":1231,"x_min":0,"x_max":0,"o":"m 272 0 l 346 553 l 578 0 l 653 0 l 885 553 l 958 0 l 1172 0 l 1024 926 l 846 926 l 615 372 l 385 926 l 207 926 l 58 0 z "},"N":{"ha":1106,"x_min":0,"x_max":0,"o":"m 315 0 l 315 600 l 818 0 l 1004 0 l 1004 926 l 790 926 l 790 329 l 288 926 l 101 926 l 101 0 z "},"O":{"ha":1125,"x_min":0,"x_max":0,"o":"m 564 947 b 201 811 379 947 264 874 b 58 460 118 728 58 593 b 203 115 58 324 114 199 b 564 -21 272 49 390 -21 b 922 115 719 -21 836 32 b 1067 463 1022 213 1067 339 b 922 813 1067 606 1010 728 b 564 947 829 903 708 947 z m 563 750 b 767 671 647 750 721 715 b 847 463 808 629 847 558 b 767 256 847 356 803 290 b 561 176 722 211 656 176 b 363 253 489 176 422 196 b 278 461 306 308 278 376 b 360 671 278 564 319 632 b 563 750 410 721 482 750 z "},"P":{"ha":794,"x_min":0,"x_max":0,"o":"m 101 926 l 101 0 l 315 0 l 315 325 l 446 325 b 682 407 511 325 608 332 b 761 625 717 443 761 508 b 671 850 761 689 750 781 b 428 926 597 915 508 926 z m 315 751 l 388 751 b 507 717 429 751 475 747 b 542 626 528 697 542 665 b 507 535 542 586 526 554 b 392 500 472 501 421 500 l 315 500 z "},"Q":{"ha":1129,"x_min":0,"x_max":0,"o":"m 894 -43 l 1096 -18 l 935 157 b 1025 282 971 189 1001 228 b 1064 461 1049 335 1064 392 b 919 814 1064 614 1004 735 b 561 947 832 896 704 947 b 199 808 401 947 278 888 b 58 464 118 728 58 603 b 204 111 58 347 97 217 b 544 -21 294 22 400 -21 b 804 51 686 -21 758 18 z m 707 386 l 500 364 l 667 200 b 556 176 631 183 594 176 b 356 258 465 176 401 211 b 278 460 304 313 278 385 b 358 668 278 532 306 614 b 561 750 403 714 475 750 b 765 668 638 750 713 722 b 844 464 804 629 844 563 b 790 297 844 394 825 344 z "},"R":{"ha":843,"x_min":0,"x_max":0,"o":"m 101 926 l 101 0 l 315 0 l 315 365 l 565 0 l 826 0 l 542 379 b 671 450 593 392 639 419 b 743 639 731 508 743 581 b 663 846 743 742 701 808 b 426 926 618 888 544 926 z m 315 760 l 365 760 b 483 731 393 760 449 757 b 526 636 501 717 526 689 b 492 546 526 590 507 561 b 364 506 456 510 403 506 l 315 506 z "},"S":{"ha":764,"x_min":0,"x_max":0,"o":"m 675 856 b 400 947 567 936 464 947 b 171 863 314 947 236 929 b 90 654 115 806 90 736 b 146 493 90 610 97 544 b 275 419 182 454 232 435 l 351 393 b 460 342 378 383 435 363 b 492 275 479 325 492 306 b 458 200 492 240 476 215 b 361 168 428 174 389 168 b 244 201 318 168 281 179 b 158 272 219 217 182 249 l 47 119 b 183 18 82 85 136 42 b 367 -21 242 -11 300 -21 b 629 74 428 -21 547 -12 b 711 303 678 124 711 207 b 643 475 711 357 697 424 b 517 546 607 510 557 531 l 447 572 b 331 625 385 596 353 604 b 310 676 317 638 310 654 b 333 735 310 700 319 721 b 424 767 358 763 394 767 b 579 700 450 767 510 763 z "},"T":{"ha":639,"x_min":0,"x_max":0,"o":"m 628 746 l 628 926 l 11 926 l 11 746 l 213 746 l 213 0 l 426 0 l 426 746 z "},"U":{"ha":986,"x_min":0,"x_max":0,"o":"m 885 926 l 671 926 l 671 383 b 622 228 671 343 668 275 b 493 179 585 188 533 179 b 364 228 453 179 401 188 b 315 383 318 275 315 343 l 315 926 l 101 926 l 101 378 b 204 85 101 289 113 179 b 493 -21 293 -7 396 -21 b 782 85 590 -21 693 -7 b 885 378 874 179 885 289 z "},"V":{"ha":942,"x_min":0,"x_max":0,"o":"m 6 926 l 399 0 l 543 0 l 936 926 l 706 926 l 471 333 l 236 926 z "},"W":{"ha":1392,"x_min":0,"x_max":0,"o":"m 6 926 l 321 0 l 501 0 l 696 563 l 890 0 l 1071 0 l 1386 926 l 1164 926 l 967 313 l 769 926 l 622 926 l 425 313 l 228 926 z "},"X":{"ha":953,"x_min":0,"x_max":0,"o":"m 14 0 l 271 0 l 476 321 l 682 0 l 939 0 l 599 492 l 886 926 l 629 926 l 476 663 l 324 926 l 67 926 l 354 492 z "},"Y":{"ha":878,"x_min":0,"x_max":0,"o":"m 332 0 l 546 0 l 546 432 l 878 926 l 625 926 l 439 639 l 253 926 l 0 926 l 332 432 z "},"Z":{"ha":856,"x_min":0,"x_max":0,"o":"m 825 926 l 103 926 l 103 746 l 475 746 l 31 0 l 779 0 l 779 181 l 382 181 z "},"[":{"ha":492,"x_min":0,"x_max":0,"o":"m 422 876 l 422 1013 l 125 1013 l 125 -256 l 422 -256 l 422 -119 l 294 -119 l 294 876 z "},"\\":{"ha":972,"x_min":0,"x_max":0,"o":"m 951 -256 l 219 1040 l 63 1013 l 794 -283 z "},"]":{"ha":492,"x_min":0,"x_max":0,"o":"m 69 876 l 197 876 l 197 -119 l 69 -119 l 69 -256 l 367 -256 l 367 1013 l 69 1013 z "},"^":{"ha":694,"x_min":0,"x_max":0,"o":"m 346 792 l 501 463 l 685 463 l 461 926 l 232 926 l 8 463 l 192 463 z "},"_":{"ha":694,"x_min":0,"x_max":0,"o":"m 0 -256 l 694 -256 l 694 -92 l 0 -92 z "},"`":{"ha":694,"x_min":0,"x_max":0,"o":"m 333 715 l 424 782 l 254 993 l 122 903 z "},"a":{"ha":831,"x_min":0,"x_max":0,"o":"m 553 550 b 358 640 496 628 411 640 b 143 556 272 640 197 610 b 47 306 86 499 47 410 b 138 74 47 224 72 143 b 369 -21 206 1 281 -21 b 553 75 421 -21 499 -8 l 553 0 l 753 0 l 753 619 l 553 619 z m 408 468 b 519 425 444 468 489 454 b 565 311 549 397 565 356 b 517 194 565 258 543 219 b 413 151 490 168 453 151 b 294 200 365 151 322 171 b 253 311 276 219 253 256 b 299 424 253 367 278 403 b 408 468 325 450 365 468 z "},"b":{"ha":836,"x_min":0,"x_max":0,"o":"m 83 1013 l 83 0 l 283 0 l 283 75 b 479 -21 314 31 369 -21 b 692 64 571 -21 638 8 b 789 313 756 128 789 217 b 692 557 789 415 751 500 b 476 640 638 608 561 640 b 283 550 408 640 333 618 l 283 1013 z m 428 468 b 535 426 468 468 503 457 b 583 308 564 399 583 358 b 535 194 583 263 564 222 b 431 151 504 165 465 151 b 317 197 393 151 349 167 b 271 308 293 219 271 257 b 315 422 271 361 292 397 b 428 468 347 456 385 468 z "},"c":{"ha":599,"x_min":0,"x_max":0,"o":"m 543 606 b 386 640 490 631 440 640 b 150 553 301 640 219 618 b 47 308 92 497 47 414 b 144 72 47 196 97 118 b 385 -21 201 17 281 -21 b 543 17 440 -21 490 -12 l 543 197 b 415 149 497 158 450 149 b 294 199 371 149 325 165 b 253 310 269 225 253 264 b 299 426 253 360 272 400 b 413 471 313 440 350 471 b 543 424 444 471 494 464 z "},"d":{"ha":836,"x_min":0,"x_max":0,"o":"m 753 1013 l 553 1013 l 553 550 b 360 640 503 618 428 640 b 144 557 275 640 199 608 b 47 313 85 500 47 415 b 144 64 47 217 81 128 b 357 -21 199 8 265 -21 b 553 75 467 -21 522 31 l 553 0 l 753 0 z m 408 468 b 521 422 451 468 489 456 b 565 308 544 397 565 361 b 519 197 565 257 543 219 b 406 151 488 167 443 151 b 301 194 371 151 332 165 b 253 308 272 222 253 263 b 301 426 253 358 272 399 b 408 468 333 457 368 468 z "},"e":{"ha":760,"x_min":0,"x_max":0,"o":"m 257 394 b 292 461 263 422 276 444 b 393 501 311 481 342 501 b 488 467 433 501 465 488 b 528 394 517 439 526 400 z m 713 296 b 625 547 713 372 699 469 b 379 640 549 628 449 640 b 142 551 310 640 217 626 b 47 307 79 488 47 396 b 140 68 47 204 86 122 b 388 -21 213 -4 294 -21 b 583 25 457 -21 524 -11 b 703 181 619 47 675 93 l 514 200 b 471 149 497 165 474 150 b 390 131 450 136 419 131 b 288 169 360 131 318 136 b 250 275 263 197 250 242 l 713 275 z "},"f":{"ha":453,"x_min":0,"x_max":0,"o":"m 453 458 l 453 619 l 294 619 l 294 724 b 317 831 294 753 294 801 b 375 856 325 842 344 856 b 451 832 400 856 429 846 l 451 1007 b 338 1028 418 1019 382 1028 b 164 957 261 1028 204 1000 b 94 742 101 890 94 811 l 94 619 l 22 619 l 22 458 l 94 458 l 94 0 l 294 0 l 294 458 z "},"g":{"ha":826,"x_min":0,"x_max":0,"o":"m 549 547 b 364 640 526 581 476 640 b 139 551 249 640 176 590 b 47 304 86 497 47 410 b 138 71 47 197 88 122 b 364 -17 194 14 268 -17 b 549 76 478 -17 525 38 l 549 6 b 508 -124 549 -21 547 -86 b 408 -157 494 -136 465 -157 b 322 -136 379 -157 346 -151 b 278 -75 306 -125 286 -107 l 60 -75 b 153 -239 74 -153 114 -206 b 411 -318 231 -306 329 -318 b 672 -226 479 -318 596 -308 b 749 38 744 -149 749 -50 l 749 619 l 549 619 z m 410 467 b 518 428 446 467 489 454 b 565 314 544 403 565 363 b 517 196 565 268 547 225 b 408 156 496 176 461 156 b 296 200 361 156 324 171 b 253 311 268 229 253 271 b 300 426 253 349 269 397 b 410 467 325 450 365 467 z "},"h":{"ha":793,"x_min":0,"x_max":0,"o":"m 83 0 l 283 0 l 283 310 b 325 439 283 340 285 400 b 404 469 336 450 361 469 b 482 442 433 469 464 460 b 515 318 514 411 515 361 l 515 0 l 715 0 l 715 393 b 654 574 715 440 711 517 b 479 636 600 629 528 636 b 358 610 435 636 400 632 b 283 546 335 597 308 576 l 283 1013 l 83 1013 z "},"i":{"ha":383,"x_min":0,"x_max":0,"o":"m 92 619 l 92 0 l 292 0 l 292 619 z m 75 883 b 192 767 75 818 126 767 b 308 883 257 767 308 818 b 192 1000 308 949 257 1000 b 75 883 126 1000 75 949 z "},"j":{"ha":383,"x_min":0,"x_max":0,"o":"m 92 619 l 92 -318 l 292 -318 l 292 619 z m 75 883 b 192 767 75 818 126 767 b 308 883 257 767 308 818 b 192 1000 308 949 257 1000 b 75 883 126 1000 75 949 z "},"k":{"ha":786,"x_min":0,"x_max":0,"o":"m 83 1013 l 83 0 l 283 0 l 283 267 l 522 0 l 792 0 l 476 339 l 771 619 l 508 619 l 283 392 l 283 1013 z "},"l":{"ha":367,"x_min":0,"x_max":0,"o":"m 83 1013 l 83 0 l 283 0 l 283 1013 z "},"m":{"ha":1171,"x_min":0,"x_max":0,"o":"m 78 0 l 278 0 l 278 317 b 317 443 278 338 279 407 b 386 468 336 461 360 468 b 453 443 407 468 432 464 b 485 322 483 413 485 364 l 485 0 l 685 0 l 685 308 b 715 431 685 349 689 397 b 793 468 732 453 760 468 b 865 435 822 468 849 456 b 892 314 892 401 892 346 l 892 0 l 1092 0 l 1092 392 b 1028 576 1092 436 1088 519 b 854 635 990 613 929 635 b 722 600 806 635 765 626 b 643 521 682 575 658 546 b 568 607 626 558 600 589 b 451 635 526 632 478 635 b 278 547 404 635 329 625 l 278 619 l 78 619 z "},"n":{"ha":788,"x_min":0,"x_max":0,"o":"m 78 0 l 278 0 l 278 318 b 317 436 278 358 283 403 b 400 469 332 453 358 469 b 476 442 436 469 461 457 b 510 318 508 410 510 358 l 510 0 l 710 0 l 710 392 b 647 574 710 442 706 515 b 469 636 594 626 524 636 b 278 546 411 636 339 624 l 278 619 l 78 619 z "},"o":{"ha":822,"x_min":0,"x_max":0,"o":"m 775 310 b 682 540 775 389 744 478 b 411 640 626 596 532 640 b 140 540 290 640 196 596 b 47 310 78 478 47 389 b 140 79 47 231 78 142 b 411 -21 196 24 290 -21 b 682 79 532 -21 626 24 b 775 310 744 142 775 231 z m 411 471 b 524 426 457 471 494 456 b 569 310 553 397 569 360 b 524 193 569 260 553 222 b 413 149 494 164 457 149 b 299 193 360 149 324 168 b 253 310 275 217 253 253 b 299 426 253 360 269 397 b 411 471 328 456 365 471 z "},"p":{"ha":831,"x_min":0,"x_max":0,"o":"m 278 71 b 475 -21 299 42 351 -21 b 685 63 557 -21 624 1 b 783 311 746 124 783 204 b 690 553 783 413 746 497 b 471 640 651 592 582 640 b 278 546 424 640 343 631 l 278 619 l 78 619 l 78 -318 l 278 -318 z m 422 468 b 531 425 463 468 501 453 b 578 313 558 399 578 358 b 529 194 578 272 561 225 b 422 151 500 167 460 151 b 308 199 379 151 338 169 b 264 308 279 229 264 269 b 311 422 264 346 279 390 b 422 468 331 442 367 468 z "},"q":{"ha":831,"x_min":0,"x_max":0,"o":"m 553 -318 l 753 -318 l 753 619 l 553 619 l 553 546 b 357 640 490 625 418 640 b 140 553 268 640 196 610 b 47 311 86 496 47 414 b 146 63 47 204 85 124 b 356 -21 208 0 274 -21 b 553 71 403 -21 488 -11 z m 408 468 b 519 422 464 468 500 442 b 567 308 551 390 567 346 b 522 199 567 269 551 229 b 408 151 493 169 451 151 b 301 194 371 151 331 167 b 253 313 269 225 253 272 b 300 425 253 358 272 399 b 408 468 329 453 368 468 z "},"r":{"ha":533,"x_min":0,"x_max":0,"o":"m 78 0 l 278 0 l 278 251 b 326 418 278 304 282 371 b 426 460 351 444 383 460 b 517 438 461 460 490 451 l 528 625 b 463 635 506 632 488 635 b 356 608 424 635 389 629 b 278 522 324 589 296 557 l 278 619 l 78 619 z "},"s":{"ha":603,"x_min":0,"x_max":0,"o":"m 536 588 b 331 640 486 617 422 640 b 143 578 274 640 199 629 b 83 435 107 544 83 494 b 128 322 83 388 99 353 b 228 265 154 296 192 276 l 278 250 b 339 228 307 242 325 236 b 361 192 357 217 361 203 b 340 151 361 176 353 161 b 278 138 322 138 290 138 b 194 157 251 138 222 143 b 126 203 174 167 146 186 l 42 68 b 296 -21 122 -3 213 -21 b 497 50 361 -21 436 -11 b 561 213 525 78 561 131 b 513 331 561 260 549 297 b 410 385 481 360 444 374 l 357 401 b 297 422 332 410 311 414 b 278 450 288 428 278 436 b 290 478 278 460 283 471 b 347 496 303 490 326 496 b 457 461 386 496 426 479 z "},"t":{"ha":415,"x_min":0,"x_max":0,"o":"m 407 458 l 407 619 l 283 619 l 283 819 l 83 819 l 83 619 l 14 619 l 14 458 l 83 458 l 83 0 l 283 0 l 283 458 z "},"u":{"ha":792,"x_min":0,"x_max":0,"o":"m 78 619 l 78 246 b 146 60 78 178 89 115 b 396 -21 217 -10 319 -21 b 644 60 469 -21 574 -10 b 714 258 707 121 714 188 l 714 619 l 514 619 l 514 278 b 481 178 514 247 510 206 b 396 149 463 161 433 149 b 313 178 351 149 326 165 b 278 278 281 207 278 250 l 278 619 z "},"v":{"ha":758,"x_min":0,"x_max":0,"o":"m 3 619 l 317 0 l 442 0 l 756 619 l 536 619 l 379 288 l 222 619 z "},"w":{"ha":1183,"x_min":0,"x_max":0,"o":"m 592 353 l 747 0 l 872 0 l 1181 619 l 961 619 l 801 290 l 644 628 l 539 628 l 382 290 l 222 619 l 3 619 l 311 0 l 436 0 z "},"x":{"ha":861,"x_min":0,"x_max":0,"o":"m 3 0 l 261 0 l 431 200 l 600 0 l 858 0 l 556 338 l 801 619 l 546 619 l 431 476 l 315 619 l 60 619 l 306 338 z "},"y":{"ha":813,"x_min":0,"x_max":0,"o":"m 81 -318 l 306 -318 l 804 619 l 579 619 l 408 283 l 233 619 l 3 619 l 299 79 z "},"z":{"ha":693,"x_min":0,"x_max":0,"o":"m 676 619 l 65 619 l 65 453 l 339 453 l 17 0 l 649 0 l 649 167 l 356 167 z "},"{":{"ha":700,"x_min":0,"x_max":0,"o":"m 336 378 b 400 436 371 392 390 417 b 419 553 413 461 419 496 l 419 776 b 436 839 419 796 419 822 b 535 858 456 858 493 858 l 561 858 l 561 1010 b 460 1013 538 1011 497 1013 b 299 968 403 1013 344 1010 b 249 813 249 922 249 868 l 249 557 b 225 479 249 531 247 501 b 172 456 213 467 194 457 l 172 308 b 225 285 194 307 213 297 b 249 207 247 263 249 233 l 249 -56 b 299 -211 249 -111 249 -165 b 460 -256 344 -253 403 -256 b 561 -253 497 -256 538 -254 l 561 -101 l 535 -101 b 436 -82 493 -101 456 -101 b 419 -19 419 -65 419 -39 l 419 203 b 400 319 419 260 413 294 b 336 378 390 339 371 364 z "},"|":{"ha":700,"x_min":0,"x_max":0,"o":"m 263 -347 l 438 -347 l 438 1042 l 263 1042 z "},"}":{"ha":700,"x_min":0,"x_max":0,"o":"m 281 -19 b 264 -82 281 -39 281 -65 b 165 -101 244 -101 207 -101 l 139 -101 l 139 -253 b 240 -256 163 -254 203 -256 b 401 -211 297 -256 356 -253 b 451 -56 451 -165 451 -111 l 451 207 b 475 285 451 233 453 263 b 528 308 488 297 506 307 l 528 456 b 475 479 506 457 488 467 b 451 557 453 501 451 531 l 451 813 b 401 968 451 868 451 922 b 240 1013 356 1010 297 1013 b 139 1010 203 1013 163 1011 l 139 858 l 165 858 b 264 839 207 858 244 858 b 281 776 281 822 281 796 l 281 553 b 300 436 281 496 288 461 b 364 378 310 417 329 392 b 300 319 329 364 310 339 b 281 203 288 294 281 260 z "},"~":{"ha":694,"x_min":0,"x_max":0,"o":"m 353 313 b 474 285 393 297 428 285 b 607 344 529 285 567 301 b 681 457 643 382 664 424 l 686 468 l 586 526 b 553 479 581 513 569 496 b 486 454 533 461 515 454 b 392 476 453 454 424 464 l 339 496 b 218 524 307 508 269 524 b 93 474 167 524 126 507 b 15 344 76 457 51 424 l 8 329 l 107 269 b 146 329 115 290 131 314 b 214 354 165 349 185 354 b 303 332 257 354 278 342 z "}," ":{"ha":324,"x_min":0,"x_max":0,"o":""},"¡":{"ha":386,"x_min":0,"x_max":0,"o":"m 296 308 l 90 308 l 90 -319 l 296 -319 z m 67 503 b 193 376 67 432 122 376 b 319 503 264 376 319 432 b 193 629 319 574 264 629 b 67 503 122 629 67 574 z "},"¢":{"ha":833,"x_min":0,"x_max":0,"o":"m 429 917 l 429 792 b 251 701 342 776 283 733 b 156 457 201 651 156 571 b 249 229 156 372 181 296 b 429 142 311 168 378 149 l 429 18 l 554 18 l 554 147 b 642 171 585 150 614 158 l 642 357 b 519 306 603 314 550 306 b 408 344 481 306 436 319 b 361 464 382 369 361 411 b 408 583 361 515 381 557 b 522 628 439 613 483 628 b 642 575 565 628 608 611 l 642 760 b 554 786 614 775 585 783 l 554 917 z "},"£":{"ha":833,"x_min":0,"x_max":0,"o":"m 221 344 b 240 275 236 318 240 293 b 229 211 240 254 235 229 b 114 151 171 201 133 171 b 39 6 79 117 51 57 l 183 -7 b 210 31 189 8 199 22 b 278 49 231 47 260 49 b 383 29 317 49 354 39 l 438 11 b 597 -21 525 -18 575 -21 b 740 36 664 -21 710 4 b 808 196 776 75 801 142 l 672 213 b 651 165 669 197 663 176 b 597 146 636 149 614 146 b 482 171 571 146 538 153 l 401 197 b 415 279 408 221 415 256 b 404 344 415 300 410 325 l 578 344 l 578 472 l 371 472 b 325 625 358 497 325 565 b 369 736 325 678 346 714 b 457 768 394 760 425 768 b 547 732 501 768 531 749 b 582 600 576 701 582 649 l 794 600 b 796 633 796 611 796 622 b 710 863 796 721 767 808 b 467 946 660 911 576 946 b 206 850 376 946 282 925 b 118 631 149 794 118 724 b 160 472 118 564 135 515 l 65 472 l 65 344 z "},"¤":{"ha":926,"x_min":0,"x_max":0,"o":"m 124 93 l 267 235 b 463 174 308 201 367 174 b 658 236 556 174 614 200 l 801 93 l 896 188 l 753 331 b 814 522 808 397 814 469 b 751 715 814 571 808 644 l 893 858 l 799 953 l 656 810 b 463 871 585 865 511 871 b 268 810 414 871 342 865 l 124 953 l 29 858 l 174 714 b 111 522 114 633 111 565 b 172 331 111 442 132 382 l 29 188 z m 463 329 b 325 386 407 329 364 344 b 272 522 292 421 272 465 b 326 661 272 586 297 632 b 463 715 354 690 400 715 b 599 661 519 715 567 693 b 653 522 625 635 653 592 b 597 382 653 469 638 422 b 463 329 561 346 519 329 z "},"¥":{"ha":833,"x_min":0,"x_max":0,"o":"m 281 482 l 311 433 l 311 394 l 86 394 l 86 260 l 311 260 l 311 0 l 514 0 l 514 260 l 749 260 l 749 394 l 514 394 l 514 433 l 546 482 l 749 482 l 749 617 l 629 617 l 821 926 l 576 926 l 418 632 l 256 926 l 14 926 l 200 617 l 86 617 l 86 482 z "},"¦":{"ha":700,"x_min":0,"x_max":0,"o":"m 263 507 l 438 507 l 438 1042 l 263 1042 z m 263 -347 l 438 -347 l 438 189 l 263 189 z "},"§":{"ha":797,"x_min":0,"x_max":0,"o":"m 668 757 b 593 943 663 822 635 900 b 390 1013 560 978 499 1013 b 197 943 328 1013 254 1001 b 136 782 164 908 136 857 b 172 667 136 735 146 701 b 249 603 192 640 219 618 b 140 521 197 583 161 551 b 101 383 110 478 101 428 b 167 204 101 326 114 258 b 342 110 210 160 275 133 b 458 56 399 89 433 78 b 488 -10 479 36 488 15 b 460 -81 488 -39 478 -64 b 399 -103 450 -90 431 -103 b 329 -71 364 -103 342 -87 b 304 13 314 -51 304 -18 l 124 13 b 199 -178 126 -61 156 -132 b 403 -256 258 -242 335 -256 b 590 -187 458 -256 529 -247 b 660 -12 635 -144 660 -82 b 626 97 660 25 651 61 b 544 167 606 128 575 151 b 650 250 596 188 629 221 b 696 401 678 289 696 342 b 635 560 696 476 665 528 b 511 640 606 592 564 617 l 468 660 b 356 715 425 679 388 693 b 313 789 333 731 313 753 b 336 843 313 811 322 831 b 396 864 347 853 365 864 b 461 839 422 864 446 854 b 488 757 478 822 488 786 z m 400 494 b 476 464 428 494 454 486 b 507 385 501 439 507 411 b 476 304 507 357 501 329 b 400 274 454 282 428 274 b 321 304 369 274 343 282 b 290 385 296 329 290 357 b 321 464 290 411 296 439 b 400 494 343 486 369 494 z "},"¨":{"ha":694,"x_min":0,"x_max":0,"o":"m 389 832 b 499 722 389 772 439 722 b 608 832 558 722 608 772 b 499 942 608 892 558 942 b 389 832 439 942 389 892 z m 86 832 b 196 722 86 772 136 722 b 306 832 256 722 306 772 b 196 942 306 892 256 942 b 86 832 136 942 86 892 z "},"©":{"ha":1058,"x_min":0,"x_max":0,"o":"m 704 719 b 556 753 654 743 600 753 b 333 667 454 753 379 714 b 251 460 285 618 251 546 b 332 254 251 375 286 301 b 550 172 374 211 443 172 b 704 207 599 172 647 182 l 704 374 b 564 306 681 349 633 306 b 446 353 517 306 474 324 b 407 461 422 378 407 417 b 451 578 407 501 421 549 b 563 619 481 606 525 619 b 704 550 622 619 672 586 z m 529 861 b 794 753 618 861 725 819 b 914 464 863 686 914 576 b 794 174 914 350 863 239 b 529 65 725 107 618 65 b 264 174 440 65 333 107 b 144 464 196 239 144 350 b 264 753 144 576 196 686 b 529 861 333 819 440 861 z m 1011 463 b 868 810 1011 597 958 719 b 529 947 786 890 669 947 b 190 810 389 947 272 890 b 47 463 100 719 47 597 b 190 117 47 331 100 207 b 529 -21 272 36 389 -21 b 868 117 669 -21 786 36 b 1011 463 958 207 1011 331 z "},"ª":{"ha":489,"x_min":0,"x_max":0,"o":"m 328 874 b 213 926 292 919 242 926 b 88 878 154 926 114 903 b 31 732 44 836 31 786 b 88 585 31 688 39 631 b 214 536 111 561 151 536 b 328 593 247 536 294 544 l 328 549 l 444 549 l 444 915 l 328 915 z m 44 404 l 444 404 l 444 496 l 44 496 z m 242 824 b 310 796 265 824 292 814 b 333 729 329 776 333 753 b 310 667 333 706 326 685 b 242 639 296 653 275 639 b 174 667 213 639 189 651 b 150 729 154 686 150 711 b 174 794 150 756 157 776 b 242 824 192 814 218 824 z "},"«":{"ha":742,"x_min":0,"x_max":0,"o":"m 219 311 l 381 533 l 271 610 l 56 311 l 271 11 l 383 90 z m 508 311 l 669 533 l 560 610 l 344 311 l 560 11 l 672 90 z "},"¬":{"ha":694,"x_min":0,"x_max":0,"o":"m 650 0 l 650 371 l 44 371 l 44 207 l 475 207 l 475 0 z "},"­":{"ha":494,"x_min":0,"x_max":0,"o":"m 69 264 l 425 264 l 425 439 l 69 439 z "},"®":{"ha":1057,"x_min":0,"x_max":0,"o":"m 315 735 l 315 208 l 465 208 l 465 386 l 571 208 l 756 208 l 607 419 b 682 461 626 424 656 433 b 722 567 706 486 722 522 b 679 681 722 613 704 654 b 513 735 631 731 558 735 z m 465 624 l 485 624 b 556 610 503 624 536 624 b 575 565 572 597 575 578 b 549 514 575 543 568 526 b 486 501 529 501 508 501 l 465 501 z m 528 861 b 793 753 617 861 724 819 b 913 464 861 686 913 576 b 793 174 913 350 861 239 b 528 65 724 107 617 65 b 263 174 439 65 332 107 b 143 464 194 239 143 350 b 263 753 143 576 194 686 b 528 861 332 819 439 861 z m 1010 463 b 867 810 1010 597 957 719 b 528 947 785 890 668 947 b 189 810 388 947 271 890 b 46 463 99 719 46 597 b 189 117 46 331 99 207 b 528 -21 271 36 388 -21 b 867 117 668 -21 785 36 b 1010 463 957 207 1010 331 z "},"¯":{"ha":694,"x_min":0,"x_max":0,"o":"m 83 754 l 611 754 l 611 879 l 83 879 z "},"°":{"ha":697,"x_min":0,"x_max":0,"o":"m 243 715 b 349 818 243 771 290 818 b 454 715 407 818 454 771 b 349 613 454 660 407 613 b 243 715 290 613 243 660 z m 135 715 b 349 504 135 597 228 504 b 563 715 469 504 563 597 b 349 926 563 833 469 926 b 135 715 228 926 135 833 z "},"±":{"ha":694,"x_min":0,"x_max":0,"o":"m 46 494 l 260 494 l 260 279 l 435 279 l 435 494 l 649 494 l 649 656 l 435 656 l 435 871 l 260 871 l 260 656 l 46 656 z m 46 71 l 649 71 l 649 232 l 46 232 z "},"²":{"ha":549,"x_min":0,"x_max":0,"o":"m 40 382 l 464 382 l 464 490 l 282 490 l 349 554 b 425 643 378 583 403 606 b 458 763 447 679 458 715 b 408 890 458 794 453 847 b 260 943 376 921 325 943 b 111 890 199 943 144 924 b 51 749 76 856 56 799 l 182 749 b 200 807 183 769 190 793 b 250 832 211 822 228 832 b 301 813 272 832 290 825 b 319 758 307 806 319 790 b 297 682 319 732 313 707 b 186 547 283 657 256 626 z "},"³":{"ha":549,"x_min":0,"x_max":0,"o":"m 42 551 b 103 421 47 494 74 449 b 269 365 150 375 211 365 b 424 419 317 365 375 371 b 474 544 465 461 474 510 b 435 643 474 592 454 624 b 385 675 422 656 404 667 b 429 717 407 688 421 704 b 447 789 444 740 447 765 b 403 897 447 821 440 863 b 253 943 360 936 300 943 b 108 890 203 943 149 933 b 56 771 81 861 61 815 l 186 771 b 203 818 186 788 192 806 b 251 838 208 824 224 838 b 296 824 268 838 285 832 b 317 776 306 815 317 801 b 294 726 317 754 307 736 b 238 713 278 714 257 713 l 224 713 l 224 615 l 239 615 b 311 599 260 615 289 617 b 335 549 322 590 335 574 b 311 494 335 526 328 508 b 254 476 294 481 275 476 b 197 496 225 476 207 486 b 172 551 183 508 174 531 z "},"´":{"ha":694,"x_min":0,"x_max":0,"o":"m 440 993 l 269 782 l 360 715 l 571 903 z "},"µ":{"ha":786,"x_min":0,"x_max":0,"o":"m 311 -318 l 311 81 b 354 11 318 58 335 28 b 431 -14 378 -10 406 -14 b 507 11 456 -14 483 -10 b 550 81 525 28 542 58 l 550 0 l 746 0 l 746 619 l 546 619 l 546 321 b 497 153 546 264 540 189 b 431 131 478 136 454 131 b 364 153 407 131 383 136 b 315 321 321 189 315 263 l 315 619 l 115 619 l 115 -318 z "},"¶":{"ha":915,"x_min":0,"x_max":0,"o":"m 450 -131 l 450 790 l 565 790 l 565 -131 l 715 -131 l 715 790 l 815 790 l 815 926 l 356 926 b 104 854 240 926 167 915 b 36 682 54 806 36 750 b 97 517 36 635 46 569 b 289 446 156 456 231 446 l 300 446 l 300 -131 z "},"·":{"ha":356,"x_min":0,"x_max":0,"o":"m 28 464 b 178 314 28 379 93 314 b 328 464 263 314 328 379 b 178 614 328 549 263 614 b 28 464 93 614 28 549 z "},"¸":{"ha":694,"x_min":0,"x_max":0,"o":"m 367 -64 l 231 -272 l 333 -328 l 497 -125 z "},"¹":{"ha":549,"x_min":0,"x_max":0,"o":"m 226 382 l 354 382 l 354 926 l 133 926 l 133 818 l 226 818 z "},"º":{"ha":481,"x_min":0,"x_max":0,"o":"m 40 404 l 440 404 l 440 496 l 40 496 z m 240 824 b 308 796 271 824 294 811 b 332 731 322 781 332 758 b 308 667 332 703 322 682 b 240 639 292 649 267 639 b 172 667 213 639 188 651 b 149 731 158 681 149 704 b 172 796 149 758 158 781 b 240 824 186 811 210 824 z m 451 732 b 397 867 451 789 429 835 b 240 926 361 903 307 926 b 83 867 174 926 119 903 b 29 732 51 835 29 789 b 83 596 29 676 51 629 b 240 536 119 560 174 536 b 397 596 307 536 361 560 b 451 732 429 629 451 676 z "},"»":{"ha":742,"x_min":0,"x_max":0,"o":"m 233 311 l 69 90 l 182 11 l 397 311 l 182 610 l 72 533 z m 522 311 l 358 90 l 471 11 l 686 311 l 471 610 l 361 533 z "},"¼":{"ha":1194,"x_min":0,"x_max":0,"o":"m 1019 556 l 872 556 l 631 175 l 631 106 l 897 106 l 897 0 l 1019 0 l 1019 106 l 1083 106 l 1083 208 l 1019 208 z m 767 208 l 897 414 l 897 208 z m 213 371 l 340 371 l 340 926 l 119 926 l 119 818 l 213 818 z m 240 14 l 335 -19 l 876 910 l 782 942 z "},"½":{"ha":1194,"x_min":0,"x_max":0,"o":"m 197 382 l 325 382 l 325 926 l 106 926 l 106 818 l 197 818 z m 225 14 l 319 -19 l 861 910 l 767 942 z m 681 0 l 1103 0 l 1103 108 l 921 108 l 988 172 b 1061 258 1014 197 1035 215 b 1097 381 1085 296 1097 329 b 1046 510 1097 411 1092 467 b 894 561 1013 540 958 561 b 750 508 838 561 785 542 b 690 367 715 474 694 417 l 821 367 b 840 425 822 383 828 408 b 893 450 851 440 868 450 b 940 431 921 450 936 435 b 958 376 946 424 958 408 b 936 300 958 349 951 325 b 825 165 914 261 879 228 z "},"¾":{"ha":1193,"x_min":0,"x_max":0,"o":"m 39 554 b 100 424 44 497 71 451 b 267 368 147 378 208 368 b 421 422 314 368 372 374 b 471 546 444 446 471 485 b 432 647 471 596 451 628 b 382 679 419 660 401 671 b 426 721 404 692 418 708 b 444 793 442 744 444 769 b 400 901 444 825 438 867 b 256 947 357 940 300 947 b 111 894 206 947 151 938 b 58 775 83 865 64 819 l 183 775 b 200 822 183 792 189 810 b 249 842 206 828 221 842 b 293 828 265 842 282 836 b 314 781 303 819 314 806 b 292 731 314 758 304 740 b 235 717 275 718 254 717 l 221 717 l 221 619 l 236 619 b 308 603 257 619 286 619 b 332 550 325 590 332 571 b 308 497 332 531 322 510 b 251 479 297 486 279 479 b 194 499 222 479 204 489 b 169 554 181 511 171 533 z m 308 14 l 403 -19 l 944 910 l 850 942 z m 835 208 l 965 414 l 965 208 z m 1088 556 l 940 556 l 699 175 l 699 106 l 965 106 l 965 0 l 1088 0 l 1088 106 l 1151 106 l 1151 208 l 1088 208 z "},"¿":{"ha":729,"x_min":0,"x_max":0,"o":"m 286 314 l 286 197 b 128 115 207 186 156 146 b 58 -61 90 75 58 15 b 136 -253 58 -128 81 -199 b 365 -336 183 -299 257 -336 b 594 -251 492 -336 560 -287 b 671 -60 633 -211 669 -144 l 457 -60 b 433 -137 457 -87 449 -121 b 363 -164 421 -150 399 -164 b 296 -137 343 -164 317 -160 b 269 -67 279 -119 269 -94 b 311 29 269 -28 286 7 b 429 65 340 54 385 65 b 489 58 450 65 469 63 l 489 314 z m 508 503 b 382 629 508 574 453 629 b 256 503 311 629 256 574 b 382 376 256 432 311 376 b 508 503 453 376 508 432 z "},"À":{"ha":940,"x_min":0,"x_max":0,"o":"m 715 0 l 938 0 l 572 926 l 376 926 l 3 0 l 225 0 l 296 175 l 646 175 z m 358 339 l 474 650 l 588 339 z m 492 1006 l 582 1079 l 397 1285 l 264 1185 z "},"Á":{"ha":940,"x_min":0,"x_max":0,"o":"m 715 0 l 938 0 l 572 926 l 376 926 l 3 0 l 225 0 l 296 175 l 646 175 z m 358 339 l 474 650 l 588 339 z m 547 1285 l 361 1079 l 451 1006 l 679 1185 z "},"Â":{"ha":940,"x_min":0,"x_max":0,"o":"m 715 0 l 938 0 l 572 926 l 376 926 l 3 0 l 225 0 l 296 175 l 646 175 z m 358 339 l 474 650 l 588 339 z m 297 1008 l 469 1138 l 640 1008 l 732 1107 l 469 1301 l 208 1107 z "},"Ã":{"ha":940,"x_min":0,"x_max":0,"o":"m 715 0 l 938 0 l 572 926 l 376 926 l 3 0 l 225 0 l 296 175 l 646 175 z m 358 339 l 474 650 l 588 339 z m 644 1204 b 578 1151 631 1171 608 1151 b 521 1168 556 1151 536 1163 l 465 1190 b 382 1210 442 1200 417 1210 b 281 1168 344 1210 310 1199 b 229 1086 261 1147 239 1107 l 328 1017 b 392 1071 346 1063 372 1071 b 443 1056 406 1071 421 1064 l 500 1033 b 586 1011 531 1021 557 1011 b 685 1054 633 1011 663 1032 b 743 1135 707 1076 728 1104 z "},"Ä":{"ha":940,"x_min":0,"x_max":0,"o":"m 715 0 l 938 0 l 572 926 l 376 926 l 3 0 l 225 0 l 296 175 l 646 175 z m 358 339 l 474 650 l 588 339 z m 208 1126 b 318 1017 208 1067 258 1017 b 428 1126 378 1017 428 1067 b 318 1236 428 1186 378 1236 b 208 1126 258 1236 208 1186 z m 511 1126 b 621 1017 511 1067 561 1017 b 731 1126 681 1017 731 1067 b 621 1236 731 1186 681 1236 b 511 1126 561 1236 511 1186 z "},"Å":{"ha":940,"x_min":0,"x_max":0,"o":"m 715 0 l 938 0 l 572 926 l 376 926 l 3 0 l 225 0 l 296 175 l 646 175 z m 358 339 l 474 650 l 588 339 z m 631 1149 b 593 1240 631 1183 617 1217 b 469 1285 563 1269 517 1285 b 346 1240 422 1285 376 1269 b 308 1149 322 1217 308 1183 b 346 1057 308 1114 322 1081 b 469 1013 376 1028 422 1013 b 593 1057 517 1013 563 1028 b 631 1149 617 1081 631 1114 z m 469 1203 b 517 1186 492 1203 507 1196 b 533 1149 528 1175 533 1161 b 517 1111 533 1136 528 1122 b 469 1094 507 1101 492 1094 b 422 1111 447 1094 432 1101 b 406 1149 411 1122 406 1136 b 422 1186 406 1161 411 1175 b 469 1203 432 1196 447 1203 z "},"Æ":{"ha":1278,"x_min":0,"x_max":0,"o":"m 725 0 l 1269 0 l 1201 181 l 879 181 l 797 386 l 1118 386 l 1049 567 l 729 567 l 658 746 l 981 746 l 914 926 l 388 926 l 8 0 l 231 0 l 300 179 l 654 179 z m 363 343 l 482 647 l 596 343 z "},"Ç":{"ha":840,"x_min":0,"x_max":0,"o":"m 771 275 b 558 179 689 194 614 179 b 358 257 444 179 378 238 b 278 461 317 297 278 365 b 365 675 278 550 314 625 b 554 747 414 722 476 747 b 771 649 653 747 724 699 l 771 896 b 549 947 681 935 610 947 b 203 814 404 947 285 893 b 58 465 119 733 58 611 b 203 114 58 317 119 194 b 567 -21 281 38 396 -21 b 771 29 622 -21 689 -12 z m 535 -64 l 407 -272 l 518 -328 l 674 -125 z "},"È":{"ha":697,"x_min":0,"x_max":0,"o":"m 625 926 l 101 926 l 101 0 l 625 0 l 625 181 l 315 181 l 315 386 l 610 386 l 610 567 l 315 567 l 315 746 l 625 746 z m 396 1006 l 486 1079 l 301 1285 l 168 1185 z "},"É":{"ha":697,"x_min":0,"x_max":0,"o":"m 625 926 l 101 926 l 101 0 l 625 0 l 625 181 l 315 181 l 315 386 l 610 386 l 610 567 l 315 567 l 315 746 l 625 746 z m 451 1285 l 265 1079 l 356 1006 l 583 1185 z "},"Ê":{"ha":697,"x_min":0,"x_max":0,"o":"m 625 926 l 101 926 l 101 0 l 625 0 l 625 181 l 315 181 l 315 386 l 610 386 l 610 567 l 315 567 l 315 746 l 625 746 z m 181 1008 l 353 1138 l 524 1008 l 615 1107 l 353 1301 l 92 1107 z "},"Ë":{"ha":697,"x_min":0,"x_max":0,"o":"m 625 926 l 101 926 l 101 0 l 625 0 l 625 181 l 315 181 l 315 386 l 610 386 l 610 567 l 315 567 l 315 746 l 625 746 z m 93 1126 b 203 1017 93 1067 143 1017 b 313 1126 263 1017 313 1067 b 203 1236 313 1186 263 1236 b 93 1126 143 1236 93 1186 z m 396 1126 b 506 1017 396 1067 446 1017 b 615 1126 565 1017 615 1067 b 506 1236 615 1186 565 1236 b 396 1126 446 1236 396 1186 z "},"Ì":{"ha":425,"x_min":0,"x_max":0,"o":"m 106 926 l 106 0 l 319 0 l 319 926 z m 235 1006 l 325 1079 l 140 1285 l 7 1185 z "},"Í":{"ha":425,"x_min":0,"x_max":0,"o":"m 106 926 l 106 0 l 319 0 l 319 926 z m 290 1285 l 104 1079 l 194 1006 l 422 1185 z "},"Î":{"ha":425,"x_min":0,"x_max":0,"o":"m 106 926 l 106 0 l 319 0 l 319 926 z m 40 1008 l 213 1138 l 383 1008 l 475 1107 l 213 1301 l -49 1107 z "},"Ï":{"ha":425,"x_min":0,"x_max":0,"o":"m 106 926 l 106 0 l 319 0 l 319 926 z m -49 1126 b 61 1017 -49 1067 1 1017 b 171 1126 121 1017 171 1067 b 61 1236 171 1186 121 1236 b -49 1126 1 1236 -49 1186 z m 254 1126 b 364 1017 254 1067 304 1017 b 474 1126 424 1017 474 1067 b 364 1236 474 1186 424 1236 b 254 1126 304 1236 254 1186 z "},"Ð":{"ha":989,"x_min":0,"x_max":0,"o":"m 139 574 l 14 574 l 14 421 l 139 421 l 139 0 l 439 0 b 804 139 517 0 676 10 b 931 467 881 215 931 321 b 797 799 931 611 879 719 b 432 926 683 908 554 926 l 139 926 z m 353 746 l 410 746 b 635 667 475 746 565 736 b 711 467 671 631 711 567 b 621 243 711 364 671 285 b 410 181 551 185 454 181 l 353 181 l 353 421 l 519 421 l 519 574 l 353 574 z "},"Ñ":{"ha":1106,"x_min":0,"x_max":0,"o":"m 315 0 l 315 600 l 818 0 l 1004 0 l 1004 926 l 790 926 l 790 329 l 288 926 l 101 926 l 101 0 z m 721 1204 b 654 1151 707 1171 685 1151 b 597 1168 632 1151 613 1163 l 542 1190 b 458 1210 518 1200 493 1210 b 357 1168 421 1210 386 1199 b 306 1086 338 1147 315 1107 l 404 1017 b 468 1071 422 1063 449 1071 b 519 1056 482 1071 497 1064 l 576 1033 b 663 1011 607 1021 633 1011 b 761 1054 710 1011 739 1032 b 819 1135 783 1076 804 1104 z "},"Ò":{"ha":1125,"x_min":0,"x_max":0,"o":"m 564 947 b 201 811 379 947 264 874 b 58 460 118 728 58 593 b 203 115 58 324 114 199 b 564 -21 272 49 390 -21 b 922 115 719 -21 836 32 b 1067 463 1022 213 1067 339 b 922 813 1067 606 1010 728 b 564 947 829 903 708 947 z m 563 750 b 767 671 647 750 721 715 b 847 463 808 629 847 558 b 767 256 847 356 803 290 b 561 176 722 211 656 176 b 363 253 489 176 422 196 b 278 461 306 308 278 376 b 360 671 278 564 319 632 b 563 750 410 721 482 750 z m 583 1006 l 674 1079 l 489 1285 l 356 1185 z "},"Ó":{"ha":1125,"x_min":0,"x_max":0,"o":"m 564 947 b 201 811 379 947 264 874 b 58 460 118 728 58 593 b 203 115 58 324 114 199 b 564 -21 272 49 390 -21 b 922 115 719 -21 836 32 b 1067 463 1022 213 1067 339 b 922 813 1067 606 1010 728 b 564 947 829 903 708 947 z m 563 750 b 767 671 647 750 721 715 b 847 463 808 629 847 558 b 767 256 847 356 803 290 b 561 176 722 211 656 176 b 363 253 489 176 422 196 b 278 461 306 308 278 376 b 360 671 278 564 319 632 b 563 750 410 721 482 750 z m 639 1285 l 453 1079 l 543 1006 l 771 1185 z "},"Ô":{"ha":1125,"x_min":0,"x_max":0,"o":"m 564 947 b 201 811 379 947 264 874 b 58 460 118 728 58 593 b 203 115 58 324 114 199 b 564 -21 272 49 390 -21 b 922 115 719 -21 836 32 b 1067 463 1022 213 1067 339 b 922 813 1067 606 1010 728 b 564 947 829 903 708 947 z m 563 750 b 767 671 647 750 721 715 b 847 463 808 629 847 558 b 767 256 847 356 803 290 b 561 176 722 211 656 176 b 363 253 489 176 422 196 b 278 461 306 308 278 376 b 360 671 278 564 319 632 b 563 750 410 721 482 750 z m 390 1008 l 563 1138 l 733 1008 l 825 1107 l 563 1301 l 301 1107 z "},"Õ":{"ha":1125,"x_min":0,"x_max":0,"o":"m 564 947 b 201 811 379 947 264 874 b 58 460 118 728 58 593 b 203 115 58 324 114 199 b 564 -21 272 49 390 -21 b 922 115 719 -21 836 32 b 1067 463 1022 213 1067 339 b 922 813 1067 606 1010 728 b 564 947 829 903 708 947 z m 563 750 b 767 671 647 750 721 715 b 847 463 808 629 847 558 b 767 256 847 356 803 290 b 561 176 722 211 656 176 b 363 253 489 176 422 196 b 278 461 306 308 278 376 b 360 671 278 564 319 632 b 563 750 410 721 482 750 z m 721 1204 b 654 1151 707 1171 685 1151 b 597 1168 632 1151 613 1163 l 542 1190 b 458 1210 518 1200 493 1210 b 357 1168 421 1210 386 1199 b 306 1086 338 1147 315 1107 l 404 1017 b 468 1071 422 1063 449 1071 b 519 1056 482 1071 497 1064 l 576 1033 b 663 1011 607 1021 633 1011 b 761 1054 710 1011 739 1032 b 819 1135 783 1076 804 1104 z "},"Ö":{"ha":1125,"x_min":0,"x_max":0,"o":"m 564 947 b 201 811 379 947 264 874 b 58 460 118 728 58 593 b 203 115 58 324 114 199 b 564 -21 272 49 390 -21 b 922 115 719 -21 836 32 b 1067 463 1022 213 1067 339 b 922 813 1067 606 1010 728 b 564 947 829 903 708 947 z m 563 750 b 767 671 647 750 721 715 b 847 463 808 629 847 558 b 767 256 847 356 803 290 b 561 176 722 211 656 176 b 363 253 489 176 422 196 b 278 461 306 308 278 376 b 360 671 278 564 319 632 b 563 750 410 721 482 750 z m 301 1126 b 411 1017 301 1067 351 1017 b 521 1126 471 1017 521 1067 b 411 1236 521 1186 471 1236 b 301 1126 351 1236 301 1186 z m 604 1126 b 714 1017 604 1067 654 1017 b 824 1126 774 1017 824 1067 b 714 1236 824 1186 774 1236 b 604 1126 654 1236 604 1186 z "},"×":{"ha":694,"x_min":0,"x_max":0,"o":"m 65 303 l 181 188 l 346 351 l 510 186 l 631 307 l 467 472 l 631 636 l 514 753 l 350 588 l 186 753 l 65 632 l 229 467 z "},"Ø":{"ha":1142,"x_min":0,"x_max":0,"o":"m 42 49 l 157 -62 l 281 61 b 572 -21 372 3 464 -21 b 931 115 676 -21 813 1 b 1075 467 1014 196 1075 315 b 979 757 1075 589 1036 681 l 1100 878 l 985 989 l 863 867 b 572 947 768 928 678 947 b 210 811 461 947 324 925 b 67 454 126 728 67 596 b 164 169 67 332 108 240 z m 318 324 b 286 458 294 368 286 408 b 368 671 286 565 328 631 b 571 750 418 721 488 750 b 711 717 632 750 679 732 z m 824 603 b 856 471 849 557 856 518 b 775 256 856 397 839 318 b 569 176 742 222 676 176 b 429 210 513 176 468 190 z "},"Ù":{"ha":986,"x_min":0,"x_max":0,"o":"m 885 926 l 671 926 l 671 383 b 622 228 671 343 668 275 b 493 179 585 188 533 179 b 364 228 453 179 401 188 b 315 383 318 275 315 343 l 315 926 l 101 926 l 101 378 b 204 85 101 289 113 179 b 493 -21 293 -7 396 -21 b 782 85 590 -21 693 -7 b 885 378 874 179 885 289 z m 514 1006 l 604 1079 l 419 1285 l 286 1185 z "},"Ú":{"ha":986,"x_min":0,"x_max":0,"o":"m 885 926 l 671 926 l 671 383 b 622 228 671 343 668 275 b 493 179 585 188 533 179 b 364 228 453 179 401 188 b 315 383 318 275 315 343 l 315 926 l 101 926 l 101 378 b 204 85 101 289 113 179 b 493 -21 293 -7 396 -21 b 782 85 590 -21 693 -7 b 885 378 874 179 885 289 z m 569 1285 l 383 1079 l 474 1006 l 701 1185 z "},"Û":{"ha":986,"x_min":0,"x_max":0,"o":"m 885 926 l 671 926 l 671 383 b 622 228 671 343 668 275 b 493 179 585 188 533 179 b 364 228 453 179 401 188 b 315 383 318 275 315 343 l 315 926 l 101 926 l 101 378 b 204 85 101 289 113 179 b 493 -21 293 -7 396 -21 b 782 85 590 -21 693 -7 b 885 378 874 179 885 289 z m 321 1008 l 493 1138 l 664 1008 l 756 1107 l 493 1301 l 232 1107 z "},"Ü":{"ha":986,"x_min":0,"x_max":0,"o":"m 885 926 l 671 926 l 671 383 b 622 228 671 343 668 275 b 493 179 585 188 533 179 b 364 228 453 179 401 188 b 315 383 318 275 315 343 l 315 926 l 101 926 l 101 378 b 204 85 101 289 113 179 b 493 -21 293 -7 396 -21 b 782 85 590 -21 693 -7 b 885 378 874 179 885 289 z m 232 1126 b 342 1017 232 1067 282 1017 b 451 1126 401 1017 451 1067 b 342 1236 451 1186 401 1236 b 232 1126 282 1236 232 1186 z m 535 1126 b 644 1017 535 1067 585 1017 b 754 1126 704 1017 754 1067 b 644 1236 754 1186 704 1236 b 535 1126 585 1236 535 1186 z "},"Ý":{"ha":878,"x_min":0,"x_max":0,"o":"m 332 0 l 546 0 l 546 432 l 878 926 l 625 926 l 439 639 l 253 926 l 0 926 l 332 432 z m 529 1285 l 343 1079 l 433 1006 l 661 1185 z "},"Þ":{"ha":794,"x_min":0,"x_max":0,"o":"m 101 926 l 101 0 l 315 0 l 315 197 l 443 197 b 682 279 506 197 607 204 b 761 501 715 313 761 381 b 671 722 761 560 750 653 b 425 799 597 788 501 799 l 315 799 l 315 926 z m 315 624 l 385 624 b 507 589 422 624 475 619 b 542 499 528 569 542 538 b 507 407 542 458 526 426 b 389 372 475 376 426 372 l 315 372 z "},"ß":{"ha":813,"x_min":0,"x_max":0,"o":"m 283 0 l 283 708 b 315 822 283 744 285 789 b 394 856 336 844 367 856 b 474 825 425 856 456 843 b 503 749 490 808 503 781 b 468 665 503 715 489 683 b 371 636 443 643 401 636 l 371 467 b 513 415 419 467 478 450 b 554 307 538 390 554 351 b 507 194 554 261 533 218 b 371 153 472 164 413 153 l 371 -19 l 379 -19 b 674 71 465 -19 585 -15 b 765 300 736 132 765 222 b 713 474 765 365 746 429 b 578 567 683 513 635 549 b 654 631 599 576 629 594 b 692 761 682 672 692 717 b 618 950 692 853 656 914 b 389 1028 581 986 510 1028 b 160 944 264 1028 194 981 b 83 708 92 874 83 782 l 83 0 z "},"à":{"ha":831,"x_min":0,"x_max":0,"o":"m 553 550 b 358 640 496 628 411 640 b 143 556 272 640 197 610 b 47 306 86 499 47 410 b 138 74 47 224 72 143 b 369 -21 206 1 281 -21 b 553 75 421 -21 499 -8 l 553 0 l 753 0 l 753 619 l 553 619 z m 408 468 b 519 425 444 468 489 454 b 565 311 549 397 565 356 b 517 194 565 258 543 219 b 413 151 490 168 453 151 b 294 200 365 151 322 171 b 253 311 276 219 253 256 b 299 424 253 367 278 403 b 408 468 325 450 365 468 z m 438 715 l 528 782 l 358 993 l 226 903 z "},"á":{"ha":831,"x_min":0,"x_max":0,"o":"m 553 550 b 358 640 496 628 411 640 b 143 556 272 640 197 610 b 47 306 86 499 47 410 b 138 74 47 224 72 143 b 369 -21 206 1 281 -21 b 553 75 421 -21 499 -8 l 553 0 l 753 0 l 753 619 l 553 619 z m 408 468 b 519 425 444 468 489 454 b 565 311 549 397 565 356 b 517 194 565 258 543 219 b 413 151 490 168 453 151 b 294 200 365 151 322 171 b 253 311 276 219 253 256 b 299 424 253 367 278 403 b 408 468 325 450 365 468 z m 482 993 l 311 782 l 401 715 l 613 903 z "},"â":{"ha":831,"x_min":0,"x_max":0,"o":"m 553 550 b 358 640 496 628 411 640 b 143 556 272 640 197 610 b 47 306 86 499 47 410 b 138 74 47 224 72 143 b 369 -21 206 1 281 -21 b 553 75 421 -21 499 -8 l 553 0 l 753 0 l 753 619 l 553 619 z m 408 468 b 519 425 444 468 489 454 b 565 311 549 397 565 356 b 517 194 565 258 543 219 b 413 151 490 168 453 151 b 294 200 365 151 322 171 b 253 311 276 219 253 256 b 299 424 253 367 278 403 b 408 468 325 450 365 468 z m 415 847 l 579 715 l 671 811 l 415 1008 l 161 811 l 250 715 z "},"ã":{"ha":831,"x_min":0,"x_max":0,"o":"m 553 550 b 358 640 496 628 411 640 b 143 556 272 640 197 610 b 47 306 86 499 47 410 b 138 74 47 224 72 143 b 369 -21 206 1 281 -21 b 553 75 421 -21 499 -8 l 553 0 l 753 0 l 753 619 l 553 619 z m 408 468 b 519 425 444 468 489 454 b 565 311 549 397 565 356 b 517 194 565 258 543 219 b 413 151 490 168 453 151 b 294 200 365 151 322 171 b 253 311 276 219 253 256 b 299 424 253 367 278 403 b 408 468 325 450 365 468 z m 561 913 b 506 861 557 894 543 861 b 432 881 501 861 483 861 l 385 899 b 299 917 360 908 329 917 b 200 875 260 917 226 904 b 153 788 178 851 161 815 l 243 726 b 303 778 256 760 275 778 b 371 760 319 778 339 772 l 419 742 b 501 722 467 725 490 722 b 599 764 538 722 574 739 b 653 851 618 785 642 824 z "},"ä":{"ha":831,"x_min":0,"x_max":0,"o":"m 553 550 b 358 640 496 628 411 640 b 143 556 272 640 197 610 b 47 306 86 499 47 410 b 138 74 47 224 72 143 b 369 -21 206 1 281 -21 b 553 75 421 -21 499 -8 l 553 0 l 753 0 l 753 619 l 553 619 z m 408 468 b 519 425 444 468 489 454 b 565 311 549 397 565 356 b 517 194 565 258 543 219 b 413 151 490 168 453 151 b 294 200 365 151 322 171 b 253 311 276 219 253 256 b 299 424 253 367 278 403 b 408 468 325 450 365 468 z m 457 832 b 567 722 457 772 507 722 b 676 832 626 722 676 772 b 567 942 676 892 626 942 b 457 832 507 942 457 892 z m 154 832 b 264 722 154 772 204 722 b 374 832 324 722 374 772 b 264 942 374 892 324 942 b 154 832 204 942 154 892 z "},"å":{"ha":831,"x_min":0,"x_max":0,"o":"m 553 550 b 358 640 496 628 411 640 b 143 556 272 640 197 610 b 47 306 86 499 47 410 b 138 74 47 224 72 143 b 369 -21 206 1 281 -21 b 553 75 421 -21 499 -8 l 553 0 l 753 0 l 753 619 l 553 619 z m 408 468 b 519 425 444 468 489 454 b 565 311 549 397 565 356 b 517 194 565 258 543 219 b 413 151 490 168 453 151 b 294 200 365 151 322 171 b 253 311 276 219 253 256 b 299 424 253 367 278 403 b 408 468 325 450 365 468 z m 574 853 b 536 943 574 894 556 924 b 415 986 513 965 472 986 b 294 943 358 986 318 965 b 257 853 275 924 257 894 b 294 763 257 811 275 782 b 415 719 318 740 358 719 b 536 763 472 719 513 740 b 574 853 556 782 574 811 z m 415 903 b 458 890 429 903 447 899 b 476 853 468 882 476 868 b 458 815 476 838 468 824 b 415 803 447 807 429 803 b 372 815 401 803 383 807 b 354 853 363 824 354 838 b 372 890 354 868 363 882 b 415 903 383 899 401 903 z "},"æ":{"ha":1167,"x_min":0,"x_max":0,"o":"m 925 200 b 881 146 914 171 894 154 b 810 129 856 131 828 129 b 708 168 772 129 736 138 b 667 275 685 193 668 233 l 1119 275 l 1119 294 b 1036 546 1119 351 1113 463 b 794 640 986 600 906 640 b 557 533 731 640 626 624 b 328 640 521 593 461 640 b 146 615 272 640 210 633 l 146 463 b 306 493 200 481 261 493 b 426 454 360 493 403 478 b 463 363 447 433 463 397 l 463 350 b 317 388 428 371 386 388 b 99 315 211 388 140 357 b 47 186 60 276 47 233 b 101 47 47 126 68 81 b 310 -21 161 -12 242 -21 b 458 1 364 -21 408 -18 b 563 81 500 18 533 42 b 651 7 585 54 619 22 b 803 -21 701 -18 775 -21 b 992 26 868 -21 932 -12 b 1113 188 1015 42 1081 90 z m 343 265 b 439 233 375 265 415 257 b 457 190 451 219 457 206 b 439 147 457 169 447 156 b 342 115 415 124 371 115 b 251 147 308 115 272 126 b 233 190 239 161 233 175 b 251 233 233 208 240 222 b 343 265 271 254 304 265 z m 672 394 b 717 472 679 421 694 453 b 803 501 742 496 772 501 b 892 469 826 501 863 496 b 932 394 911 451 926 424 z "},"ç":{"ha":599,"x_min":0,"x_max":0,"o":"m 543 606 b 386 640 490 631 440 640 b 150 553 301 640 219 618 b 47 308 92 497 47 414 b 144 72 47 196 97 118 b 385 -21 201 17 281 -21 b 543 17 440 -21 490 -12 l 543 197 b 415 149 497 158 450 149 b 294 199 371 149 325 165 b 253 310 269 225 253 264 b 299 426 253 360 272 400 b 413 471 313 440 350 471 b 543 424 444 471 494 464 z m 354 -64 l 218 -272 l 321 -328 l 485 -125 z "},"è":{"ha":760,"x_min":0,"x_max":0,"o":"m 257 394 b 292 461 263 422 276 444 b 393 501 311 481 342 501 b 488 467 433 501 465 488 b 528 394 517 439 526 400 z m 713 296 b 625 547 713 372 699 469 b 379 640 549 628 449 640 b 142 551 310 640 217 626 b 47 307 79 488 47 396 b 140 68 47 204 86 122 b 388 -21 213 -4 294 -21 b 583 25 457 -21 524 -11 b 703 181 619 47 675 93 l 514 200 b 471 149 497 165 474 150 b 390 131 450 136 419 131 b 288 169 360 131 318 136 b 250 275 263 197 250 242 l 713 275 z m 424 715 l 514 782 l 344 993 l 213 903 z "},"é":{"ha":760,"x_min":0,"x_max":0,"o":"m 257 394 b 292 461 263 422 276 444 b 393 501 311 481 342 501 b 488 467 433 501 465 488 b 528 394 517 439 526 400 z m 713 296 b 625 547 713 372 699 469 b 379 640 549 628 449 640 b 142 551 310 640 217 626 b 47 307 79 488 47 396 b 140 68 47 204 86 122 b 388 -21 213 -4 294 -21 b 583 25 457 -21 524 -11 b 703 181 619 47 675 93 l 514 200 b 471 149 497 165 474 150 b 390 131 450 136 419 131 b 288 169 360 131 318 136 b 250 275 263 197 250 242 l 713 275 z m 454 993 l 283 782 l 374 715 l 585 903 z "},"ê":{"ha":760,"x_min":0,"x_max":0,"o":"m 257 394 b 292 461 263 422 276 444 b 393 501 311 481 342 501 b 488 467 433 501 465 488 b 528 394 517 439 526 400 z m 713 296 b 625 547 713 372 699 469 b 379 640 549 628 449 640 b 142 551 310 640 217 626 b 47 307 79 488 47 396 b 140 68 47 204 86 122 b 388 -21 213 -4 294 -21 b 583 25 457 -21 524 -11 b 703 181 619 47 675 93 l 514 200 b 471 149 497 165 474 150 b 390 131 450 136 419 131 b 288 169 360 131 318 136 b 250 275 263 197 250 242 l 713 275 z m 379 847 l 543 715 l 635 811 l 379 1008 l 125 811 l 214 715 z "},"ë":{"ha":760,"x_min":0,"x_max":0,"o":"m 257 394 b 292 461 263 422 276 444 b 393 501 311 481 342 501 b 488 467 433 501 465 488 b 528 394 517 439 526 400 z m 713 296 b 625 547 713 372 699 469 b 379 640 549 628 449 640 b 142 551 310 640 217 626 b 47 307 79 488 47 396 b 140 68 47 204 86 122 b 388 -21 213 -4 294 -21 b 583 25 457 -21 524 -11 b 703 181 619 47 675 93 l 514 200 b 471 149 497 165 474 150 b 390 131 450 136 419 131 b 288 169 360 131 318 136 b 250 275 263 197 250 242 l 713 275 z m 421 832 b 531 722 421 772 471 722 b 640 832 590 722 640 772 b 531 942 640 892 590 942 b 421 832 471 942 421 892 z m 118 832 b 228 722 118 772 168 722 b 338 832 288 722 338 772 b 228 942 338 892 288 942 b 118 832 168 942 118 892 z "},"ì":{"ha":383,"x_min":0,"x_max":0,"o":"m 92 619 l 92 0 l 292 0 l 292 619 z m 193 715 l 283 782 l 142 993 l 8 903 z "},"í":{"ha":383,"x_min":0,"x_max":0,"o":"m 92 619 l 92 0 l 292 0 l 292 619 z m 243 993 l 100 782 l 190 715 l 374 903 z "},"î":{"ha":383,"x_min":0,"x_max":0,"o":"m 92 619 l 92 0 l 292 0 l 292 619 z m 192 836 l 321 715 l 413 811 l 192 1008 l -29 811 l 61 715 z "},"ï":{"ha":383,"x_min":0,"x_max":0,"o":"m 92 619 l 92 0 l 292 0 l 292 619 z m 224 832 b 322 722 224 760 278 722 b 421 832 376 722 421 772 b 322 942 421 892 376 942 b 224 832 278 942 224 904 z m -37 832 b 61 722 -37 772 7 722 b 160 832 106 722 160 760 b 61 942 160 904 106 942 b -37 832 7 942 -37 892 z "},"ð":{"ha":806,"x_min":0,"x_max":0,"o":"m 99 828 b 289 801 165 829 228 821 l 90 718 l 135 622 l 408 740 b 496 667 440 722 474 694 b 547 550 521 636 539 596 b 364 615 496 596 444 615 b 129 525 254 615 178 576 b 47 310 85 479 47 404 b 147 71 47 238 67 147 b 397 -21 224 -1 308 -21 b 639 68 468 -21 561 -8 b 750 393 733 161 750 296 b 706 633 750 475 739 553 b 575 811 674 711 629 767 l 726 871 l 678 971 l 468 888 b 149 961 410 918 319 957 z m 397 454 b 499 414 438 454 475 438 b 542 301 524 389 542 349 b 499 189 542 254 524 214 b 397 149 475 165 438 149 b 296 189 357 149 319 165 b 253 301 271 214 253 254 b 296 414 253 349 271 389 b 397 454 319 438 357 454 z "},"ñ":{"ha":788,"x_min":0,"x_max":0,"o":"m 78 0 l 278 0 l 278 318 b 317 436 278 358 283 403 b 400 469 332 453 358 469 b 476 442 436 469 461 457 b 510 318 508 410 510 358 l 510 0 l 710 0 l 710 392 b 647 574 710 442 706 515 b 469 636 594 626 524 636 b 278 546 411 636 339 624 l 278 619 l 78 619 z m 561 913 b 506 861 557 894 543 861 b 432 881 501 861 483 861 l 385 899 b 299 917 360 908 329 917 b 200 875 260 917 226 904 b 153 788 178 851 161 815 l 243 726 b 303 778 256 760 275 778 b 371 760 319 778 339 772 l 419 742 b 501 722 467 725 490 722 b 599 764 538 722 574 739 b 653 851 618 785 642 824 z "},"ò":{"ha":822,"x_min":0,"x_max":0,"o":"m 775 310 b 682 540 775 389 744 478 b 411 640 626 596 532 640 b 140 540 290 640 196 596 b 47 310 78 478 47 389 b 140 79 47 231 78 142 b 411 -21 196 24 290 -21 b 682 79 532 -21 626 24 b 775 310 744 142 775 231 z m 411 471 b 524 426 457 471 494 456 b 569 310 553 397 569 360 b 524 193 569 260 553 222 b 413 149 494 164 457 149 b 299 193 360 149 324 168 b 253 310 275 217 253 253 b 299 426 253 360 269 397 b 411 471 328 456 365 471 z m 389 715 l 479 782 l 310 993 l 178 903 z "},"ó":{"ha":822,"x_min":0,"x_max":0,"o":"m 775 310 b 682 540 775 389 744 478 b 411 640 626 596 532 640 b 140 540 290 640 196 596 b 47 310 78 478 47 389 b 140 79 47 231 78 142 b 411 -21 196 24 290 -21 b 682 79 532 -21 626 24 b 775 310 744 142 775 231 z m 411 471 b 524 426 457 471 494 456 b 569 310 553 397 569 360 b 524 193 569 260 553 222 b 413 149 494 164 457 149 b 299 193 360 149 324 168 b 253 310 275 217 253 253 b 299 426 253 360 269 397 b 411 471 328 456 365 471 z m 482 993 l 311 782 l 401 715 l 613 903 z "},"ô":{"ha":822,"x_min":0,"x_max":0,"o":"m 775 310 b 682 540 775 389 744 478 b 411 640 626 596 532 640 b 140 540 290 640 196 596 b 47 310 78 478 47 389 b 140 79 47 231 78 142 b 411 -21 196 24 290 -21 b 682 79 532 -21 626 24 b 775 310 744 142 775 231 z m 411 471 b 524 426 457 471 494 456 b 569 310 553 397 569 360 b 524 193 569 260 553 222 b 413 149 494 164 457 149 b 299 193 360 149 324 168 b 253 310 275 217 253 253 b 299 426 253 360 269 397 b 411 471 328 456 365 471 z m 411 847 l 575 715 l 667 811 l 411 1008 l 157 811 l 246 715 z "},"õ":{"ha":822,"x_min":0,"x_max":0,"o":"m 775 310 b 682 540 775 389 744 478 b 411 640 626 596 532 640 b 140 540 290 640 196 596 b 47 310 78 478 47 389 b 140 79 47 231 78 142 b 411 -21 196 24 290 -21 b 682 79 532 -21 626 24 b 775 310 744 142 775 231 z m 411 471 b 524 426 457 471 494 456 b 569 310 553 397 569 360 b 524 193 569 260 553 222 b 413 149 494 164 457 149 b 299 193 360 149 324 168 b 253 310 275 217 253 253 b 299 426 253 360 269 397 b 411 471 328 456 365 471 z m 572 913 b 517 861 568 894 554 861 b 443 881 513 861 494 861 l 396 899 b 310 917 371 908 340 917 b 211 875 271 917 238 904 b 164 788 189 851 172 815 l 254 726 b 314 778 267 760 286 778 b 382 760 331 778 350 772 l 431 742 b 513 722 478 725 501 722 b 610 764 549 722 585 739 b 664 851 629 785 653 824 z "},"ö":{"ha":822,"x_min":0,"x_max":0,"o":"m 775 310 b 682 540 775 389 744 478 b 411 640 626 596 532 640 b 140 540 290 640 196 596 b 47 310 78 478 47 389 b 140 79 47 231 78 142 b 411 -21 196 24 290 -21 b 682 79 532 -21 626 24 b 775 310 744 142 775 231 z m 411 471 b 524 426 457 471 494 456 b 569 310 553 397 569 360 b 524 193 569 260 553 222 b 413 149 494 164 457 149 b 299 193 360 149 324 168 b 253 310 275 217 253 253 b 299 426 253 360 269 397 b 411 471 328 456 365 471 z m 453 832 b 563 722 453 772 503 722 b 672 832 622 722 672 772 b 563 942 672 892 622 942 b 453 832 503 942 453 892 z m 150 832 b 260 722 150 772 200 722 b 369 832 319 722 369 772 b 260 942 369 892 319 942 b 150 832 200 942 150 892 z "},"÷":{"ha":694,"x_min":0,"x_max":0,"o":"m 46 392 l 649 392 l 649 553 l 46 553 z m 246 708 b 347 607 246 653 292 607 b 449 708 403 607 449 653 b 347 810 449 764 403 810 b 246 708 292 810 246 764 z m 246 233 b 347 132 246 178 292 132 b 449 233 403 132 449 178 b 347 335 449 289 403 335 b 246 233 292 335 246 289 z "},"ø":{"ha":856,"x_min":0,"x_max":0,"o":"m 808 611 l 735 682 l 642 589 b 435 640 585 619 519 640 b 164 540 321 640 228 603 b 71 307 122 499 71 424 b 150 96 71 218 100 151 l 47 -7 l 121 -76 l 228 31 b 432 -21 296 -8 360 -21 b 706 79 558 -21 650 24 b 799 313 760 133 799 217 b 721 524 799 410 763 475 z m 292 238 b 276 310 282 258 276 282 b 322 426 276 367 300 404 b 435 471 351 457 389 471 b 508 454 461 471 483 467 z m 578 381 b 593 310 590 357 593 339 b 547 193 593 268 582 228 b 436 149 517 164 478 149 b 363 165 418 149 392 151 z "},"ù":{"ha":792,"x_min":0,"x_max":0,"o":"m 78 619 l 78 246 b 146 60 78 178 89 115 b 396 -21 217 -10 319 -21 b 644 60 469 -21 574 -10 b 714 258 707 121 714 188 l 714 619 l 514 619 l 514 278 b 481 178 514 247 510 206 b 396 149 463 161 433 149 b 313 178 351 149 326 165 b 278 278 281 207 278 250 l 278 619 z m 374 715 l 464 782 l 294 993 l 163 903 z "},"ú":{"ha":792,"x_min":0,"x_max":0,"o":"m 78 619 l 78 246 b 146 60 78 178 89 115 b 396 -21 217 -10 319 -21 b 644 60 469 -21 574 -10 b 714 258 707 121 714 188 l 714 619 l 514 619 l 514 278 b 481 178 514 247 510 206 b 396 149 463 161 433 149 b 313 178 351 149 326 165 b 278 278 281 207 278 250 l 278 619 z m 481 993 l 310 782 l 400 715 l 611 903 z "},"û":{"ha":792,"x_min":0,"x_max":0,"o":"m 78 619 l 78 246 b 146 60 78 178 89 115 b 396 -21 217 -10 319 -21 b 644 60 469 -21 574 -10 b 714 258 707 121 714 188 l 714 619 l 514 619 l 514 278 b 481 178 514 247 510 206 b 396 149 463 161 433 149 b 313 178 351 149 326 165 b 278 278 281 207 278 250 l 278 619 z m 396 847 l 560 715 l 651 811 l 396 1008 l 142 811 l 231 715 z "},"ü":{"ha":792,"x_min":0,"x_max":0,"o":"m 78 619 l 78 246 b 146 60 78 178 89 115 b 396 -21 217 -10 319 -21 b 644 60 469 -21 574 -10 b 714 258 707 121 714 188 l 714 619 l 514 619 l 514 278 b 481 178 514 247 510 206 b 396 149 463 161 433 149 b 313 178 351 149 326 165 b 278 278 281 207 278 250 l 278 619 z m 438 832 b 547 722 438 772 488 722 b 657 832 607 722 657 772 b 547 942 657 892 607 942 b 438 832 488 942 438 892 z m 135 832 b 244 722 135 772 185 722 b 354 832 304 722 354 772 b 244 942 354 892 304 942 b 135 832 185 942 135 892 z "},"ý":{"ha":813,"x_min":0,"x_max":0,"o":"m 81 -318 l 306 -318 l 804 619 l 579 619 l 408 283 l 233 619 l 3 619 l 299 79 z m 492 993 l 321 782 l 411 715 l 622 903 z "},"þ":{"ha":831,"x_min":0,"x_max":0,"o":"m 278 71 b 475 -21 299 42 351 -21 b 685 63 557 -21 624 1 b 783 311 746 124 783 204 b 690 553 783 413 746 497 b 471 640 651 592 582 640 b 278 546 424 640 343 631 l 278 1013 l 78 1013 l 78 -318 l 278 -318 z m 422 468 b 531 425 463 468 501 453 b 578 313 558 399 578 358 b 529 194 578 272 561 225 b 422 151 500 167 460 151 b 308 199 379 151 338 169 b 264 308 279 229 264 269 b 311 422 264 346 279 390 b 422 468 331 442 367 468 z "},"ÿ":{"ha":813,"x_min":0,"x_max":0,"o":"m 81 -318 l 306 -318 l 804 619 l 579 619 l 408 283 l 233 619 l 3 619 l 299 79 z m 447 832 b 557 722 447 772 497 722 b 667 832 617 722 667 772 b 557 942 667 892 617 942 b 447 832 497 942 447 892 z m 144 832 b 254 722 144 772 194 722 b 364 832 314 722 364 772 b 254 942 364 892 314 942 b 144 832 194 942 144 892 z "},"Ā":{"ha":940,"x_min":0,"x_max":0,"o":"m 715 0 l 938 0 l 572 926 l 376 926 l 3 0 l 225 0 l 296 175 l 646 175 z m 358 339 l 474 650 l 588 339 z m 203 1046 l 742 1046 l 742 1174 l 203 1174 z "},"ā":{"ha":831,"x_min":0,"x_max":0,"o":"m 553 550 b 358 640 496 628 411 640 b 143 556 272 640 197 610 b 47 306 86 499 47 410 b 138 74 47 224 72 143 b 369 -21 206 1 281 -21 b 553 75 421 -21 499 -8 l 553 0 l 753 0 l 753 619 l 553 619 z m 408 468 b 519 425 444 468 489 454 b 565 311 549 397 565 356 b 517 194 565 258 543 219 b 413 151 490 168 453 151 b 294 200 365 151 322 171 b 253 311 276 219 253 256 b 299 424 253 367 278 403 b 408 468 325 450 365 468 z m 151 754 l 679 754 l 679 879 l 151 879 z "},"Ă":{"ha":940,"x_min":0,"x_max":0,"o":"m 715 0 l 938 0 l 572 926 l 376 926 l 3 0 l 225 0 l 296 175 l 646 175 z m 358 339 l 474 650 l 588 339 z m 575 1214 b 549 1156 572 1192 561 1169 b 469 1126 531 1136 499 1126 b 390 1156 440 1126 408 1136 b 364 1214 378 1169 367 1192 l 231 1214 b 294 1068 233 1189 246 1117 b 469 1007 344 1018 418 1007 b 644 1068 521 1007 594 1018 b 708 1214 693 1117 706 1189 z "},"ă":{"ha":831,"x_min":0,"x_max":0,"o":"m 553 550 b 358 640 496 628 411 640 b 143 556 272 640 197 610 b 47 306 86 499 47 410 b 138 74 47 224 72 143 b 369 -21 206 1 281 -21 b 553 75 421 -21 499 -8 l 553 0 l 753 0 l 753 619 l 553 619 z m 408 468 b 519 425 444 468 489 454 b 565 311 549 397 565 356 b 517 194 565 258 543 219 b 413 151 490 168 453 151 b 294 200 365 151 322 171 b 253 311 276 219 253 256 b 299 424 253 367 278 403 b 408 468 325 450 365 468 z m 519 922 b 490 864 515 896 503 876 b 415 838 467 842 436 838 b 340 864 394 838 364 842 b 311 922 328 876 315 896 l 181 922 b 242 781 185 865 208 815 b 415 718 293 728 361 718 b 589 781 469 718 538 728 b 650 922 622 815 646 865 z "},"Ą":{"ha":940,"x_min":0,"x_max":0,"o":"m 376 926 l 3 0 l 225 0 l 296 175 l 646 175 l 715 0 b 654 -69 693 -18 672 -40 b 626 -157 639 -94 626 -121 b 658 -235 626 -190 638 -215 b 754 -268 678 -253 710 -268 b 844 -244 779 -268 811 -264 l 869 -137 b 800 -158 865 -140 835 -158 b 761 -146 785 -158 771 -154 b 746 -112 750 -136 746 -125 b 769 -49 746 -87 760 -62 b 813 0 782 -31 797 -14 l 938 0 l 572 926 z m 358 339 l 474 650 l 588 339 z "},"ą":{"ha":831,"x_min":0,"x_max":0,"o":"m 553 550 b 358 640 496 628 411 640 b 143 556 272 640 197 610 b 47 306 86 499 47 410 b 138 74 47 224 72 143 b 360 -21 197 10 267 -21 b 553 81 408 -21 499 -11 l 553 0 l 606 0 b 546 -67 585 -19 560 -46 b 517 -151 525 -97 517 -126 b 549 -229 517 -179 528 -208 b 643 -262 578 -258 614 -262 b 735 -239 669 -262 701 -258 l 760 -132 b 690 -153 738 -144 711 -153 b 650 -139 675 -153 661 -149 b 633 -100 640 -131 633 -117 b 660 -39 633 -81 643 -58 b 697 0 668 -29 686 -11 l 753 0 l 753 619 l 553 619 z m 408 468 b 519 425 444 468 489 454 b 565 311 549 397 565 356 b 517 194 565 258 543 219 b 413 151 490 168 453 151 b 294 200 365 151 322 171 b 253 311 276 219 253 256 b 299 424 253 367 278 403 b 408 468 325 450 365 468 z "},"Ć":{"ha":840,"x_min":0,"x_max":0,"o":"m 771 275 b 558 179 689 194 614 179 b 358 257 444 179 378 238 b 278 461 317 297 278 365 b 365 675 278 550 314 625 b 554 747 414 722 476 747 b 771 649 653 747 724 699 l 771 896 b 549 947 681 935 610 947 b 203 814 404 947 285 893 b 58 465 119 733 58 611 b 203 114 58 317 119 194 b 567 -21 281 38 396 -21 b 771 29 622 -21 689 -12 z m 632 1285 l 446 1079 l 536 1006 l 764 1185 z "},"ć":{"ha":599,"x_min":0,"x_max":0,"o":"m 543 606 b 386 640 490 631 440 640 b 150 553 301 640 219 618 b 47 308 92 497 47 414 b 144 72 47 196 97 118 b 385 -21 201 17 281 -21 b 543 17 440 -21 490 -12 l 543 197 b 415 149 497 158 450 149 b 294 199 371 149 325 165 b 253 310 269 225 253 264 b 299 426 253 360 272 400 b 413 471 313 440 350 471 b 543 424 444 471 494 464 z m 461 993 l 290 782 l 381 715 l 592 903 z "},"Ĉ":{"ha":840,"x_min":0,"x_max":0,"o":"m 771 275 b 558 179 689 194 614 179 b 358 257 444 179 378 238 b 278 461 317 297 278 365 b 365 675 278 550 314 625 b 554 747 414 722 476 747 b 771 649 653 747 724 699 l 771 896 b 549 947 681 935 610 947 b 203 814 404 947 285 893 b 58 465 119 733 58 611 b 203 114 58 317 119 194 b 567 -21 281 38 396 -21 b 771 29 622 -21 689 -12 z m 347 1008 l 519 1138 l 690 1008 l 782 1107 l 519 1301 l 258 1107 z "},"ĉ":{"ha":599,"x_min":0,"x_max":0,"o":"m 543 606 b 386 640 490 631 440 640 b 150 553 301 640 219 618 b 47 308 92 497 47 414 b 144 72 47 196 97 118 b 385 -21 201 17 281 -21 b 543 17 440 -21 490 -12 l 543 197 b 415 149 497 158 450 149 b 294 199 371 149 325 165 b 253 310 269 225 253 264 b 299 426 253 360 272 400 b 413 471 313 440 350 471 b 543 424 444 471 494 464 z m 364 847 l 528 715 l 619 811 l 364 1008 l 110 811 l 199 715 z "},"Ċ":{"ha":840,"x_min":0,"x_max":0,"o":"m 771 275 b 558 179 689 194 614 179 b 358 257 444 179 378 238 b 278 461 317 297 278 365 b 365 675 278 550 314 625 b 554 747 414 722 476 747 b 771 649 653 747 724 699 l 771 896 b 549 947 681 935 610 947 b 203 814 404 947 285 893 b 58 465 119 733 58 611 b 203 114 58 317 119 194 b 567 -21 281 38 396 -21 b 771 29 622 -21 689 -12 z m 408 1132 b 526 1014 408 1065 460 1014 b 644 1132 593 1014 644 1065 b 526 1250 644 1199 593 1250 b 408 1132 460 1250 408 1199 z "},"ċ":{"ha":599,"x_min":0,"x_max":0,"o":"m 543 606 b 386 640 490 631 440 640 b 150 553 301 640 219 618 b 47 308 92 497 47 414 b 144 72 47 196 97 118 b 385 -21 201 17 281 -21 b 543 17 440 -21 490 -12 l 543 197 b 415 149 497 158 450 149 b 294 199 371 149 325 165 b 253 310 269 225 253 264 b 299 426 253 360 272 400 b 413 471 313 440 350 471 b 543 424 444 471 494 464 z m 260 838 b 375 722 260 772 310 722 b 490 838 440 722 490 772 b 375 953 490 903 440 953 b 260 838 310 953 260 903 z "},"Č":{"ha":840,"x_min":0,"x_max":0,"o":"m 771 275 b 558 179 689 194 614 179 b 358 257 444 179 378 238 b 278 461 317 297 278 365 b 365 675 278 550 314 625 b 554 747 414 722 476 747 b 771 649 653 747 724 699 l 771 896 b 549 947 681 935 610 947 b 203 814 404 947 285 893 b 58 465 119 733 58 611 b 203 114 58 317 119 194 b 567 -21 281 38 396 -21 b 771 29 622 -21 689 -12 z m 526 1172 l 354 1301 l 265 1204 l 526 1008 l 789 1204 l 697 1301 z "},"č":{"ha":599,"x_min":0,"x_max":0,"o":"m 543 606 b 386 640 490 631 440 640 b 150 553 301 640 219 618 b 47 308 92 497 47 414 b 144 72 47 196 97 118 b 385 -21 201 17 281 -21 b 543 17 440 -21 490 -12 l 543 197 b 415 149 497 158 450 149 b 294 199 371 149 325 165 b 253 310 269 225 253 264 b 299 426 253 360 272 400 b 413 471 313 440 350 471 b 543 424 444 471 494 464 z m 367 876 l 201 1008 l 113 914 l 367 715 l 622 914 l 531 1008 z "},"Ď":{"ha":951,"x_min":0,"x_max":0,"o":"m 101 926 l 101 0 l 401 0 b 767 139 479 0 639 10 b 893 467 843 215 893 321 b 760 799 893 611 842 719 b 394 926 646 908 517 926 z m 315 746 l 372 746 b 597 667 438 746 528 736 b 674 467 633 631 674 567 b 583 243 674 364 633 285 b 372 181 514 185 417 181 l 315 181 z m 421 1172 l 249 1301 l 160 1204 l 421 1008 l 683 1204 l 592 1301 z "},"ď":{"ha":1085,"x_min":0,"x_max":0,"o":"m 753 1013 l 553 1013 l 553 550 b 360 640 503 618 428 640 b 144 557 275 640 199 608 b 47 313 85 500 47 415 b 144 64 47 217 81 128 b 357 -21 199 8 265 -21 b 553 75 467 -21 522 31 l 553 0 l 753 0 z m 408 468 b 521 422 451 468 489 456 b 565 308 544 397 565 361 b 519 197 565 257 543 219 b 406 151 488 167 443 151 b 301 194 371 151 332 165 b 253 308 272 222 253 263 b 301 426 253 358 272 399 b 408 468 333 457 368 468 z m 819 683 l 942 656 l 1097 931 l 917 972 z "},"Đ":{"ha":989,"x_min":0,"x_max":0,"o":"m 139 574 l 14 574 l 14 421 l 139 421 l 139 0 l 439 0 b 804 139 517 0 676 10 b 931 467 881 215 931 321 b 797 799 931 611 879 719 b 432 926 683 908 554 926 l 139 926 z m 353 746 l 410 746 b 635 667 475 746 565 736 b 711 467 671 631 711 567 b 621 243 711 364 671 285 b 410 181 551 185 454 181 l 353 181 l 353 421 l 519 421 l 519 574 l 353 574 z "},"đ":{"ha":850,"x_min":0,"x_max":0,"o":"m 753 1013 l 553 1013 l 553 883 l 286 883 l 286 753 l 553 753 l 553 550 b 360 640 503 618 428 640 b 144 557 275 640 199 608 b 47 313 85 500 47 415 b 144 64 47 217 81 128 b 357 -21 199 8 265 -21 b 553 75 467 -21 522 31 l 553 0 l 753 0 l 753 753 l 864 753 l 864 883 l 753 883 z m 408 468 b 521 422 451 468 489 456 b 565 308 544 397 565 361 b 519 197 565 257 543 219 b 406 151 488 167 443 151 b 301 194 371 151 332 165 b 253 308 272 222 253 263 b 301 426 253 358 272 399 b 408 468 333 457 368 468 z "},"Ē":{"ha":697,"x_min":0,"x_max":0,"o":"m 625 926 l 101 926 l 101 0 l 625 0 l 625 181 l 315 181 l 315 386 l 610 386 l 610 567 l 315 567 l 315 746 l 625 746 z m 85 1046 l 624 1046 l 624 1174 l 85 1174 z "},"ē":{"ha":760,"x_min":0,"x_max":0,"o":"m 257 394 b 292 461 263 422 276 444 b 393 501 311 481 342 501 b 488 467 433 501 465 488 b 528 394 517 439 526 400 z m 713 296 b 625 547 713 372 699 469 b 379 640 549 628 449 640 b 142 551 310 640 217 626 b 47 307 79 488 47 396 b 140 68 47 204 86 122 b 388 -21 213 -4 294 -21 b 583 25 457 -21 524 -11 b 703 181 619 47 675 93 l 514 200 b 471 149 497 165 474 150 b 390 131 450 136 419 131 b 288 169 360 131 318 136 b 250 275 263 197 250 242 l 713 275 z m 115 754 l 643 754 l 643 879 l 115 879 z "},"Ė":{"ha":697,"x_min":0,"x_max":0,"o":"m 625 926 l 101 926 l 101 0 l 625 0 l 625 181 l 315 181 l 315 386 l 610 386 l 610 567 l 315 567 l 315 746 l 625 746 z m 236 1132 b 354 1014 236 1065 288 1014 b 472 1132 421 1014 472 1065 b 354 1250 472 1199 421 1250 b 236 1132 288 1250 236 1199 z "},"ė":{"ha":760,"x_min":0,"x_max":0,"o":"m 257 394 b 292 461 263 422 276 444 b 393 501 311 481 342 501 b 488 467 433 501 465 488 b 528 394 517 439 526 400 z m 713 296 b 625 547 713 372 699 469 b 379 640 549 628 449 640 b 142 551 310 640 217 626 b 47 307 79 488 47 396 b 140 68 47 204 86 122 b 388 -21 213 -4 294 -21 b 583 25 457 -21 524 -11 b 703 181 619 47 675 93 l 514 200 b 471 149 497 165 474 150 b 390 131 450 136 419 131 b 288 169 360 131 318 136 b 250 275 263 197 250 242 l 713 275 z m 254 838 b 369 722 254 772 304 722 b 485 838 435 722 485 772 b 369 953 485 903 435 953 b 254 838 304 953 254 903 z "},"Ę":{"ha":697,"x_min":0,"x_max":0,"o":"m 625 926 l 101 926 l 101 0 l 472 0 b 411 -69 450 -18 429 -40 b 383 -157 396 -94 383 -121 b 415 -235 383 -190 394 -215 b 511 -268 435 -253 467 -268 b 601 -244 536 -268 568 -264 l 626 -137 b 557 -158 622 -140 592 -158 b 518 -146 542 -158 528 -154 b 503 -112 507 -136 503 -125 b 526 -49 503 -87 517 -62 b 569 0 539 -31 554 -14 l 625 0 l 625 181 l 315 181 l 315 386 l 610 386 l 610 567 l 315 567 l 315 746 l 625 746 z "},"ę":{"ha":760,"x_min":0,"x_max":0,"o":"m 257 394 b 292 461 263 422 276 444 b 393 501 311 481 342 501 b 488 467 433 501 465 488 b 528 394 517 439 526 400 z m 713 296 b 625 547 713 372 699 469 b 382 640 557 618 468 640 b 142 551 310 640 217 626 b 47 303 79 489 47 396 b 140 68 47 206 86 124 b 403 -21 211 -3 293 -21 b 357 -75 385 -36 369 -54 b 333 -151 343 -97 333 -122 b 365 -229 333 -179 343 -208 b 460 -262 394 -258 431 -262 b 551 -239 486 -262 518 -258 l 576 -132 b 507 -153 554 -144 528 -153 b 467 -139 492 -153 478 -149 b 450 -100 457 -131 450 -117 b 475 -42 450 -81 460 -58 b 557 14 490 -25 514 -10 b 643 75 585 29 613 44 b 703 181 674 106 693 139 l 514 200 b 471 149 497 165 474 150 b 393 131 465 144 442 131 b 288 169 336 131 306 150 b 250 275 267 193 251 236 l 713 275 z "},"Ě":{"ha":697,"x_min":0,"x_max":0,"o":"m 625 926 l 101 926 l 101 0 l 625 0 l 625 181 l 315 181 l 315 386 l 610 386 l 610 567 l 315 567 l 315 746 l 625 746 z m 353 1172 l 181 1301 l 92 1204 l 353 1008 l 615 1204 l 524 1301 z "},"ě":{"ha":760,"x_min":0,"x_max":0,"o":"m 257 394 b 292 461 263 422 276 444 b 393 501 311 481 342 501 b 488 467 433 501 465 488 b 528 394 517 439 526 400 z m 713 296 b 625 547 713 372 699 469 b 379 640 549 628 449 640 b 142 551 310 640 217 626 b 47 307 79 488 47 396 b 140 68 47 204 86 122 b 388 -21 213 -4 294 -21 b 583 25 457 -21 524 -11 b 703 181 619 47 675 93 l 514 200 b 471 149 497 165 474 150 b 390 131 450 136 419 131 b 288 169 360 131 318 136 b 250 275 263 197 250 242 l 713 275 z m 379 876 l 214 1008 l 125 914 l 379 715 l 635 914 l 543 1008 z "},"Ĝ":{"ha":1065,"x_min":0,"x_max":0,"o":"m 547 333 l 771 333 b 704 224 753 265 711 229 b 543 174 683 206 635 174 b 356 246 472 174 410 190 b 278 458 317 285 278 353 b 357 678 278 544 306 624 b 549 753 401 725 464 753 b 690 708 601 753 649 739 b 772 608 726 682 754 644 l 965 713 b 815 878 932 771 878 836 b 556 947 729 935 632 947 b 192 813 446 947 306 931 b 58 461 114 733 58 613 b 194 108 58 276 140 164 b 533 -21 303 -3 422 -21 b 864 106 643 -21 761 -1 b 1007 496 967 213 1007 383 l 1007 506 l 547 506 z m 360 1008 l 532 1138 l 703 1008 l 794 1107 l 532 1301 l 271 1107 z "},"ĝ":{"ha":826,"x_min":0,"x_max":0,"o":"m 549 547 b 364 640 526 581 476 640 b 139 551 249 640 176 590 b 47 304 86 497 47 410 b 138 71 47 197 88 122 b 364 -17 194 14 268 -17 b 549 76 478 -17 525 38 l 549 6 b 508 -124 549 -21 547 -86 b 408 -157 494 -136 465 -157 b 322 -136 379 -157 346 -151 b 278 -75 306 -125 286 -107 l 60 -75 b 153 -239 74 -153 114 -206 b 411 -318 231 -306 329 -318 b 672 -226 479 -318 596 -308 b 749 38 744 -149 749 -50 l 749 619 l 549 619 z m 410 467 b 518 428 446 467 489 454 b 565 314 544 403 565 363 b 517 196 565 268 547 225 b 408 156 496 176 461 156 b 296 200 361 156 324 171 b 253 311 268 229 253 271 b 300 426 253 349 269 397 b 410 467 325 450 365 467 z m 413 847 l 576 715 l 668 811 l 413 1008 l 158 811 l 247 715 z "},"Ğ":{"ha":1065,"x_min":0,"x_max":0,"o":"m 547 333 l 771 333 b 704 224 753 265 711 229 b 543 174 683 206 635 174 b 356 246 472 174 410 190 b 278 458 317 285 278 353 b 357 678 278 544 306 624 b 549 753 401 725 464 753 b 690 708 601 753 649 739 b 772 608 726 682 754 644 l 965 713 b 815 878 932 771 878 836 b 556 947 729 935 632 947 b 192 813 446 947 306 931 b 58 461 114 733 58 613 b 194 108 58 276 140 164 b 533 -21 303 -3 422 -21 b 864 106 643 -21 761 -1 b 1007 496 967 213 1007 383 l 1007 506 l 547 506 z m 638 1214 b 611 1156 635 1192 624 1169 b 532 1126 593 1136 561 1126 b 453 1156 503 1126 471 1136 b 426 1214 440 1169 429 1192 l 293 1214 b 357 1068 296 1189 308 1117 b 532 1007 407 1018 481 1007 b 707 1068 583 1007 657 1018 b 771 1214 756 1117 768 1189 z "},"ğ":{"ha":826,"x_min":0,"x_max":0,"o":"m 549 547 b 364 640 526 581 476 640 b 139 551 249 640 176 590 b 47 304 86 497 47 410 b 138 71 47 197 88 122 b 364 -17 194 14 268 -17 b 549 76 478 -17 525 38 l 549 6 b 508 -124 549 -21 547 -86 b 408 -157 494 -136 465 -157 b 322 -136 379 -157 346 -151 b 278 -75 306 -125 286 -107 l 60 -75 b 153 -239 74 -153 114 -206 b 411 -318 231 -306 329 -318 b 672 -226 479 -318 596 -308 b 749 38 744 -149 749 -50 l 749 619 l 549 619 z m 410 467 b 518 428 446 467 489 454 b 565 314 544 403 565 363 b 517 196 565 268 547 225 b 408 156 496 176 461 156 b 296 200 361 156 324 171 b 253 311 268 229 253 271 b 300 426 253 349 269 397 b 410 467 325 450 365 467 z m 517 922 b 488 864 513 896 500 876 b 413 838 464 842 433 838 b 338 864 392 838 361 842 b 308 922 325 876 313 896 l 178 922 b 239 781 182 865 206 815 b 413 718 290 728 358 718 b 586 781 467 718 535 728 b 647 922 619 815 643 865 z "},"Ġ":{"ha":1065,"x_min":0,"x_max":0,"o":"m 547 333 l 771 333 b 704 224 753 265 711 229 b 543 174 683 206 635 174 b 356 246 472 174 410 190 b 278 458 317 285 278 353 b 357 678 278 544 306 624 b 549 753 401 725 464 753 b 690 708 601 753 649 739 b 772 608 726 682 754 644 l 965 713 b 815 878 932 771 878 836 b 556 947 729 935 632 947 b 192 813 446 947 306 931 b 58 461 114 733 58 613 b 194 108 58 276 140 164 b 533 -21 303 -3 422 -21 b 864 106 643 -21 761 -1 b 1007 496 967 213 1007 383 l 1007 506 l 547 506 z m 414 1132 b 532 1014 414 1065 465 1014 b 650 1132 599 1014 650 1065 b 532 1250 650 1199 599 1250 b 414 1132 465 1250 414 1199 z "},"ġ":{"ha":826,"x_min":0,"x_max":0,"o":"m 549 547 b 364 640 526 581 476 640 b 139 551 249 640 176 590 b 47 304 86 497 47 410 b 138 71 47 197 88 122 b 364 -17 194 14 268 -17 b 549 76 478 -17 525 38 l 549 6 b 508 -124 549 -21 547 -86 b 408 -157 494 -136 465 -157 b 322 -136 379 -157 346 -151 b 278 -75 306 -125 286 -107 l 60 -75 b 153 -239 74 -153 114 -206 b 411 -318 231 -306 329 -318 b 672 -226 479 -318 596 -308 b 749 38 744 -149 749 -50 l 749 619 l 549 619 z m 410 467 b 518 428 446 467 489 454 b 565 314 544 403 565 363 b 517 196 565 268 547 225 b 408 156 496 176 461 156 b 296 200 361 156 324 171 b 253 311 268 229 253 271 b 300 426 253 349 269 397 b 410 467 325 450 365 467 z m 271 838 b 386 722 271 772 321 722 b 501 838 451 722 501 772 b 386 953 501 903 451 953 b 271 838 321 953 271 903 z "},"Ģ":{"ha":1065,"x_min":0,"x_max":0,"o":"m 547 333 l 771 333 b 704 224 753 265 711 229 b 543 174 683 206 635 174 b 356 246 472 174 410 190 b 278 458 317 285 278 353 b 357 678 278 544 306 624 b 549 753 401 725 464 753 b 690 708 601 753 649 739 b 772 608 726 682 754 644 l 965 713 b 815 878 932 771 878 836 b 556 947 729 935 632 947 b 192 813 446 947 306 931 b 58 461 114 733 58 613 b 194 108 58 276 140 164 b 533 -21 303 -3 422 -21 b 864 106 643 -21 761 -1 b 1007 496 967 213 1007 383 l 1007 506 l 547 506 z m 361 -344 l 489 -361 l 625 -92 l 439 -69 z "},"ģ":{"ha":826,"x_min":0,"x_max":0,"o":"m 549 547 b 364 640 526 581 476 640 b 139 551 249 640 176 590 b 47 304 86 497 47 410 b 138 71 47 197 88 122 b 364 -17 194 14 268 -17 b 549 76 478 -17 525 38 l 549 6 b 508 -124 549 -21 547 -86 b 408 -157 494 -136 465 -157 b 322 -136 379 -157 346 -151 b 278 -75 306 -125 286 -107 l 60 -75 b 153 -239 74 -153 114 -206 b 411 -318 231 -306 329 -318 b 672 -226 479 -318 596 -308 b 749 38 744 -149 749 -50 l 749 619 l 549 619 z m 410 467 b 518 428 446 467 489 454 b 565 314 544 403 565 363 b 517 196 565 268 547 225 b 408 156 496 176 461 156 b 296 200 361 156 324 171 b 253 311 268 229 253 271 b 300 426 253 349 269 397 b 410 467 325 450 365 467 z m 553 958 l 425 975 l 289 719 l 475 697 z "},"Ĥ":{"ha":1000,"x_min":0,"x_max":0,"o":"m 315 926 l 101 926 l 101 0 l 315 0 l 315 393 l 685 393 l 685 0 l 899 0 l 899 926 l 685 926 l 685 574 l 315 574 z m 328 1008 l 500 1138 l 671 1008 l 763 1107 l 500 1301 l 239 1107 z "},"ĥ":{"ha":793,"x_min":0,"x_max":0,"o":"m 83 0 l 283 0 l 283 310 b 325 439 283 340 285 400 b 404 469 336 450 361 469 b 482 442 433 469 464 460 b 515 318 514 411 515 361 l 515 0 l 715 0 l 715 393 b 654 574 715 440 711 517 b 479 636 600 629 528 636 b 358 610 435 636 400 632 b 283 546 335 597 308 576 l 283 1013 l 83 1013 z m 183 1171 l 347 1039 l 439 1135 l 183 1332 l -71 1135 l 18 1039 z "},"Ħ":{"ha":1000,"x_min":0,"x_max":0,"o":"m 315 926 l 101 926 l 101 853 l 18 853 l 18 706 l 101 706 l 101 0 l 315 0 l 315 393 l 685 393 l 685 0 l 899 0 l 899 706 l 982 706 l 982 853 l 899 853 l 899 926 l 685 926 l 685 853 l 315 853 z m 685 706 l 685 574 l 315 574 l 315 706 z "},"ħ":{"ha":807,"x_min":0,"x_max":0,"o":"m 97 0 l 297 0 l 297 310 b 339 439 297 340 299 400 b 418 469 350 450 375 469 b 496 442 447 469 478 460 b 529 318 528 411 529 361 l 529 0 l 729 0 l 729 393 b 668 574 729 440 725 517 b 493 636 614 629 542 636 b 372 610 449 636 414 632 b 297 546 349 597 322 576 l 297 753 l 564 753 l 564 883 l 297 883 l 297 1013 l 97 1013 l 97 883 l -14 883 l -14 753 l 97 753 z "},"Ī":{"ha":425,"x_min":0,"x_max":0,"o":"m 106 926 l 106 0 l 319 0 l 319 926 z m -62 1046 l 476 1046 l 476 1174 l -62 1174 z "},"ī":{"ha":383,"x_min":0,"x_max":0,"o":"m 92 619 l 92 0 l 292 0 l 292 619 z m 0 754 l 383 754 l 383 879 l 0 879 z "},"Į":{"ha":425,"x_min":0,"x_max":0,"o":"m 106 926 l 106 0 l 222 0 b 161 -69 200 -18 179 -40 b 133 -157 146 -94 133 -121 b 165 -235 133 -190 144 -215 b 261 -268 185 -253 217 -268 b 351 -244 286 -268 318 -264 l 376 -137 b 307 -158 372 -140 342 -158 b 268 -146 292 -158 278 -154 b 253 -112 257 -136 253 -125 b 276 -49 253 -87 267 -62 b 319 0 289 -31 304 -14 l 319 926 z "},"į":{"ha":383,"x_min":0,"x_max":0,"o":"m 92 619 l 92 0 l 200 0 b 140 -67 182 -17 157 -43 b 111 -151 119 -97 111 -126 b 143 -229 111 -179 122 -208 b 238 -262 172 -258 208 -262 b 329 -239 264 -262 296 -258 l 354 -132 b 285 -153 332 -144 306 -153 b 244 -139 269 -153 256 -149 b 228 -100 235 -131 228 -117 b 254 -39 228 -81 238 -58 b 292 0 263 -29 281 -11 l 292 619 z m 75 883 b 192 767 75 818 126 767 b 308 883 257 767 308 818 b 192 1000 308 949 257 1000 b 75 883 126 1000 75 949 z "},"İ":{"ha":425,"x_min":0,"x_max":0,"o":"m 106 926 l 106 0 l 319 0 l 319 926 z m 94 1132 b 213 1014 94 1065 146 1014 b 331 1132 279 1014 331 1065 b 213 1250 331 1199 279 1250 b 94 1132 146 1250 94 1199 z "},"ı":{"ha":383,"x_min":0,"x_max":0,"o":"m 92 619 l 92 0 l 292 0 l 292 619 z "},"Ĵ":{"ha":576,"x_min":0,"x_max":0,"o":"m 261 926 l 261 297 b 233 188 261 258 260 214 b 183 168 218 172 201 168 b 131 189 163 168 146 174 b 97 240 119 200 106 224 l -36 90 b 51 13 -12 61 22 31 b 199 -21 100 -17 149 -21 b 394 49 258 -21 333 -12 b 475 296 471 124 475 226 l 475 926 z m 199 1008 l 371 1138 l 542 1008 l 633 1107 l 371 1301 l 110 1107 z "},"ĵ":{"ha":383,"x_min":0,"x_max":0,"o":"m 92 619 l 92 -318 l 292 -318 l 292 619 z m 192 836 l 321 715 l 413 811 l 192 1008 l -29 811 l 61 715 z "},"Ķ":{"ha":931,"x_min":0,"x_max":0,"o":"m 315 926 l 101 926 l 101 0 l 315 0 l 315 411 l 647 0 l 922 0 l 518 488 l 893 926 l 632 926 l 315 540 z m 306 -344 l 433 -361 l 569 -92 l 383 -69 z "},"ķ":{"ha":786,"x_min":0,"x_max":0,"o":"m 83 1013 l 83 0 l 283 0 l 283 267 l 522 0 l 792 0 l 476 339 l 771 619 l 508 619 l 283 392 l 283 1013 z m 264 -331 l 392 -347 l 528 -92 l 342 -69 z "},"Ĺ":{"ha":622,"x_min":0,"x_max":0,"o":"m 101 926 l 101 0 l 603 0 l 603 181 l 315 181 l 315 926 z m 285 1285 l 99 1079 l 189 1006 l 417 1185 z "},"ĺ":{"ha":367,"x_min":0,"x_max":0,"o":"m 83 1013 l 83 0 l 283 0 l 283 1013 z m 274 1326 l 103 1115 l 193 1049 l 404 1236 z "},"Ļ":{"ha":622,"x_min":0,"x_max":0,"o":"m 101 926 l 101 0 l 603 0 l 603 181 l 315 181 l 315 926 z m 181 -344 l 308 -361 l 444 -92 l 258 -69 z "},"ļ":{"ha":367,"x_min":0,"x_max":0,"o":"m 83 1013 l 83 0 l 283 0 l 283 1013 z m 28 -331 l 156 -347 l 292 -92 l 106 -69 z "},"Ľ":{"ha":622,"x_min":0,"x_max":0,"o":"m 101 926 l 101 0 l 603 0 l 603 181 l 315 181 l 315 926 z m 389 656 l 511 628 l 667 903 l 486 944 z "},"ľ":{"ha":613,"x_min":0,"x_max":0,"o":"m 83 1013 l 83 0 l 283 0 l 283 1013 z m 347 683 l 469 656 l 625 931 l 444 972 z "},"Ŀ":{"ha":622,"x_min":0,"x_max":0,"o":"m 101 926 l 101 0 l 603 0 l 603 181 l 315 181 l 315 926 z m 407 464 b 525 346 407 397 458 346 b 643 464 592 346 643 397 b 525 582 643 531 592 582 b 407 464 458 582 407 531 z "},"ŀ":{"ha":603,"x_min":0,"x_max":0,"o":"m 83 1013 l 83 0 l 283 0 l 283 1013 z m 369 506 b 485 390 369 440 419 390 b 600 506 550 390 600 440 b 485 621 600 571 550 621 b 369 506 419 621 369 571 z "},"Ł":{"ha":654,"x_min":0,"x_max":0,"o":"m 133 0 l 635 0 l 635 181 l 347 181 l 347 446 l 489 536 l 489 703 l 347 613 l 347 926 l 133 926 l 133 525 l 14 449 l 14 282 l 133 358 z "},"ł":{"ha":378,"x_min":0,"x_max":0,"o":"m 89 624 l -22 549 l -22 401 l 89 476 l 89 0 l 289 0 l 289 569 l 400 644 l 400 792 l 289 717 l 289 1013 l 89 1013 z "},"Ń":{"ha":1106,"x_min":0,"x_max":0,"o":"m 315 0 l 315 600 l 818 0 l 1004 0 l 1004 926 l 790 926 l 790 329 l 288 926 l 101 926 l 101 0 z m 629 1285 l 443 1079 l 533 1006 l 761 1185 z "},"ń":{"ha":788,"x_min":0,"x_max":0,"o":"m 78 0 l 278 0 l 278 318 b 317 436 278 358 283 403 b 400 469 332 453 358 469 b 476 442 436 469 461 457 b 510 318 508 410 510 358 l 510 0 l 710 0 l 710 392 b 647 574 710 442 706 515 b 469 636 594 626 524 636 b 278 546 411 636 339 624 l 278 619 l 78 619 z m 496 993 l 325 782 l 415 715 l 626 903 z "},"Ņ":{"ha":1106,"x_min":0,"x_max":0,"o":"m 315 0 l 315 600 l 818 0 l 1004 0 l 1004 926 l 790 926 l 790 329 l 288 926 l 101 926 l 101 0 z m 394 -344 l 522 -361 l 658 -92 l 472 -69 z "},"ņ":{"ha":788,"x_min":0,"x_max":0,"o":"m 78 0 l 278 0 l 278 318 b 317 436 278 358 283 403 b 400 469 332 453 358 469 b 476 442 436 469 461 457 b 510 318 508 410 510 358 l 510 0 l 710 0 l 710 392 b 647 574 710 442 706 515 b 469 636 594 626 524 636 b 278 546 411 636 339 624 l 278 619 l 78 619 z m 257 -331 l 385 -347 l 521 -92 l 335 -69 z "},"Ň":{"ha":1106,"x_min":0,"x_max":0,"o":"m 315 0 l 315 600 l 818 0 l 1004 0 l 1004 926 l 790 926 l 790 329 l 288 926 l 101 926 l 101 0 z m 539 1172 l 367 1301 l 278 1204 l 539 1008 l 801 1204 l 710 1301 z "},"ň":{"ha":788,"x_min":0,"x_max":0,"o":"m 78 0 l 278 0 l 278 318 b 317 436 278 358 283 403 b 400 469 332 453 358 469 b 476 442 436 469 461 457 b 510 318 508 410 510 358 l 510 0 l 710 0 l 710 392 b 647 574 710 442 706 515 b 469 636 594 626 524 636 b 278 546 411 636 339 624 l 278 619 l 78 619 z m 388 876 l 222 1008 l 133 914 l 388 715 l 643 914 l 551 1008 z "},"Ō":{"ha":1125,"x_min":0,"x_max":0,"o":"m 564 947 b 201 811 379 947 264 874 b 58 460 118 728 58 593 b 203 115 58 324 114 199 b 564 -21 272 49 390 -21 b 922 115 719 -21 836 32 b 1067 463 1022 213 1067 339 b 922 813 1067 606 1010 728 b 564 947 829 903 708 947 z m 563 750 b 767 671 647 750 721 715 b 847 463 808 629 847 558 b 767 256 847 356 803 290 b 561 176 722 211 656 176 b 363 253 489 176 422 196 b 278 461 306 308 278 376 b 360 671 278 564 319 632 b 563 750 410 721 482 750 z m 288 1046 l 826 1046 l 826 1174 l 288 1174 z "},"ō":{"ha":822,"x_min":0,"x_max":0,"o":"m 775 310 b 682 540 775 389 744 478 b 411 640 626 596 532 640 b 140 540 290 640 196 596 b 47 310 78 478 47 389 b 140 79 47 231 78 142 b 411 -21 196 24 290 -21 b 682 79 532 -21 626 24 b 775 310 744 142 775 231 z m 411 471 b 524 426 457 471 494 456 b 569 310 553 397 569 360 b 524 193 569 260 553 222 b 413 149 494 164 457 149 b 299 193 360 149 324 168 b 253 310 275 217 253 253 b 299 426 253 360 269 397 b 411 471 328 456 365 471 z m 136 754 l 664 754 l 664 879 l 136 879 z "},"Ŏ":{"ha":1125,"x_min":0,"x_max":0,"o":"m 564 947 b 201 811 379 947 264 874 b 58 460 118 728 58 593 b 203 115 58 324 114 199 b 564 -21 272 49 390 -21 b 922 115 719 -21 836 32 b 1067 463 1022 213 1067 339 b 922 813 1067 606 1010 728 b 564 947 829 903 708 947 z m 563 750 b 767 671 647 750 721 715 b 847 463 808 629 847 558 b 767 256 847 356 803 290 b 561 176 722 211 656 176 b 363 253 489 176 422 196 b 278 461 306 308 278 376 b 360 671 278 564 319 632 b 563 750 410 721 482 750 z m 668 1214 b 642 1156 665 1192 654 1169 b 563 1126 624 1136 592 1126 b 483 1156 533 1126 501 1136 b 457 1214 471 1169 460 1192 l 324 1214 b 388 1068 326 1189 339 1117 b 563 1007 438 1018 511 1007 b 738 1068 614 1007 688 1018 b 801 1214 786 1117 799 1189 z "},"ŏ":{"ha":822,"x_min":0,"x_max":0,"o":"m 775 310 b 682 540 775 389 744 478 b 411 640 626 596 532 640 b 140 540 290 640 196 596 b 47 310 78 478 47 389 b 140 79 47 231 78 142 b 411 -21 196 24 290 -21 b 682 79 532 -21 626 24 b 775 310 744 142 775 231 z m 411 471 b 524 426 457 471 494 456 b 569 310 553 397 569 360 b 524 193 569 260 553 222 b 413 149 494 164 457 149 b 299 193 360 149 324 168 b 253 310 275 217 253 253 b 299 426 253 360 269 397 b 411 471 328 456 365 471 z m 515 922 b 486 864 511 896 499 876 b 411 838 463 842 432 838 b 336 864 390 838 360 842 b 307 922 324 876 311 896 l 176 922 b 238 781 181 865 204 815 b 411 718 289 728 357 718 b 585 781 465 718 533 728 b 646 922 618 815 642 865 z "},"Ő":{"ha":1125,"x_min":0,"x_max":0,"o":"m 564 947 b 201 811 379 947 264 874 b 58 460 118 728 58 593 b 203 115 58 324 114 199 b 564 -21 272 49 390 -21 b 922 115 719 -21 836 32 b 1067 463 1022 213 1067 339 b 922 813 1067 606 1010 728 b 564 947 829 903 708 947 z m 563 750 b 767 671 647 750 721 715 b 847 463 808 629 847 558 b 767 256 847 356 803 290 b 561 176 722 211 656 176 b 363 253 489 176 422 196 b 278 461 306 308 278 376 b 360 671 278 564 319 632 b 563 750 410 721 482 750 z m 500 1285 l 349 1072 l 425 1006 l 619 1193 z m 758 1285 l 607 1072 l 685 1006 l 879 1193 z "},"ő":{"ha":822,"x_min":0,"x_max":0,"o":"m 775 310 b 682 540 775 389 744 478 b 411 640 626 596 532 640 b 140 540 290 640 196 596 b 47 310 78 478 47 389 b 140 79 47 231 78 142 b 411 -21 196 24 290 -21 b 682 79 532 -21 626 24 b 775 310 744 142 775 231 z m 411 471 b 524 426 457 471 494 456 b 569 310 553 397 569 360 b 524 193 569 260 553 222 b 413 149 494 164 457 149 b 299 193 360 149 324 168 b 253 310 275 217 253 253 b 299 426 253 360 269 397 b 411 471 328 456 365 471 z m 347 986 l 203 774 l 275 707 l 461 894 z m 597 985 l 453 774 l 526 707 l 713 894 z "},"Œ":{"ha":1433,"x_min":0,"x_max":0,"o":"m 1361 926 l 849 926 l 849 815 b 551 947 754 931 628 947 b 208 818 401 947 290 896 b 58 460 106 719 58 588 b 207 106 58 361 88 222 b 538 -21 297 18 396 -21 b 849 114 610 -21 739 -12 l 849 0 l 1361 0 l 1361 181 l 1060 181 l 1060 386 l 1346 386 l 1346 567 l 1060 567 l 1060 746 l 1361 746 z m 556 750 b 749 674 633 750 700 719 b 833 463 776 647 833 579 b 749 253 833 358 788 290 b 556 176 700 207 633 176 b 363 253 478 176 411 207 b 278 463 324 290 278 358 b 363 674 278 579 335 647 b 556 750 411 719 478 750 z "},"œ":{"ha":1256,"x_min":0,"x_max":0,"o":"m 1017 200 b 893 131 1004 171 975 131 b 790 169 867 131 824 133 b 750 275 769 193 753 236 l 1208 275 l 1208 292 b 1121 554 1208 367 1200 474 b 883 640 1082 594 1008 640 b 647 539 739 640 675 574 b 394 640 618 572 550 640 b 140 549 289 640 199 607 b 47 303 86 496 47 411 b 143 68 47 208 78 131 b 388 -21 222 -8 307 -21 b 640 93 461 -21 564 -8 b 892 -21 708 -7 813 -21 b 1092 32 951 -21 1025 -14 b 1200 188 1143 67 1182 117 z m 401 471 b 501 432 446 471 479 453 b 550 310 525 410 550 371 b 503 188 550 257 531 215 b 401 149 481 167 447 149 b 300 188 356 149 322 167 b 253 310 272 215 253 257 b 301 432 253 371 278 410 b 401 471 324 453 357 471 z m 756 394 b 790 461 761 422 775 444 b 892 501 810 481 840 501 b 986 467 932 501 964 488 b 1026 394 1015 439 1025 400 z "},"Ŕ":{"ha":843,"x_min":0,"x_max":0,"o":"m 101 926 l 101 0 l 315 0 l 315 365 l 565 0 l 826 0 l 542 379 b 671 450 593 392 639 419 b 743 639 731 508 743 581 b 663 846 743 742 701 808 b 426 926 618 888 544 926 z m 315 760 l 365 760 b 483 731 393 760 449 757 b 526 636 501 717 526 689 b 492 546 526 590 507 561 b 364 506 456 510 403 506 l 315 506 z m 485 1285 l 299 1079 l 389 1006 l 617 1185 z "},"ŕ":{"ha":533,"x_min":0,"x_max":0,"o":"m 78 0 l 278 0 l 278 251 b 326 418 278 304 282 371 b 426 460 351 444 383 460 b 517 438 461 460 490 451 l 528 625 b 463 635 506 632 488 635 b 356 608 424 635 389 629 b 278 522 324 589 296 557 l 278 619 l 78 619 z m 371 993 l 200 782 l 290 715 l 501 903 z "},"Ŗ":{"ha":843,"x_min":0,"x_max":0,"o":"m 101 926 l 101 0 l 315 0 l 315 365 l 565 0 l 826 0 l 542 379 b 671 450 593 392 639 419 b 743 639 731 508 743 581 b 663 846 743 742 701 808 b 426 926 618 888 544 926 z m 315 760 l 365 760 b 483 731 393 760 449 757 b 526 636 501 717 526 689 b 492 546 526 590 507 561 b 364 506 456 510 403 506 l 315 506 z m 278 -344 l 406 -361 l 542 -92 l 356 -69 z "},"ŗ":{"ha":533,"x_min":0,"x_max":0,"o":"m 78 0 l 278 0 l 278 251 b 326 418 278 304 282 371 b 426 460 351 444 383 460 b 517 438 461 460 490 451 l 528 625 b 463 635 506 632 488 635 b 356 608 424 635 389 629 b 278 522 324 589 296 557 l 278 619 l 78 619 z m 125 -331 l 253 -347 l 389 -92 l 203 -69 z "},"Ř":{"ha":843,"x_min":0,"x_max":0,"o":"m 101 926 l 101 0 l 315 0 l 315 365 l 565 0 l 826 0 l 542 379 b 671 450 593 392 639 419 b 743 639 731 508 743 581 b 663 846 743 742 701 808 b 426 926 618 888 544 926 z m 315 760 l 365 760 b 483 731 393 760 449 757 b 526 636 501 717 526 689 b 492 546 526 590 507 561 b 364 506 456 510 403 506 l 315 506 z m 394 1172 l 222 1301 l 133 1204 l 394 1008 l 657 1204 l 565 1301 z "},"ř":{"ha":533,"x_min":0,"x_max":0,"o":"m 78 0 l 278 0 l 278 251 b 326 418 278 304 282 371 b 426 460 351 444 383 460 b 517 438 461 460 490 451 l 528 625 b 463 635 506 632 488 635 b 356 608 424 635 389 629 b 278 522 324 589 296 557 l 278 619 l 78 619 z m 289 876 l 124 1008 l 35 914 l 289 715 l 544 914 l 453 1008 z "},"Ś":{"ha":764,"x_min":0,"x_max":0,"o":"m 675 856 b 400 947 567 936 464 947 b 171 863 314 947 236 929 b 90 654 115 806 90 736 b 146 493 90 610 97 544 b 275 419 182 454 232 435 l 351 393 b 460 342 378 383 435 363 b 492 275 479 325 492 306 b 458 200 492 240 476 215 b 361 168 428 174 389 168 b 244 201 318 168 281 179 b 158 272 219 217 182 249 l 47 119 b 183 18 82 85 136 42 b 367 -21 242 -11 300 -21 b 629 74 428 -21 547 -12 b 711 303 678 124 711 207 b 643 475 711 357 697 424 b 517 546 607 510 557 531 l 447 572 b 331 625 385 596 353 604 b 310 676 317 638 310 654 b 333 735 310 700 319 721 b 424 767 358 763 394 767 b 579 700 450 767 510 763 z m 500 1285 l 314 1079 l 404 1006 l 632 1185 z "},"ś":{"ha":603,"x_min":0,"x_max":0,"o":"m 536 588 b 331 640 486 617 422 640 b 143 578 274 640 199 629 b 83 435 107 544 83 494 b 128 322 83 388 99 353 b 228 265 154 296 192 276 l 278 250 b 339 228 307 242 325 236 b 361 192 357 217 361 203 b 340 151 361 176 353 161 b 278 138 322 138 290 138 b 194 157 251 138 222 143 b 126 203 174 167 146 186 l 42 68 b 296 -21 122 -3 213 -21 b 497 50 361 -21 436 -11 b 561 213 525 78 561 131 b 513 331 561 260 549 297 b 410 385 481 360 444 374 l 357 401 b 297 422 332 410 311 414 b 278 450 288 428 278 436 b 290 478 278 460 283 471 b 347 496 303 490 326 496 b 457 461 386 496 426 479 z m 399 993 l 228 782 l 318 715 l 529 903 z "},"Ŝ":{"ha":764,"x_min":0,"x_max":0,"o":"m 675 856 b 400 947 567 936 464 947 b 171 863 314 947 236 929 b 90 654 115 806 90 736 b 146 493 90 610 97 544 b 275 419 182 454 232 435 l 351 393 b 460 342 378 383 435 363 b 492 275 479 325 492 306 b 458 200 492 240 476 215 b 361 168 428 174 389 168 b 244 201 318 168 281 179 b 158 272 219 217 182 249 l 47 119 b 183 18 82 85 136 42 b 367 -21 242 -11 300 -21 b 629 74 428 -21 547 -12 b 711 303 678 124 711 207 b 643 475 711 357 697 424 b 517 546 607 510 557 531 l 447 572 b 331 625 385 596 353 604 b 310 676 317 638 310 654 b 333 735 310 700 319 721 b 424 767 358 763 394 767 b 579 700 450 767 510 763 z m 215 1008 l 388 1138 l 558 1008 l 650 1107 l 388 1301 l 126 1107 z "},"ŝ":{"ha":603,"x_min":0,"x_max":0,"o":"m 536 588 b 331 640 486 617 422 640 b 143 578 274 640 199 629 b 83 435 107 544 83 494 b 128 322 83 388 99 353 b 228 265 154 296 192 276 l 278 250 b 339 228 307 242 325 236 b 361 192 357 217 361 203 b 340 151 361 176 353 161 b 278 138 322 138 290 138 b 194 157 251 138 222 143 b 126 203 174 167 146 186 l 42 68 b 296 -21 122 -3 213 -21 b 497 50 361 -21 436 -11 b 561 213 525 78 561 131 b 513 331 561 260 549 297 b 410 385 481 360 444 374 l 357 401 b 297 422 332 410 311 414 b 278 450 288 428 278 436 b 290 478 278 460 283 471 b 347 496 303 490 326 496 b 457 461 386 496 426 479 z m 318 847 l 482 715 l 574 811 l 318 1008 l 64 811 l 153 715 z "},"Ş":{"ha":764,"x_min":0,"x_max":0,"o":"m 675 856 b 400 947 567 936 464 947 b 171 863 314 947 236 929 b 90 654 115 806 90 736 b 146 493 90 610 97 544 b 275 419 182 454 232 435 l 351 393 b 460 342 378 383 435 363 b 492 275 479 325 492 306 b 458 200 492 240 476 215 b 361 168 428 174 389 168 b 244 201 318 168 281 179 b 158 272 219 217 182 249 l 47 119 b 183 18 82 85 136 42 b 367 -21 242 -11 300 -21 b 629 74 428 -21 547 -12 b 711 303 678 124 711 207 b 643 475 711 357 697 424 b 517 546 607 510 557 531 l 447 572 b 331 625 385 596 353 604 b 310 676 317 638 310 654 b 333 735 310 700 319 721 b 424 767 358 763 394 767 b 579 700 450 767 510 763 z m 336 -64 l 208 -272 l 319 -328 l 475 -125 z "},"ş":{"ha":603,"x_min":0,"x_max":0,"o":"m 536 588 b 331 640 486 617 422 640 b 143 578 274 640 199 629 b 83 435 107 544 83 494 b 128 322 83 388 99 353 b 228 265 154 296 192 276 l 278 250 b 339 228 307 242 325 236 b 361 192 357 217 361 203 b 340 151 361 176 353 161 b 278 138 322 138 290 138 b 194 157 251 138 222 143 b 126 203 174 167 146 186 l 42 68 b 296 -21 122 -3 213 -21 b 497 50 361 -21 436 -11 b 561 213 525 78 561 131 b 513 331 561 260 549 297 b 410 385 481 360 444 374 l 357 401 b 297 422 332 410 311 414 b 278 450 288 428 278 436 b 290 478 278 460 283 471 b 347 496 303 490 326 496 b 457 461 386 496 426 479 z m 271 -64 l 135 -272 l 238 -328 l 401 -125 z "},"Š":{"ha":764,"x_min":0,"x_max":0,"o":"m 675 856 b 400 947 567 936 464 947 b 171 863 314 947 236 929 b 90 654 115 806 90 736 b 146 493 90 610 97 544 b 275 419 182 454 232 435 l 351 393 b 460 342 378 383 435 363 b 492 275 479 325 492 306 b 458 200 492 240 476 215 b 361 168 428 174 389 168 b 244 201 318 168 281 179 b 158 272 219 217 182 249 l 47 119 b 183 18 82 85 136 42 b 367 -21 242 -11 300 -21 b 629 74 428 -21 547 -12 b 711 303 678 124 711 207 b 643 475 711 357 697 424 b 517 546 607 510 557 531 l 447 572 b 331 625 385 596 353 604 b 310 676 317 638 310 654 b 333 735 310 700 319 721 b 424 767 358 763 394 767 b 579 700 450 767 510 763 z m 388 1172 l 215 1301 l 126 1204 l 388 1008 l 650 1204 l 558 1301 z "},"š":{"ha":603,"x_min":0,"x_max":0,"o":"m 536 588 b 331 640 486 617 422 640 b 143 578 274 640 199 629 b 83 435 107 544 83 494 b 128 322 83 388 99 353 b 228 265 154 296 192 276 l 278 250 b 339 228 307 242 325 236 b 361 192 357 217 361 203 b 340 151 361 176 353 161 b 278 138 322 138 290 138 b 194 157 251 138 222 143 b 126 203 174 167 146 186 l 42 68 b 296 -21 122 -3 213 -21 b 497 50 361 -21 436 -11 b 561 213 525 78 561 131 b 513 331 561 260 549 297 b 410 385 481 360 444 374 l 357 401 b 297 422 332 410 311 414 b 278 450 288 428 278 436 b 290 478 278 460 283 471 b 347 496 303 490 326 496 b 457 461 386 496 426 479 z m 318 876 l 153 1008 l 64 914 l 318 715 l 574 914 l 482 1008 z "},"Ţ":{"ha":639,"x_min":0,"x_max":0,"o":"m 628 746 l 628 926 l 11 926 l 11 746 l 213 746 l 213 0 l 426 0 l 426 746 z m 283 -64 l 156 -272 l 267 -328 l 422 -125 z "},"ţ":{"ha":415,"x_min":0,"x_max":0,"o":"m 407 458 l 407 619 l 283 619 l 283 819 l 83 819 l 83 619 l 14 619 l 14 458 l 83 458 l 83 0 l 283 0 l 283 458 z m 160 -64 l 24 -272 l 126 -328 l 290 -125 z "},"Ť":{"ha":639,"x_min":0,"x_max":0,"o":"m 426 746 l 426 0 l 213 0 l 213 746 l 11 746 l 11 926 l 628 926 l 628 746 z m 319 1172 l 147 1301 l 58 1204 l 319 1008 l 582 1204 l 490 1301 z "},"ť":{"ha":613,"x_min":0,"x_max":0,"o":"m 407 458 l 407 619 l 283 619 l 283 819 l 83 819 l 83 619 l 14 619 l 14 458 l 83 458 l 83 0 l 283 0 l 283 458 z m 347 683 l 469 656 l 625 931 l 444 972 z "},"Ũ":{"ha":986,"x_min":0,"x_max":0,"o":"m 885 926 l 671 926 l 671 383 b 622 228 671 343 668 275 b 493 179 585 188 533 179 b 364 228 453 179 401 188 b 315 383 318 275 315 343 l 315 926 l 101 926 l 101 378 b 204 85 101 289 113 179 b 493 -21 293 -7 396 -21 b 782 85 590 -21 693 -7 b 885 378 874 179 885 289 z m 661 1204 b 594 1151 647 1171 625 1151 b 538 1168 572 1151 553 1163 l 482 1190 b 399 1210 458 1200 433 1210 b 297 1168 361 1210 326 1199 b 246 1086 278 1147 256 1107 l 344 1017 b 408 1071 363 1063 389 1071 b 460 1056 422 1071 438 1064 l 517 1033 b 603 1011 547 1021 574 1011 b 701 1054 650 1011 679 1032 b 760 1135 724 1076 744 1104 z "},"ũ":{"ha":792,"x_min":0,"x_max":0,"o":"m 78 619 l 78 246 b 146 60 78 178 89 115 b 396 -21 217 -10 319 -21 b 644 60 469 -21 574 -10 b 714 258 707 121 714 188 l 714 619 l 514 619 l 514 278 b 481 178 514 247 510 206 b 396 149 463 161 433 149 b 313 178 351 149 326 165 b 278 278 281 207 278 250 l 278 619 z m 557 913 b 501 861 553 894 539 861 b 428 881 497 861 479 861 l 381 899 b 294 917 356 908 325 917 b 196 875 256 917 222 904 b 149 788 174 851 157 815 l 239 726 b 299 778 251 760 271 778 b 367 760 315 778 335 772 l 415 742 b 497 722 463 725 486 722 b 594 764 533 722 569 739 b 649 851 614 785 638 824 z "},"Ū":{"ha":986,"x_min":0,"x_max":0,"o":"m 885 926 l 671 926 l 671 383 b 622 228 671 343 668 275 b 493 179 585 188 533 179 b 364 228 453 179 401 188 b 315 383 318 275 315 343 l 315 926 l 101 926 l 101 378 b 204 85 101 289 113 179 b 493 -21 293 -7 396 -21 b 782 85 590 -21 693 -7 b 885 378 874 179 885 289 z m 218 1046 l 757 1046 l 757 1174 l 218 1174 z "},"ū":{"ha":792,"x_min":0,"x_max":0,"o":"m 78 619 l 78 246 b 146 60 78 178 89 115 b 396 -21 217 -10 319 -21 b 644 60 469 -21 574 -10 b 714 258 707 121 714 188 l 714 619 l 514 619 l 514 278 b 481 178 514 247 510 206 b 396 149 463 161 433 149 b 313 178 351 149 326 165 b 278 278 281 207 278 250 l 278 619 z m 121 754 l 649 754 l 649 879 l 121 879 z "},"Ŭ":{"ha":986,"x_min":0,"x_max":0,"o":"m 885 926 l 671 926 l 671 383 b 622 228 671 343 668 275 b 493 179 585 188 533 179 b 364 228 453 179 401 188 b 315 383 318 275 315 343 l 315 926 l 101 926 l 101 378 b 204 85 101 289 113 179 b 493 -21 293 -7 396 -21 b 782 85 590 -21 693 -7 b 885 378 874 179 885 289 z m 599 1214 b 572 1156 596 1192 585 1169 b 493 1126 554 1136 522 1126 b 414 1156 464 1126 432 1136 b 388 1214 401 1169 390 1192 l 254 1214 b 318 1068 257 1189 269 1117 b 493 1007 368 1018 442 1007 b 668 1068 544 1007 618 1018 b 732 1214 717 1117 729 1189 z "},"ŭ":{"ha":792,"x_min":0,"x_max":0,"o":"m 78 619 l 78 246 b 146 60 78 178 89 115 b 396 -21 217 -10 319 -21 b 644 60 469 -21 574 -10 b 714 258 707 121 714 188 l 714 619 l 514 619 l 514 278 b 481 178 514 247 510 206 b 396 149 463 161 433 149 b 313 178 351 149 326 165 b 278 278 281 207 278 250 l 278 619 z m 500 922 b 471 864 496 896 483 876 b 396 838 447 842 417 838 b 321 864 375 838 344 842 b 292 922 308 876 296 896 l 161 922 b 222 781 165 865 189 815 b 396 718 274 728 342 718 b 569 781 450 718 518 728 b 631 922 603 815 626 865 z "},"Ů":{"ha":986,"x_min":0,"x_max":0,"o":"m 885 926 l 671 926 l 671 383 b 622 228 671 343 668 275 b 493 179 585 188 533 179 b 364 228 453 179 401 188 b 315 383 318 275 315 343 l 315 926 l 101 926 l 101 378 b 204 85 101 289 113 179 b 493 -21 293 -7 396 -21 b 782 85 590 -21 693 -7 b 885 378 874 179 885 289 z m 654 1149 b 617 1240 654 1183 640 1217 b 493 1285 586 1269 540 1285 b 369 1240 446 1285 400 1269 b 332 1149 346 1217 332 1183 b 369 1057 332 1114 346 1081 b 493 1013 400 1028 446 1013 b 617 1057 540 1013 586 1028 b 654 1149 640 1081 654 1114 z m 493 1203 b 540 1186 515 1203 531 1196 b 557 1149 551 1175 557 1161 b 540 1111 557 1136 551 1122 b 493 1094 531 1101 515 1094 b 446 1111 471 1094 456 1101 b 429 1149 435 1122 429 1136 b 446 1186 429 1161 435 1175 b 493 1203 456 1196 471 1203 z "},"ů":{"ha":792,"x_min":0,"x_max":0,"o":"m 78 619 l 78 246 b 146 60 78 178 89 115 b 396 -21 217 -10 319 -21 b 644 60 469 -21 574 -10 b 714 258 707 121 714 188 l 714 619 l 514 619 l 514 278 b 481 178 514 247 510 206 b 396 149 463 161 433 149 b 313 178 351 149 326 165 b 278 278 281 207 278 250 l 278 619 z m 554 853 b 517 943 554 894 536 924 b 396 986 493 965 453 986 b 275 943 339 986 299 965 b 238 853 256 924 238 894 b 275 763 238 811 256 782 b 396 719 299 740 339 719 b 517 763 453 719 493 740 b 554 853 536 782 554 811 z m 396 903 b 439 890 410 903 428 899 b 457 853 449 882 457 868 b 439 815 457 838 449 824 b 396 803 428 807 410 803 b 353 815 382 803 364 807 b 335 853 343 824 335 838 b 353 890 335 868 343 882 b 396 903 364 899 382 903 z "},"Ű":{"ha":986,"x_min":0,"x_max":0,"o":"m 885 926 l 671 926 l 671 383 b 622 228 671 343 668 275 b 493 179 585 188 533 179 b 364 228 453 179 401 188 b 315 383 318 275 315 343 l 315 926 l 101 926 l 101 378 b 204 85 101 289 113 179 b 493 -21 293 -7 396 -21 b 782 85 590 -21 693 -7 b 885 378 874 179 885 289 z m 444 1285 l 293 1072 l 369 1006 l 564 1193 z m 703 1285 l 551 1072 l 629 1006 l 824 1193 z "},"ű":{"ha":792,"x_min":0,"x_max":0,"o":"m 78 619 l 78 246 b 146 60 78 178 89 115 b 396 -21 217 -10 319 -21 b 644 60 469 -21 574 -10 b 714 258 707 121 714 188 l 714 619 l 514 619 l 514 278 b 481 178 514 247 510 206 b 396 149 463 161 433 149 b 313 178 351 149 326 165 b 278 278 281 207 278 250 l 278 619 z m 314 986 l 169 774 l 242 707 l 428 894 z m 564 985 l 419 774 l 493 707 l 679 894 z "},"Ų":{"ha":986,"x_min":0,"x_max":0,"o":"m 885 926 l 671 926 l 671 383 b 622 228 671 343 668 275 b 493 179 585 188 533 179 b 364 228 453 179 401 188 b 315 383 318 275 315 343 l 315 926 l 101 926 l 101 378 b 204 85 101 288 113 181 b 479 -21 243 46 322 -21 b 524 -19 493 -21 508 -21 b 478 -79 508 -36 490 -58 b 456 -157 463 -106 456 -131 b 488 -235 456 -190 467 -215 b 583 -268 507 -253 539 -268 b 674 -244 608 -268 640 -264 l 699 -137 b 629 -158 694 -140 664 -158 b 590 -146 614 -158 600 -154 b 575 -112 579 -136 575 -125 b 601 -49 575 -86 588 -64 b 700 24 633 -11 671 6 b 842 163 758 60 813 107 b 885 378 881 235 885 326 z "},"ų":{"ha":792,"x_min":0,"x_max":0,"o":"m 78 619 l 78 246 b 146 60 78 178 89 115 b 385 -21 214 -6 313 -21 b 425 -19 400 -21 413 -21 b 378 -81 404 -39 389 -60 b 357 -150 367 -100 357 -124 b 389 -229 357 -174 364 -204 b 482 -262 415 -256 446 -262 b 575 -239 510 -262 542 -258 l 600 -132 b 531 -153 578 -144 551 -153 b 490 -139 515 -153 500 -149 b 474 -100 479 -129 474 -114 b 501 -47 474 -79 489 -60 b 575 10 526 -21 553 -4 b 646 67 599 26 622 42 b 714 258 713 136 714 204 l 714 619 l 514 619 l 514 278 b 481 178 514 247 510 206 b 396 149 463 161 433 149 b 313 178 351 149 326 165 b 278 278 281 207 278 250 l 278 619 z "},"Ÿ":{"ha":878,"x_min":0,"x_max":0,"o":"m 332 0 l 546 0 l 546 432 l 878 926 l 625 926 l 439 639 l 253 926 l 0 926 l 332 432 z m 178 1126 b 288 1017 178 1067 228 1017 b 397 1126 347 1017 397 1067 b 288 1236 397 1186 347 1236 b 178 1126 228 1236 178 1186 z m 481 1126 b 590 1017 481 1067 531 1017 b 700 1126 650 1017 700 1067 b 590 1236 700 1186 650 1236 b 481 1126 531 1236 481 1186 z "},"Ź":{"ha":856,"x_min":0,"x_max":0,"o":"m 825 926 l 103 926 l 103 746 l 475 746 l 31 0 l 779 0 l 779 181 l 382 181 z m 518 1285 l 332 1079 l 422 1006 l 650 1185 z "},"ź":{"ha":693,"x_min":0,"x_max":0,"o":"m 676 619 l 65 619 l 65 453 l 339 453 l 17 0 l 649 0 l 649 167 l 356 167 z m 432 993 l 261 782 l 351 715 l 563 903 z "},"Ż":{"ha":856,"x_min":0,"x_max":0,"o":"m 825 926 l 103 926 l 103 746 l 475 746 l 31 0 l 779 0 l 779 181 l 382 181 z m 326 1132 b 444 1014 326 1065 378 1014 b 563 1132 511 1014 563 1065 b 444 1250 563 1199 511 1250 b 326 1132 378 1250 326 1199 z "},"ż":{"ha":693,"x_min":0,"x_max":0,"o":"m 676 619 l 65 619 l 65 453 l 339 453 l 17 0 l 649 0 l 649 167 l 356 167 z m 222 838 b 338 722 222 772 272 722 b 453 838 403 722 453 772 b 338 953 453 903 403 953 b 222 838 272 953 222 903 z "},"Ž":{"ha":856,"x_min":0,"x_max":0,"o":"m 825 926 l 103 926 l 103 746 l 475 746 l 31 0 l 779 0 l 779 181 l 382 181 z m 436 1172 l 264 1301 l 175 1204 l 436 1008 l 699 1204 l 607 1301 z "},"ž":{"ha":693,"x_min":0,"x_max":0,"o":"m 676 619 l 65 619 l 65 453 l 339 453 l 17 0 l 649 0 l 649 167 l 356 167 z m 346 876 l 181 1008 l 92 914 l 346 715 l 601 914 l 510 1008 z "},"Ə":{"ha":1063,"x_min":0,"x_max":0,"o":"m 58 521 l 58 515 b 215 97 58 396 97 217 b 531 -21 307 6 401 -21 b 863 100 650 -21 760 0 b 1004 468 978 213 1004 351 b 869 822 1004 574 982 713 b 540 947 761 929 629 947 b 254 874 426 947 326 919 b 94 704 161 815 110 731 l 292 628 b 383 718 317 669 350 700 b 522 750 431 744 479 750 b 708 681 585 750 654 736 b 781 521 768 619 779 535 z m 776 371 b 703 229 767 307 735 258 b 533 171 647 179 583 171 b 357 236 439 171 386 206 b 296 371 322 272 301 326 z "},"ƒ":{"ha":833,"x_min":0,"x_max":0,"o":"m 254 164 b 185 -36 243 103 226 10 b 78 -75 167 -57 131 -75 b 21 -68 57 -75 36 -72 l -11 -246 b 74 -256 19 -253 43 -256 b 318 -175 138 -256 242 -247 b 442 122 400 -97 426 39 l 508 494 l 650 494 l 672 619 l 531 619 l 549 726 b 590 832 557 779 569 813 b 650 853 607 847 628 853 b 731 829 678 853 707 844 l 763 1000 b 625 1028 729 1015 686 1028 b 447 960 576 1028 504 1019 b 364 779 404 915 375 842 l 336 619 l 240 619 l 219 494 l 314 494 z "},"Ǐ":{"ha":425,"x_min":0,"x_max":0,"o":"m 106 926 l 106 0 l 319 0 l 319 926 z m 213 1172 l 40 1301 l -49 1204 l 213 1008 l 475 1204 l 383 1301 z "},"ǐ":{"ha":383,"x_min":0,"x_max":0,"o":"m 92 619 l 92 0 l 292 0 l 292 619 z m 192 888 l 61 1008 l -29 913 l 192 715 l 413 913 l 321 1008 z "},"ǝ":{"ha":760,"x_min":0,"x_max":0,"o":"m 503 233 b 468 163 497 201 482 178 b 368 122 435 128 396 122 b 272 157 324 122 293 138 b 232 233 253 175 238 203 z m 47 324 b 135 72 47 247 61 150 b 378 -21 201 1 288 -21 b 618 68 457 -21 546 -4 b 713 315 681 131 713 222 b 619 551 713 415 674 496 b 374 640 547 624 465 640 b 176 594 319 640 243 636 b 57 439 140 572 85 526 l 246 419 b 289 471 263 454 286 469 b 372 489 313 486 347 489 b 472 449 401 489 442 483 b 508 349 493 425 508 388 l 47 349 z "},"Ǧ":{"ha":1065,"x_min":0,"x_max":0,"o":"m 547 333 l 771 333 b 704 224 753 265 711 229 b 543 174 683 206 635 174 b 356 246 472 174 410 190 b 278 458 317 285 278 353 b 357 678 278 544 306 624 b 549 753 401 725 464 753 b 690 708 601 753 649 739 b 772 608 726 682 754 644 l 965 713 b 815 878 932 771 878 836 b 556 947 729 935 632 947 b 192 813 446 947 306 931 b 58 461 114 733 58 613 b 194 108 58 276 140 164 b 533 -21 303 -3 422 -21 b 864 106 643 -21 761 -1 b 1007 496 967 213 1007 383 l 1007 506 l 547 506 z m 533 1172 l 361 1301 l 272 1204 l 533 1008 l 796 1204 l 704 1301 z "},"ǧ":{"ha":826,"x_min":0,"x_max":0,"o":"m 549 547 b 364 640 526 581 476 640 b 139 551 249 640 176 590 b 47 304 86 497 47 410 b 138 71 47 197 88 122 b 364 -17 194 14 268 -17 b 549 76 478 -17 525 38 l 549 6 b 508 -124 549 -21 547 -86 b 408 -157 494 -136 465 -157 b 322 -136 379 -157 346 -151 b 278 -75 306 -125 286 -107 l 60 -75 b 153 -239 74 -153 114 -206 b 411 -318 231 -306 329 -318 b 672 -226 479 -318 596 -308 b 749 38 744 -149 749 -50 l 749 619 l 549 619 z m 410 467 b 518 428 446 467 489 454 b 565 314 544 403 565 363 b 517 196 565 268 547 225 b 408 156 496 176 461 156 b 296 200 361 156 324 171 b 253 311 268 229 253 271 b 300 426 253 349 269 397 b 410 467 325 450 365 467 z m 379 876 l 214 1008 l 125 914 l 379 715 l 635 914 l 543 1008 z "},"Ǽ":{"ha":1278,"x_min":0,"x_max":0,"o":"m 725 0 l 1269 0 l 1201 181 l 879 181 l 797 386 l 1118 386 l 1049 567 l 729 567 l 658 746 l 981 746 l 914 926 l 388 926 l 8 0 l 231 0 l 300 179 l 654 179 z m 363 343 l 482 647 l 596 343 z m 715 1285 l 529 1079 l 619 1006 l 847 1185 z "},"ǽ":{"ha":1167,"x_min":0,"x_max":0,"o":"m 925 200 b 881 146 914 171 894 154 b 810 129 856 131 828 129 b 708 168 772 129 736 138 b 667 275 685 193 668 233 l 1119 275 l 1119 294 b 1036 546 1119 351 1113 463 b 794 640 986 600 906 640 b 557 533 731 640 626 624 b 328 640 521 593 461 640 b 146 615 272 640 210 633 l 146 463 b 306 493 200 481 261 493 b 426 454 360 493 403 478 b 463 363 447 433 463 397 l 463 350 b 317 388 428 371 386 388 b 99 315 211 388 140 357 b 47 186 60 276 47 233 b 101 47 47 126 68 81 b 310 -21 161 -12 242 -21 b 458 1 364 -21 408 -18 b 563 81 500 18 533 42 b 651 7 585 54 619 22 b 803 -21 701 -18 775 -21 b 992 26 868 -21 932 -12 b 1113 188 1015 42 1081 90 z m 343 265 b 439 233 375 265 415 257 b 457 190 451 219 457 206 b 439 147 457 169 447 156 b 342 115 415 124 371 115 b 251 147 308 115 272 126 b 233 190 239 161 233 175 b 251 233 233 208 240 222 b 343 265 271 254 304 265 z m 672 394 b 717 472 679 421 694 453 b 803 501 742 496 772 501 b 892 469 826 501 863 496 b 932 394 911 451 926 424 z m 676 993 l 506 782 l 596 715 l 807 903 z "},"Ș":{"ha":764,"x_min":0,"x_max":0,"o":"m 675 856 b 400 947 567 936 464 947 b 171 863 314 947 236 929 b 90 654 115 806 90 736 b 146 493 90 610 97 544 b 275 419 182 454 232 435 l 351 393 b 460 342 378 383 435 363 b 492 275 479 325 492 306 b 458 200 492 240 476 215 b 361 168 428 174 389 168 b 244 201 318 168 281 179 b 158 272 219 217 182 249 l 47 119 b 183 18 82 85 136 42 b 367 -21 242 -11 300 -21 b 629 74 428 -21 547 -12 b 711 303 678 124 711 207 b 643 475 711 357 697 424 b 517 546 607 510 557 531 l 447 572 b 331 625 385 596 353 604 b 310 676 317 638 310 654 b 333 735 310 700 319 721 b 424 767 358 763 394 767 b 579 700 450 767 510 763 z m 196 -344 l 324 -361 l 460 -92 l 274 -69 z "},"ș":{"ha":603,"x_min":0,"x_max":0,"o":"m 536 588 b 331 640 486 617 422 640 b 143 578 274 640 199 629 b 83 435 107 544 83 494 b 128 322 83 388 99 353 b 228 265 154 296 192 276 l 278 250 b 339 228 307 242 325 236 b 361 192 357 217 361 203 b 340 151 361 176 353 161 b 278 138 322 138 290 138 b 194 157 251 138 222 143 b 126 203 174 167 146 186 l 42 68 b 296 -21 122 -3 213 -21 b 497 50 361 -21 436 -11 b 561 213 525 78 561 131 b 513 331 561 260 549 297 b 410 385 481 360 444 374 l 357 401 b 297 422 332 410 311 414 b 278 450 288 428 278 436 b 290 478 278 460 283 471 b 347 496 303 490 326 496 b 457 461 386 496 426 479 z m 158 -331 l 286 -347 l 422 -92 l 236 -69 z "},"Ț":{"ha":639,"x_min":0,"x_max":0,"o":"m 628 746 l 628 926 l 11 926 l 11 746 l 213 746 l 213 0 l 426 0 l 426 746 z m 153 -344 l 281 -361 l 417 -92 l 231 -69 z "},"ț":{"ha":415,"x_min":0,"x_max":0,"o":"m 407 458 l 407 619 l 283 619 l 283 819 l 83 819 l 83 619 l 14 619 l 14 458 l 83 458 l 83 0 l 283 0 l 283 458 z m 49 -331 l 176 -347 l 313 -92 l 126 -69 z "},"Ȩ":{"ha":697,"x_min":0,"x_max":0,"o":"m 625 926 l 101 926 l 101 0 l 625 0 l 625 181 l 315 181 l 315 386 l 610 386 l 610 567 l 315 567 l 315 746 l 625 746 z m 353 -64 l 225 -272 l 336 -328 l 492 -125 z "},"ȩ":{"ha":760,"x_min":0,"x_max":0,"o":"m 257 394 b 292 461 263 422 276 444 b 393 501 311 481 342 501 b 488 467 433 501 465 488 b 528 394 517 439 526 400 z m 713 296 b 625 547 713 372 699 469 b 379 640 549 628 449 640 b 142 551 310 640 217 626 b 47 307 79 488 47 396 b 140 68 47 204 86 122 b 388 -21 213 -4 294 -21 b 583 25 457 -21 524 -11 b 703 181 619 47 675 93 l 514 200 b 471 149 497 165 474 150 b 390 131 450 136 419 131 b 288 169 360 131 318 136 b 250 275 263 197 250 242 l 713 275 z m 363 -64 l 226 -272 l 329 -328 l 493 -125 z "},"ȷ":{"ha":383,"x_min":0,"x_max":0,"o":"m 92 619 l 92 -318 l 292 -318 l 292 619 z "},"ə":{"ha":760,"x_min":0,"x_max":0,"o":"m 503 233 b 468 163 497 201 482 178 b 368 122 435 128 396 122 b 272 157 324 122 293 138 b 232 233 253 175 238 203 z m 47 324 b 135 72 47 247 61 150 b 378 -21 201 1 288 -21 b 618 68 457 -21 546 -4 b 713 315 681 131 713 222 b 619 551 713 415 674 496 b 374 640 547 624 465 640 b 176 594 319 640 243 636 b 57 439 140 572 85 526 l 246 419 b 289 471 263 454 286 469 b 372 489 313 486 347 489 b 472 449 401 489 442 483 b 508 349 493 425 508 388 l 47 349 z "},"ʼ":{"ha":694,"x_min":0,"x_max":0,"o":"m 167 683 l 289 656 l 444 931 l 264 972 z "},"ˆ":{"ha":694,"x_min":0,"x_max":0,"o":"m 346 847 l 510 715 l 601 811 l 346 1008 l 92 811 l 181 715 z "},"ˇ":{"ha":694,"x_min":0,"x_max":0,"o":"m 346 876 l 181 1008 l 92 914 l 346 715 l 601 914 l 510 1008 z "},"ˉ":{"ha":694,"x_min":0,"x_max":0,"o":"m 83 754 l 611 754 l 611 879 l 83 879 z "},"˘":{"ha":694,"x_min":0,"x_max":0,"o":"m 451 922 b 422 864 447 896 435 876 b 347 838 399 842 368 838 b 272 864 326 838 296 842 b 243 922 260 876 247 896 l 113 922 b 174 781 117 865 140 815 b 347 718 225 728 293 718 b 521 781 401 718 469 728 b 582 922 554 815 578 865 z "},"˙":{"ha":694,"x_min":0,"x_max":0,"o":"m 232 838 b 347 722 232 772 282 722 b 463 838 413 722 463 772 b 347 953 463 903 413 953 b 232 838 282 953 232 903 z "},"˚":{"ha":694,"x_min":0,"x_max":0,"o":"m 506 853 b 468 943 506 894 488 924 b 347 986 444 965 404 986 b 226 943 290 986 250 965 b 189 853 207 924 189 894 b 226 763 189 811 207 782 b 347 719 250 740 290 719 b 468 763 404 719 444 740 b 506 853 488 782 506 811 z m 347 903 b 390 890 361 903 379 899 b 408 853 400 882 408 868 b 390 815 408 838 400 824 b 347 803 379 807 361 803 b 304 815 333 803 315 807 b 286 853 294 824 286 838 b 304 890 286 868 294 882 b 347 903 315 899 333 903 z "},"˛":{"ha":694,"x_min":0,"x_max":0,"o":"m 524 -132 b 454 -153 501 -144 475 -153 b 414 -139 439 -153 425 -149 b 397 -100 404 -131 397 -117 b 424 -39 397 -81 407 -58 b 461 0 432 -29 450 -11 l 369 0 b 310 -67 351 -17 326 -43 b 281 -151 289 -97 281 -126 b 313 -229 281 -179 292 -208 b 407 -262 342 -258 378 -262 b 499 -239 433 -262 465 -258 z "},"˜":{"ha":694,"x_min":0,"x_max":0,"o":"m 506 913 b 450 861 501 894 488 861 b 376 881 446 861 428 861 l 329 899 b 243 917 304 908 274 917 b 144 875 204 917 171 904 b 97 788 122 851 106 815 l 188 726 b 247 778 200 760 219 778 b 315 760 264 778 283 772 l 364 742 b 446 722 411 725 435 722 b 543 764 482 722 518 739 b 597 851 563 785 586 824 z "},"˝":{"ha":694,"x_min":0,"x_max":0,"o":"m 292 986 l 147 774 l 219 707 l 406 894 z m 542 985 l 397 774 l 471 707 l 657 894 z "},"́":{"ha":3,"x_min":0,"x_max":0,"o":"m -281 993 l -451 782 l -361 715 l -150 903 z "},"Δ":{"ha":929,"x_min":0,"x_max":0,"o":"m 904 0 l 557 926 l 368 926 l 25 0 z m 464 672 l 642 161 l 285 161 z "},"Ω":{"ha":956,"x_min":0,"x_max":0,"o":"m 529 0 l 901 0 l 901 161 l 717 161 b 794 218 744 176 769 194 b 906 507 885 307 906 429 b 783 826 906 640 857 753 b 478 947 735 875 638 947 b 172 826 318 947 221 875 b 50 507 99 753 50 640 b 161 218 50 429 71 307 b 239 161 186 194 211 176 l 54 161 l 54 0 l 426 0 l 426 150 b 290 281 374 174 326 213 b 244 482 254 349 244 421 b 326 714 244 603 286 675 b 478 772 365 751 422 772 b 629 714 533 772 590 751 b 711 482 669 675 711 603 b 665 281 711 421 701 349 b 529 150 629 213 582 174 z "},"π":{"ha":939,"x_min":0,"x_max":0,"o":"m 397 0 l 397 458 l 625 458 l 625 0 l 825 0 l 825 458 l 931 458 l 931 619 l 92 619 l 92 458 l 197 458 l 197 0 z "},"Ё":{"ha":697,"x_min":0,"x_max":0,"o":"m 625 926 l 101 926 l 101 0 l 625 0 l 625 181 l 315 181 l 315 386 l 610 386 l 610 567 l 315 567 l 315 746 l 625 746 z m 115 1110 b 219 1006 115 1051 161 1006 b 324 1110 278 1006 324 1051 b 219 1214 324 1168 278 1214 b 115 1110 161 1214 115 1168 z m 406 1110 b 510 1006 406 1051 451 1006 b 614 1110 568 1006 614 1051 b 510 1214 614 1168 568 1214 b 406 1110 451 1214 406 1168 z "},"Ђ":{"ha":939,"x_min":0,"x_max":0,"o":"m 192 0 l 406 0 l 406 364 b 544 396 418 369 478 396 b 632 379 546 396 601 396 b 683 275 674 357 683 311 b 647 183 683 247 679 208 b 569 161 622 164 590 161 b 494 169 544 161 519 164 l 494 0 b 574 -8 519 -4 547 -8 b 790 43 644 -8 735 7 b 903 282 843 78 903 149 b 768 533 903 374 876 474 b 572 576 692 575 597 576 b 406 544 513 576 457 564 l 406 746 l 711 746 l 711 926 l 11 926 l 11 746 l 192 746 z "},"Ѓ":{"ha":638,"x_min":0,"x_max":0,"o":"m 621 926 l 101 926 l 101 0 l 315 0 l 315 746 l 621 746 z m 451 1285 l 265 1079 l 356 1006 l 583 1185 z "},"Є":{"ha":865,"x_min":0,"x_max":0,"o":"m 796 269 b 701 204 768 244 731 218 b 553 174 658 183 604 174 b 371 228 492 174 425 183 b 286 382 336 256 296 306 l 643 382 l 643 554 l 288 554 b 363 692 299 611 326 660 b 547 753 422 746 493 753 b 700 718 599 753 650 743 b 796 653 729 704 765 679 l 796 881 b 531 947 692 935 607 947 b 192 824 425 947 296 926 b 58 465 126 760 58 649 b 190 101 58 282 126 167 b 521 -21 293 -4 411 -21 b 796 44 656 -21 735 8 z "},"Ѕ":{"ha":764,"x_min":0,"x_max":0,"o":"m 675 856 b 400 947 567 936 464 947 b 171 863 314 947 236 929 b 90 654 115 806 90 736 b 146 493 90 610 97 544 b 275 419 182 454 232 435 l 351 393 b 460 342 378 383 435 363 b 492 275 479 325 492 306 b 458 200 492 240 476 215 b 361 168 428 174 389 168 b 244 201 318 168 281 179 b 158 272 219 217 182 249 l 47 119 b 183 18 82 85 136 42 b 367 -21 242 -11 300 -21 b 629 74 428 -21 547 -12 b 711 303 678 124 711 207 b 643 475 711 357 697 424 b 517 546 607 510 557 531 l 447 572 b 331 625 385 596 353 604 b 310 676 317 638 310 654 b 333 735 310 700 319 721 b 424 767 358 763 394 767 b 579 700 450 767 510 763 z "},"І":{"ha":425,"x_min":0,"x_max":0,"o":"m 106 926 l 106 0 l 319 0 l 319 926 z "},"Ї":{"ha":468,"x_min":0,"x_max":0,"o":"m 128 926 l 128 0 l 342 0 l 342 926 z m 261 1126 b 358 1017 261 1067 306 1017 b 456 1126 411 1017 456 1067 b 358 1236 456 1186 411 1236 b 261 1126 306 1236 261 1186 z m 13 1126 b 110 1017 13 1067 57 1017 b 207 1126 163 1017 207 1067 b 110 1236 207 1186 163 1236 b 13 1126 57 1236 13 1186 z "},"Ј":{"ha":576,"x_min":0,"x_max":0,"o":"m 261 926 l 261 297 b 233 188 261 258 260 214 b 183 168 218 172 201 168 b 131 189 163 168 146 174 b 97 240 119 200 106 224 l -36 90 b 51 13 -12 61 22 31 b 199 -21 100 -17 149 -21 b 394 49 258 -21 333 -12 b 475 296 471 124 475 226 l 475 926 z "},"Љ":{"ha":1365,"x_min":0,"x_max":0,"o":"m 653 0 l 990 0 b 1254 78 1068 0 1178 6 b 1329 282 1318 139 1329 221 b 1251 488 1329 343 1318 425 b 997 565 1178 557 1076 565 l 867 565 l 867 926 l 193 926 l 193 408 b 151 214 193 335 190 253 b 67 183 133 196 103 183 b 14 192 47 183 29 186 l 14 0 b 100 -11 40 -7 68 -11 b 308 63 206 -11 269 24 b 401 428 382 138 401 269 l 401 746 l 653 746 z m 867 393 l 963 393 b 1074 371 1029 393 1058 382 b 1113 283 1081 367 1113 342 b 1072 197 1113 235 1089 208 b 961 172 1043 176 999 172 l 867 172 z "},"Њ":{"ha":1397,"x_min":0,"x_max":0,"o":"m 685 0 l 1022 0 b 1286 78 1100 0 1210 6 b 1361 282 1350 139 1361 221 b 1283 488 1361 343 1350 425 b 1029 565 1210 557 1108 565 l 899 565 l 899 926 l 685 926 l 685 574 l 315 574 l 315 926 l 101 926 l 101 0 l 315 0 l 315 393 l 685 393 z m 899 393 l 994 393 b 1106 371 1061 393 1090 382 b 1144 283 1113 367 1144 342 b 1104 197 1144 235 1121 208 b 993 172 1075 176 1031 172 l 899 172 z "},"Ћ":{"ha":1001,"x_min":0,"x_max":0,"o":"m 192 0 l 406 0 l 406 385 b 542 396 453 393 493 396 b 688 358 621 396 664 382 b 721 244 719 328 721 279 l 721 0 l 935 0 l 935 310 b 865 499 935 363 926 442 b 590 576 801 560 685 576 b 406 563 528 576 456 569 l 406 746 l 711 746 l 711 926 l 11 926 l 11 746 l 192 746 z "},"Ќ":{"ha":931,"x_min":0,"x_max":0,"o":"m 315 926 l 101 926 l 101 0 l 315 0 l 315 411 l 647 0 l 922 0 l 518 488 l 893 926 l 632 926 l 315 540 z m 542 1285 l 356 1079 l 446 1006 l 674 1185 z "},"Ў":{"ha":864,"x_min":0,"x_max":0,"o":"m 6 926 l 336 267 l 201 0 l 432 0 l 856 926 l 625 926 l 439 499 l 244 926 z m 557 1232 b 513 1165 550 1210 533 1182 b 431 1142 485 1144 451 1142 b 346 1165 399 1142 367 1150 b 300 1232 328 1179 310 1207 l 153 1169 b 258 1044 176 1114 217 1071 b 428 1006 314 1011 374 1006 b 599 1044 483 1006 543 1011 b 704 1169 640 1071 681 1114 z "},"Џ":{"ha":974,"x_min":0,"x_max":0,"o":"m 101 0 l 392 0 l 392 -231 l 583 -231 l 583 0 l 872 0 l 872 926 l 658 926 l 658 181 l 315 181 l 315 926 l 101 926 z "},"А":{"ha":940,"x_min":0,"x_max":0,"o":"m 715 0 l 938 0 l 572 926 l 376 926 l 3 0 l 225 0 l 296 175 l 646 175 z m 358 339 l 474 650 l 588 339 z "},"Б":{"ha":829,"x_min":0,"x_max":0,"o":"m 101 0 l 417 0 b 696 83 529 0 628 15 b 771 282 744 132 771 203 b 696 475 771 381 729 442 b 435 561 618 551 515 561 l 315 561 l 315 746 l 674 746 l 674 926 l 101 926 z m 315 172 l 315 394 l 400 394 b 510 369 422 394 476 393 b 551 283 529 356 551 328 b 515 201 551 236 526 211 b 400 172 482 175 429 172 z "},"В":{"ha":825,"x_min":0,"x_max":0,"o":"m 101 926 l 101 0 l 450 0 b 694 79 507 0 618 6 b 767 267 731 115 767 174 b 707 432 767 349 738 401 b 579 494 674 465 624 488 b 657 563 601 504 633 524 b 688 681 682 603 688 644 b 621 856 688 721 681 799 b 385 926 549 924 435 926 z m 313 760 l 346 760 b 457 736 385 760 426 760 b 493 658 474 724 493 699 b 456 576 493 618 475 590 b 347 550 425 554 376 550 l 313 550 z m 313 392 l 371 392 b 524 357 414 392 486 392 b 553 282 538 344 553 319 b 522 204 553 249 542 222 b 364 167 483 168 418 167 l 313 167 z "},"Г":{"ha":638,"x_min":0,"x_max":0,"o":"m 621 926 l 101 926 l 101 0 l 315 0 l 315 746 l 621 746 z "},"Д":{"ha":974,"x_min":0,"x_max":0,"o":"m 192 926 l 192 535 b 113 229 192 433 190 301 b 8 178 104 221 68 189 l 8 -208 l 200 -208 l 200 0 l 768 0 l 768 -208 l 960 -208 l 960 178 l 856 178 l 856 926 z m 397 749 l 644 749 l 644 178 l 296 178 b 379 325 346 229 368 285 b 397 542 394 382 397 478 z "},"Е":{"ha":697,"x_min":0,"x_max":0,"o":"m 625 926 l 101 926 l 101 0 l 625 0 l 625 181 l 315 181 l 315 386 l 610 386 l 610 567 l 315 567 l 315 746 l 625 746 z "},"Ж":{"ha":1307,"x_min":0,"x_max":0,"o":"m 546 0 l 760 0 l 760 415 l 1040 0 l 1299 0 l 950 481 l 1278 926 l 1033 926 l 760 529 l 760 926 l 546 926 l 546 529 l 272 926 l 28 926 l 356 481 l 8 0 l 267 0 l 546 415 z "},"З":{"ha":819,"x_min":0,"x_max":0,"o":"m 178 679 b 261 735 201 700 233 722 b 365 758 290 749 326 758 b 463 733 400 758 439 751 b 500 661 485 717 500 692 b 474 599 500 632 488 611 b 321 563 442 569 388 563 l 289 563 l 289 390 l 324 390 b 500 356 429 390 475 375 b 533 282 517 342 533 317 b 489 196 533 243 514 214 b 382 168 463 178 422 168 b 256 197 340 168 296 176 b 161 274 221 215 186 244 l 42 117 b 185 19 85 76 136 40 b 407 -21 256 -12 331 -21 b 686 75 493 -21 604 -8 b 761 261 731 121 761 185 b 699 426 761 346 725 400 b 585 492 667 460 624 481 b 674 560 613 503 646 521 b 710 681 700 597 710 636 b 639 863 710 749 692 811 b 390 947 568 932 472 947 b 210 914 317 947 268 936 b 83 843 164 897 126 878 z "},"И":{"ha":1035,"x_min":0,"x_max":0,"o":"m 101 926 l 101 -11 l 290 -11 l 719 607 l 719 0 l 933 0 l 933 938 l 744 938 l 315 321 l 315 926 z "},"Й":{"ha":1035,"x_min":0,"x_max":0,"o":"m 101 926 l 101 -11 l 290 -11 l 719 607 l 719 0 l 933 0 l 933 938 l 744 938 l 315 321 l 315 926 z m 646 1232 b 601 1165 639 1210 622 1182 b 519 1142 574 1144 540 1142 b 435 1165 488 1142 456 1150 b 389 1232 417 1179 399 1207 l 242 1169 b 347 1044 265 1114 306 1071 b 517 1006 403 1011 463 1006 b 688 1044 572 1006 632 1011 b 793 1169 729 1071 769 1114 z "},"К":{"ha":931,"x_min":0,"x_max":0,"o":"m 315 926 l 101 926 l 101 0 l 315 0 l 315 411 l 647 0 l 922 0 l 518 488 l 893 926 l 632 926 l 315 540 z "},"Л":{"ha":968,"x_min":0,"x_max":0,"o":"m 193 926 l 193 408 b 151 214 193 335 190 253 b 67 183 133 196 103 183 b 14 192 47 183 29 186 l 14 0 b 100 -11 40 -7 68 -11 b 308 63 206 -11 269 24 b 401 428 382 138 401 269 l 401 746 l 653 746 l 653 0 l 867 0 l 867 926 z "},"М":{"ha":1231,"x_min":0,"x_max":0,"o":"m 272 0 l 346 553 l 578 0 l 653 0 l 885 553 l 958 0 l 1172 0 l 1024 926 l 846 926 l 615 372 l 385 926 l 207 926 l 58 0 z "},"Н":{"ha":1000,"x_min":0,"x_max":0,"o":"m 315 926 l 101 926 l 101 0 l 315 0 l 315 393 l 685 393 l 685 0 l 899 0 l 899 926 l 685 926 l 685 574 l 315 574 z "},"О":{"ha":1125,"x_min":0,"x_max":0,"o":"m 564 947 b 201 811 379 947 264 874 b 58 460 118 728 58 593 b 203 115 58 324 114 199 b 564 -21 272 49 390 -21 b 922 115 719 -21 836 32 b 1067 463 1022 213 1067 339 b 922 813 1067 606 1010 728 b 564 947 829 903 708 947 z m 563 750 b 767 671 647 750 721 715 b 847 463 808 629 847 558 b 767 256 847 356 803 290 b 561 176 722 211 656 176 b 363 253 489 176 422 196 b 278 461 306 308 278 376 b 360 671 278 564 319 632 b 563 750 410 721 482 750 z "},"П":{"ha":982,"x_min":0,"x_max":0,"o":"m 101 926 l 101 0 l 315 0 l 315 746 l 667 746 l 667 0 l 881 0 l 881 926 z "},"Р":{"ha":794,"x_min":0,"x_max":0,"o":"m 101 926 l 101 0 l 315 0 l 315 325 l 446 325 b 682 407 511 325 608 332 b 761 625 717 443 761 508 b 671 850 761 689 750 781 b 428 926 597 915 508 926 z m 315 751 l 388 751 b 507 717 429 751 475 747 b 542 626 528 697 542 665 b 507 535 542 586 526 554 b 392 500 472 501 421 500 l 315 500 z "},"С":{"ha":840,"x_min":0,"x_max":0,"o":"m 771 275 b 558 179 689 194 614 179 b 358 257 444 179 378 238 b 278 461 317 297 278 365 b 365 675 278 550 314 625 b 554 747 414 722 476 747 b 771 649 653 747 724 699 l 771 896 b 549 947 681 935 610 947 b 203 814 404 947 285 893 b 58 465 119 733 58 611 b 203 114 58 317 119 194 b 567 -21 281 38 396 -21 b 771 29 622 -21 689 -12 z "},"Т":{"ha":639,"x_min":0,"x_max":0,"o":"m 628 746 l 628 926 l 11 926 l 11 746 l 213 746 l 213 0 l 426 0 l 426 746 z "},"У":{"ha":864,"x_min":0,"x_max":0,"o":"m 6 926 l 336 267 l 201 0 l 432 0 l 856 926 l 625 926 l 439 499 l 244 926 z "},"Ф":{"ha":1183,"x_min":0,"x_max":0,"o":"m 485 0 l 699 0 l 699 129 l 710 129 b 1038 244 769 129 939 139 b 1125 499 1088 299 1125 385 b 1035 747 1125 619 1081 699 b 710 864 935 853 769 864 l 699 864 l 699 992 l 485 992 l 485 864 l 474 864 b 149 747 414 864 249 853 b 58 499 103 699 58 619 b 146 244 58 385 96 299 b 474 129 244 139 414 129 l 485 129 z m 493 692 l 493 301 l 485 301 b 322 356 438 301 369 308 b 272 496 297 381 272 422 b 322 638 272 571 300 615 b 485 692 369 685 438 692 z m 690 692 l 699 692 b 861 638 746 692 814 685 b 911 496 883 615 911 571 b 861 356 911 422 886 381 b 699 301 814 308 746 301 l 690 301 z "},"Х":{"ha":953,"x_min":0,"x_max":0,"o":"m 14 0 l 271 0 l 476 321 l 682 0 l 939 0 l 599 492 l 886 926 l 629 926 l 476 663 l 324 926 l 67 926 l 354 492 z "},"Ц":{"ha":1011,"x_min":0,"x_max":0,"o":"m 101 0 l 806 0 l 806 -208 l 997 -208 l 997 181 l 872 181 l 872 926 l 658 926 l 658 181 l 315 181 l 315 926 l 101 926 z "},"Ч":{"ha":897,"x_min":0,"x_max":0,"o":"m 582 0 l 796 0 l 796 926 l 582 926 l 582 553 b 456 542 538 544 501 542 b 321 572 393 542 349 550 b 281 685 279 606 281 657 l 281 926 l 67 926 l 67 642 b 138 438 67 572 74 499 b 425 356 213 367 342 356 b 582 369 482 356 533 361 z "},"Ш":{"ha":1369,"x_min":0,"x_max":0,"o":"m 101 0 l 1268 0 l 1268 926 l 1054 926 l 1054 181 l 792 181 l 792 926 l 578 926 l 578 181 l 315 181 l 315 926 l 101 926 z "},"Щ":{"ha":1407,"x_min":0,"x_max":0,"o":"m 1201 0 l 1201 -208 l 1393 -208 l 1393 181 l 1268 181 l 1268 926 l 1054 926 l 1054 181 l 792 181 l 792 926 l 578 926 l 578 181 l 315 181 l 315 926 l 101 926 l 101 0 z "},"Ъ":{"ha":917,"x_min":0,"x_max":0,"o":"m 204 0 l 542 0 b 806 78 619 0 729 6 b 881 283 868 139 881 221 b 803 488 881 346 868 426 b 549 565 729 557 628 565 l 418 565 l 418 926 l 11 926 l 11 746 l 204 746 z m 418 393 l 514 393 b 625 371 581 393 610 382 b 664 283 632 367 664 342 b 624 197 664 235 640 208 b 513 172 594 176 550 172 l 418 172 z "},"Ы":{"ha":1176,"x_min":0,"x_max":0,"o":"m 861 926 l 861 0 l 1075 0 l 1075 926 z m 101 0 l 436 0 b 700 78 514 0 624 6 b 775 282 764 139 775 221 b 697 488 775 343 764 425 b 443 565 624 557 522 565 l 315 565 l 315 926 l 101 926 z m 315 393 l 411 393 b 522 371 478 393 507 382 b 561 283 529 367 561 342 b 521 197 561 235 538 208 b 410 172 492 176 447 172 l 315 172 z "},"Ь":{"ha":814,"x_min":0,"x_max":0,"o":"m 101 0 l 439 0 b 703 78 517 0 626 6 b 778 282 767 139 778 221 b 700 488 778 343 767 425 b 446 565 626 557 525 565 l 315 565 l 315 926 l 101 926 z m 315 393 l 411 393 b 522 371 478 393 507 382 b 561 283 529 367 561 342 b 521 197 561 235 538 208 b 410 172 492 176 447 172 l 315 172 z "},"Э":{"ha":865,"x_min":0,"x_max":0,"o":"m 69 44 b 344 -21 131 8 210 -21 b 675 101 454 -21 572 -4 b 807 465 739 167 807 282 b 674 824 807 649 739 760 b 335 947 569 926 440 947 b 69 881 258 947 174 935 l 69 653 b 165 718 100 679 136 704 b 318 753 215 743 267 753 b 503 692 374 753 443 746 b 581 554 536 663 568 617 l 222 554 l 222 382 l 582 382 b 494 228 569 306 529 256 b 313 174 440 183 374 174 b 164 204 261 174 207 183 b 69 269 135 218 97 244 z "},"Ю":{"ha":1469,"x_min":0,"x_max":0,"o":"m 315 572 l 315 926 l 101 926 l 101 0 l 315 0 l 315 392 l 436 392 b 564 117 444 297 479 203 b 915 -21 654 25 767 -21 b 1271 114 1028 -21 1163 6 b 1411 469 1354 196 1411 321 b 1271 814 1411 639 1336 750 b 917 947 1174 910 1057 947 b 569 818 797 947 675 922 b 439 572 511 761 460 681 z m 919 750 b 1114 674 1015 750 1076 713 b 1192 467 1154 632 1192 564 b 1104 246 1192 360 1150 289 b 922 176 1061 206 1003 176 b 719 260 831 176 763 214 b 644 463 676 306 644 375 b 729 676 644 556 682 629 b 919 750 776 724 840 750 z "},"Я":{"ha":836,"x_min":0,"x_max":0,"o":"m 735 926 l 417 926 b 160 836 332 926 235 914 b 85 633 104 778 85 710 b 163 428 85 569 96 490 b 294 363 194 397 242 372 l 28 0 l 275 0 l 493 338 l 521 338 l 521 0 l 735 0 z m 521 501 l 471 501 b 340 536 438 501 379 501 b 304 625 324 551 304 579 b 344 718 304 675 329 704 b 471 751 383 750 439 751 l 521 751 z "},"а":{"ha":831,"x_min":0,"x_max":0,"o":"m 553 550 b 358 640 496 628 411 640 b 143 556 272 640 197 610 b 47 306 86 499 47 410 b 138 74 47 224 72 143 b 369 -21 206 1 281 -21 b 553 75 421 -21 499 -8 l 553 0 l 753 0 l 753 619 l 553 619 z m 408 468 b 519 425 444 468 489 454 b 565 311 549 397 565 356 b 517 194 565 258 543 219 b 413 151 490 168 453 151 b 294 200 365 151 322 171 b 253 311 276 219 253 256 b 299 424 253 367 278 403 b 408 468 325 450 365 468 z "},"б":{"ha":835,"x_min":0,"x_max":0,"o":"m 586 1014 b 571 975 586 1001 582 988 b 440 926 547 949 503 940 l 403 918 b 181 808 335 903 250 882 b 58 390 79 700 58 513 b 168 71 58 303 69 168 b 424 -21 243 -1 333 -21 b 688 75 507 -21 604 -7 b 788 324 753 139 788 228 b 696 551 788 419 749 500 b 456 639 642 604 560 639 b 243 554 333 639 274 588 l 236 554 b 300 685 242 610 268 656 b 468 757 344 725 414 742 l 538 776 b 688 851 611 797 658 822 b 761 1014 729 892 756 957 z m 422 469 b 536 424 456 469 499 461 b 582 314 564 394 582 356 b 529 192 582 265 561 221 b 425 151 503 168 468 151 b 310 196 372 151 333 172 b 264 308 283 222 264 263 b 311 425 264 353 282 396 b 422 469 329 443 365 469 z "},"в":{"ha":697,"x_min":0,"x_max":0,"o":"m 78 619 l 78 0 l 456 0 b 610 56 533 0 582 28 b 656 175 636 82 656 121 b 615 281 656 210 647 249 b 525 325 593 301 560 318 b 576 358 549 333 565 346 b 614 458 606 388 614 421 b 564 579 614 514 594 553 b 410 619 518 618 453 619 z m 278 372 l 278 486 l 357 486 b 413 474 374 486 400 483 b 431 431 421 467 431 453 b 410 385 431 411 425 396 b 360 372 393 374 371 372 z m 278 133 l 278 258 l 360 258 b 428 242 378 258 408 258 b 447 199 438 233 447 219 b 428 150 447 179 440 161 b 368 133 410 133 385 133 z "},"г":{"ha":508,"x_min":0,"x_max":0,"o":"m 78 0 l 278 0 l 278 456 l 494 456 l 494 619 l 78 619 z "},"д":{"ha":796,"x_min":0,"x_max":0,"o":"m 144 619 l 144 379 b 90 192 144 310 142 239 b 6 153 72 175 44 157 l 6 -175 l 183 -175 l 183 0 l 607 0 l 607 -175 l 785 -175 l 785 153 l 693 153 l 693 619 z m 493 153 l 258 153 b 314 235 288 179 306 208 b 328 349 319 253 328 286 l 328 467 l 493 467 z "},"е":{"ha":760,"x_min":0,"x_max":0,"o":"m 257 394 b 292 461 263 422 276 444 b 393 501 311 481 342 501 b 488 467 433 501 465 488 b 528 394 517 439 526 400 z m 713 296 b 625 547 713 372 699 469 b 379 640 549 628 449 640 b 142 551 310 640 217 626 b 47 307 79 488 47 396 b 140 68 47 204 86 122 b 388 -21 213 -4 294 -21 b 583 25 457 -21 524 -11 b 703 181 619 47 675 93 l 514 200 b 471 149 497 165 474 150 b 390 131 450 136 419 131 b 288 169 360 131 318 136 b 250 275 263 197 250 242 l 713 275 z "},"ж":{"ha":1058,"x_min":0,"x_max":0,"o":"m 432 619 l 432 371 l 256 619 l 28 619 l 253 329 l 3 0 l 247 0 l 432 268 l 432 0 l 626 0 l 626 268 l 811 0 l 1056 0 l 806 329 l 1031 619 l 803 619 l 626 371 l 626 619 z "},"з":{"ha":643,"x_min":0,"x_max":0,"o":"m 133 433 b 200 474 153 450 174 463 b 282 490 226 485 250 490 b 344 479 315 490 335 483 b 375 439 369 468 375 450 b 346 397 375 426 369 408 b 271 386 326 389 289 386 l 214 386 l 214 250 l 289 250 b 361 239 311 250 344 246 b 390 197 379 231 390 218 b 363 150 390 183 386 164 b 290 135 343 139 313 135 b 194 154 258 135 221 143 b 118 204 169 165 140 185 l 33 72 b 144 7 50 58 90 28 b 314 -21 200 -14 258 -21 b 542 46 417 -21 489 -6 b 596 175 582 86 596 132 b 554 278 596 215 585 249 b 471 322 546 286 517 311 b 524 357 490 329 508 342 b 561 463 554 389 561 424 b 515 576 561 504 550 543 b 306 640 453 638 339 640 b 160 618 258 640 207 635 b 57 567 126 606 83 583 z "},"и":{"ha":806,"x_min":0,"x_max":0,"o":"m 78 619 l 78 0 l 264 0 l 528 360 l 528 0 l 728 0 l 728 619 l 542 619 l 278 265 l 278 619 z "},"й":{"ha":806,"x_min":0,"x_max":0,"o":"m 78 619 l 78 0 l 264 0 l 528 360 l 528 0 l 728 0 l 728 619 l 542 619 l 278 265 l 278 619 z m 515 924 b 479 860 510 896 496 874 b 403 835 461 844 438 835 b 326 860 368 835 344 844 b 290 924 310 874 296 896 l 151 869 b 240 751 168 819 201 776 b 403 713 293 717 357 713 b 565 751 449 713 513 717 b 654 869 604 776 638 819 z "},"к":{"ha":750,"x_min":0,"x_max":0,"o":"m 78 0 l 278 0 l 278 275 l 489 0 l 747 0 l 464 332 l 729 619 l 481 619 l 278 374 l 278 619 l 78 619 z "},"л":{"ha":761,"x_min":0,"x_max":0,"o":"m 683 619 l 132 619 l 132 276 b 107 178 132 207 111 183 b 11 160 82 150 36 153 l 11 1 b 89 -8 38 -6 60 -8 b 260 57 143 -8 207 -1 b 321 268 290 92 321 150 l 321 458 l 483 458 l 483 0 l 683 0 z "},"м":{"ha":922,"x_min":0,"x_max":0,"o":"m 33 0 l 225 0 l 275 329 l 428 0 l 494 0 l 647 329 l 697 0 l 889 0 l 781 619 l 622 619 l 461 275 l 300 619 l 142 619 z "},"н":{"ha":779,"x_min":0,"x_max":0,"o":"m 78 0 l 278 0 l 278 243 l 501 243 l 501 0 l 701 0 l 701 619 l 501 619 l 501 404 l 278 404 l 278 619 l 78 619 z "},"о":{"ha":822,"x_min":0,"x_max":0,"o":"m 775 310 b 682 540 775 389 744 478 b 411 640 626 596 532 640 b 140 540 290 640 196 596 b 47 310 78 478 47 389 b 140 79 47 231 78 142 b 411 -21 196 24 290 -21 b 682 79 532 -21 626 24 b 775 310 744 142 775 231 z m 411 471 b 524 426 457 471 494 456 b 569 310 553 397 569 360 b 524 193 569 260 553 222 b 413 149 494 164 457 149 b 299 193 360 149 324 168 b 253 310 275 217 253 253 b 299 426 253 360 269 397 b 411 471 328 456 365 471 z "},"п":{"ha":771,"x_min":0,"x_max":0,"o":"m 78 0 l 278 0 l 278 458 l 493 458 l 493 0 l 693 0 l 693 619 l 78 619 z "},"р":{"ha":831,"x_min":0,"x_max":0,"o":"m 278 71 b 475 -21 299 42 351 -21 b 685 63 557 -21 624 1 b 783 311 746 124 783 204 b 690 553 783 413 746 497 b 471 640 651 592 582 640 b 278 546 424 640 343 631 l 278 619 l 78 619 l 78 -318 l 278 -318 z m 422 468 b 531 425 463 468 501 453 b 578 313 558 399 578 358 b 529 194 578 272 561 225 b 422 151 500 167 460 151 b 308 199 379 151 338 169 b 264 308 279 229 264 269 b 311 422 264 346 279 390 b 422 468 331 442 367 468 z "},"с":{"ha":599,"x_min":0,"x_max":0,"o":"m 543 606 b 386 640 490 631 440 640 b 150 553 301 640 219 618 b 47 308 92 497 47 414 b 144 72 47 196 97 118 b 385 -21 201 17 281 -21 b 543 17 440 -21 490 -12 l 543 197 b 415 149 497 158 450 149 b 294 199 371 149 325 165 b 253 310 269 225 253 264 b 299 426 253 360 272 400 b 413 471 313 440 350 471 b 543 424 444 471 494 464 z "},"т":{"ha":556,"x_min":0,"x_max":0,"o":"m 544 458 l 544 619 l 11 619 l 11 458 l 178 458 l 178 0 l 378 0 l 378 458 z "},"у":{"ha":813,"x_min":0,"x_max":0,"o":"m 81 -318 l 306 -318 l 804 619 l 579 619 l 408 283 l 233 619 l 3 619 l 299 79 z "},"ф":{"ha":997,"x_min":0,"x_max":0,"o":"m 599 -318 l 599 -10 l 607 -10 b 861 83 747 -10 825 49 b 950 313 906 126 950 200 b 843 554 950 435 894 513 b 608 629 782 603 690 629 l 599 629 l 599 926 l 399 926 l 399 629 l 389 629 b 154 554 307 629 215 603 b 47 313 103 513 47 435 b 136 83 47 200 92 126 b 390 -10 172 49 250 -10 l 399 -10 l 399 -318 z m 589 468 b 714 425 636 471 685 454 b 754 313 738 401 754 361 b 714 199 754 264 738 224 b 589 151 688 169 640 150 z m 408 151 b 283 199 357 150 310 169 b 243 313 260 224 243 264 b 283 425 243 361 260 401 b 408 468 313 454 361 471 z "},"х":{"ha":861,"x_min":0,"x_max":0,"o":"m 3 0 l 261 0 l 431 200 l 600 0 l 858 0 l 556 338 l 801 619 l 546 619 l 431 476 l 315 619 l 60 619 l 306 338 z "},"ц":{"ha":799,"x_min":0,"x_max":0,"o":"m 78 0 l 613 0 l 613 -175 l 790 -175 l 790 161 l 689 161 l 689 619 l 489 619 l 489 161 l 278 161 l 278 619 l 78 619 z "},"ч":{"ha":719,"x_min":0,"x_max":0,"o":"m 442 0 l 642 0 l 642 619 l 442 619 l 442 364 b 358 351 414 354 389 351 b 278 372 335 351 299 354 b 253 440 254 393 253 424 l 253 619 l 56 619 l 56 413 b 113 253 56 371 58 304 b 317 193 167 201 250 193 b 442 208 361 193 397 197 z "},"ш":{"ha":1117,"x_min":0,"x_max":0,"o":"m 78 0 l 1039 0 l 1039 619 l 839 619 l 839 161 l 658 161 l 658 619 l 458 619 l 458 161 l 278 161 l 278 619 l 78 619 z "},"щ":{"ha":1149,"x_min":0,"x_max":0,"o":"m 963 0 l 963 -175 l 1140 -175 l 1140 161 l 1039 161 l 1039 619 l 839 619 l 839 161 l 658 161 l 658 619 l 458 619 l 458 161 l 278 161 l 278 619 l 78 619 l 78 0 z "},"ъ":{"ha":767,"x_min":0,"x_max":0,"o":"m 368 407 l 368 619 l 8 619 l 8 458 l 168 458 l 168 0 l 504 0 b 678 54 558 0 626 4 b 733 208 726 101 733 164 b 683 349 733 246 728 304 b 513 407 657 375 606 407 z m 368 142 l 368 265 l 451 265 b 511 250 464 265 493 264 b 531 206 518 244 531 231 b 511 158 531 188 524 169 b 450 142 493 142 465 142 z "},"ы":{"ha":976,"x_min":0,"x_max":0,"o":"m 701 619 l 701 0 l 899 0 l 899 619 z m 278 407 l 278 619 l 78 619 l 78 0 l 408 0 b 579 54 460 0 528 4 b 635 207 628 101 635 164 b 583 349 635 243 629 303 b 415 407 557 375 504 407 z m 278 142 l 278 265 l 361 265 b 421 250 374 265 403 264 b 440 206 428 244 440 231 b 421 158 440 188 433 169 b 360 142 403 142 375 142 z "},"ь":{"ha":676,"x_min":0,"x_max":0,"o":"m 278 407 l 278 619 l 78 619 l 78 0 l 417 0 b 588 54 468 0 536 4 b 643 208 636 101 643 164 b 593 349 643 246 638 304 b 425 407 576 365 526 407 z m 278 142 l 278 265 l 361 265 b 421 250 374 265 403 264 b 440 206 428 244 440 231 b 421 158 440 188 433 169 b 360 142 403 142 375 142 z "},"э":{"ha":639,"x_min":0,"x_max":0,"o":"m 53 17 b 246 -21 132 -17 189 -21 b 497 65 321 -21 417 -15 b 592 317 549 117 592 201 b 503 551 592 433 546 507 b 254 640 426 628 332 640 b 53 597 199 640 133 633 l 53 415 b 221 479 103 458 163 479 b 322 456 256 479 294 472 b 383 381 347 440 371 415 l 147 381 l 147 244 l 383 244 b 328 165 372 204 347 178 b 222 140 296 144 254 140 b 53 203 171 140 110 151 z "},"ю":{"ha":1096,"x_min":0,"x_max":0,"o":"m 278 396 l 278 619 l 78 619 l 78 0 l 278 0 l 278 235 l 353 235 b 440 65 369 138 422 82 b 696 -21 515 -7 610 -21 b 956 72 775 -21 874 -10 b 1049 311 1015 132 1049 218 b 954 542 1049 408 1008 489 b 689 640 900 594 811 640 b 431 540 565 640 481 592 b 356 396 378 486 361 426 z m 689 471 b 799 428 738 471 775 451 b 843 313 821 406 843 369 b 794 189 843 267 831 224 b 689 149 765 161 732 149 b 576 196 647 149 608 163 b 533 308 549 225 533 263 b 582 432 533 361 554 406 b 689 471 604 453 639 471 z "},"я":{"ha":683,"x_min":0,"x_max":0,"o":"m 25 0 l 242 0 l 386 207 l 406 207 l 406 0 l 606 0 l 606 619 l 310 619 b 106 556 244 619 164 613 b 49 403 61 511 49 456 b 96 278 49 357 57 315 b 203 224 124 250 163 231 z m 406 338 l 339 338 b 268 357 328 338 289 339 b 249 406 261 364 249 379 b 272 463 249 432 258 451 b 335 478 290 476 318 478 l 406 478 z "},"ё":{"ha":760,"x_min":0,"x_max":0,"o":"m 713 296 b 625 547 713 372 699 469 b 379 640 549 628 449 640 b 142 551 310 640 217 626 b 47 307 79 488 47 396 b 140 68 47 204 86 122 b 388 -21 213 -4 294 -21 b 583 25 457 -21 524 -11 b 703 181 619 47 675 93 l 514 200 b 471 149 497 165 474 150 b 390 131 450 136 419 131 b 288 169 360 131 318 136 b 250 275 263 197 250 242 l 713 275 z m 257 394 b 292 461 263 422 276 444 b 393 501 311 481 342 501 b 488 467 433 501 465 488 b 528 394 517 439 526 400 z m 122 833 b 231 725 122 772 169 725 b 339 833 292 725 339 772 b 231 942 339 894 292 942 b 122 833 169 942 122 894 z m 419 833 b 528 725 419 772 467 725 b 636 833 589 725 636 772 b 528 942 636 894 589 942 b 419 833 467 942 419 894 z "},"ђ":{"ha":810,"x_min":0,"x_max":0,"o":"m 97 0 l 297 0 l 297 254 b 339 383 297 285 299 344 b 418 414 350 394 375 414 b 496 386 447 414 478 404 b 529 263 528 356 529 306 l 529 -31 b 506 -132 529 -65 529 -108 b 443 -154 496 -142 478 -154 b 392 -146 419 -154 401 -150 l 392 -304 b 503 -318 422 -311 460 -318 b 678 -260 606 -318 654 -285 b 729 -69 725 -210 729 -131 l 729 338 b 668 518 729 385 725 461 b 493 581 614 574 542 581 b 372 554 449 581 414 576 b 297 490 349 542 322 521 l 297 697 l 564 697 l 564 828 l 297 828 l 297 1013 l 97 1013 l 97 828 l -14 828 l -14 697 l 97 697 z "},"ѓ":{"ha":508,"x_min":0,"x_max":0,"o":"m 78 0 l 278 0 l 278 456 l 494 456 l 494 619 l 78 619 z m 354 993 l 183 782 l 274 715 l 485 903 z "},"є":{"ha":639,"x_min":0,"x_max":0,"o":"m 586 203 b 417 140 529 151 468 140 b 311 165 385 140 343 144 b 256 244 292 178 267 204 l 492 244 l 492 381 l 256 381 b 317 456 268 415 292 440 b 418 479 344 472 383 479 b 586 415 476 479 536 458 l 586 597 b 385 640 506 633 440 640 b 136 551 307 640 213 628 b 47 317 93 507 47 433 b 142 65 47 201 90 117 b 393 -21 222 -15 318 -21 b 586 17 450 -21 507 -17 z "},"ѕ":{"ha":603,"x_min":0,"x_max":0,"o":"m 536 588 b 331 640 486 617 422 640 b 143 578 274 640 199 629 b 83 435 107 544 83 494 b 128 322 83 388 99 353 b 228 265 154 296 192 276 l 278 250 b 339 228 307 242 325 236 b 361 192 357 217 361 203 b 340 151 361 176 353 161 b 278 138 322 138 290 138 b 194 157 251 138 222 143 b 126 203 174 167 146 186 l 42 68 b 296 -21 122 -3 213 -21 b 497 50 361 -21 436 -11 b 561 213 525 78 561 131 b 513 331 561 260 549 297 b 410 385 481 360 444 374 l 357 401 b 297 422 332 410 311 414 b 278 450 288 428 278 436 b 290 478 278 460 283 471 b 347 496 303 490 326 496 b 457 461 386 496 426 479 z "},"і":{"ha":383,"x_min":0,"x_max":0,"o":"m 92 619 l 92 0 l 292 0 l 292 619 z m 75 883 b 192 767 75 818 126 767 b 308 883 257 767 308 818 b 192 1000 308 949 257 1000 b 75 883 126 1000 75 949 z "},"ї":{"ha":472,"x_min":0,"x_max":0,"o":"m 135 619 l 135 0 l 335 0 l 335 619 z m 353 1000 b 261 890 308 1000 261 963 b 353 781 261 818 308 781 b 444 890 397 781 444 818 b 353 1000 444 963 397 1000 z m 119 1000 b 28 890 75 1000 28 963 b 119 781 28 818 75 781 b 211 890 164 781 211 818 b 119 1000 211 963 164 1000 z "},"ј":{"ha":383,"x_min":0,"x_max":0,"o":"m 92 619 l 92 -318 l 292 -318 l 292 619 z m 75 883 b 192 767 75 818 126 767 b 308 883 257 767 308 818 b 192 1000 308 949 257 1000 b 75 883 126 1000 75 949 z "},"љ":{"ha":1082,"x_min":0,"x_max":0,"o":"m 683 407 l 683 619 l 132 619 l 132 276 b 107 178 132 207 111 183 b 11 160 82 150 36 153 l 11 1 b 89 -8 38 -6 60 -8 b 260 57 143 -8 207 -1 b 321 268 290 92 321 150 l 321 458 l 483 458 l 483 0 l 822 0 b 993 54 874 0 942 4 b 1049 208 1042 101 1049 164 b 999 349 1049 246 1043 304 b 831 407 982 365 932 407 z m 683 142 l 683 265 l 767 265 b 826 250 779 265 808 264 b 846 206 833 244 846 231 b 826 158 846 188 839 169 b 765 142 808 142 781 142 z "},"њ":{"ha":1100,"x_min":0,"x_max":0,"o":"m 701 407 l 701 619 l 501 619 l 501 407 l 278 407 l 278 619 l 78 619 l 78 0 l 278 0 l 278 265 l 501 265 l 501 0 l 840 0 b 1011 54 892 0 960 4 b 1067 208 1060 101 1067 164 b 1017 349 1067 246 1061 304 b 849 407 1000 365 950 407 z m 701 142 l 701 265 l 785 265 b 844 250 797 265 826 264 b 864 206 851 244 864 231 b 844 158 864 188 857 169 b 783 142 826 142 799 142 z "},"ћ":{"ha":807,"x_min":0,"x_max":0,"o":"m 97 0 l 297 0 l 297 254 b 339 383 297 285 299 344 b 418 414 350 394 375 414 b 496 386 447 414 478 404 b 529 263 528 356 529 306 l 529 0 l 729 0 l 729 338 b 668 518 729 385 725 461 b 493 581 614 574 542 581 b 372 554 449 581 414 576 b 297 490 349 542 322 521 l 297 697 l 564 697 l 564 828 l 297 828 l 297 1013 l 97 1013 l 97 828 l -14 828 l -14 697 l 97 697 z "},"ќ":{"ha":750,"x_min":0,"x_max":0,"o":"m 78 0 l 278 0 l 278 275 l 489 0 l 747 0 l 464 332 l 729 619 l 481 619 l 278 374 l 278 619 l 78 619 z m 460 993 l 289 782 l 379 715 l 590 903 z "},"ў":{"ha":813,"x_min":0,"x_max":0,"o":"m 81 -318 l 306 -318 l 804 619 l 579 619 l 408 283 l 233 619 l 3 619 l 299 79 z m 536 924 b 500 860 531 896 517 874 b 424 835 482 844 458 835 b 347 860 389 835 365 844 b 311 924 331 874 317 896 l 172 869 b 261 751 189 819 222 776 b 424 713 314 717 378 713 b 586 751 469 713 533 717 b 675 869 625 776 658 819 z "},"џ":{"ha":767,"x_min":0,"x_max":0,"o":"m 78 0 l 294 0 l 294 -189 l 472 -189 l 472 0 l 689 0 l 689 619 l 489 619 l 489 161 l 278 161 l 278 619 l 78 619 z "},"Ѣ":{"ha":890,"x_min":0,"x_max":0,"o":"m 178 0 l 515 0 b 779 78 593 0 703 6 b 854 282 843 139 854 221 b 776 488 854 343 843 425 b 522 565 703 557 601 565 l 392 565 l 392 668 l 622 668 l 622 835 l 392 835 l 392 992 l 178 992 l 178 835 l 11 835 l 11 668 l 178 668 z m 392 393 l 488 393 b 599 371 554 393 583 382 b 638 283 606 367 638 342 b 597 197 638 235 614 208 b 486 172 568 176 524 172 l 392 172 z "},"ѣ":{"ha":740,"x_min":0,"x_max":0,"o":"m 342 489 l 556 489 l 556 619 l 342 619 l 342 926 l 142 926 l 142 619 l 8 619 l 8 489 l 142 489 l 142 0 l 481 0 b 651 54 532 0 600 4 b 707 200 700 101 707 165 b 657 340 707 236 701 296 b 489 399 640 357 590 399 l 342 399 z m 342 142 l 342 265 l 425 265 b 485 250 438 265 467 264 b 504 206 492 244 504 231 b 485 158 504 188 497 169 b 424 142 467 142 439 142 z "},"Ѳ":{"ha":1125,"x_min":0,"x_max":0,"o":"m 564 947 b 201 811 379 947 264 874 b 58 460 118 728 58 593 b 203 115 58 324 114 199 b 564 -21 272 49 390 -21 b 922 115 719 -21 836 32 b 1067 463 1022 213 1067 339 b 922 813 1067 606 1010 728 b 564 947 829 903 708 947 z m 292 554 b 382 690 315 631 361 674 b 561 750 439 736 504 750 b 738 699 643 750 700 726 b 833 554 772 674 815 628 z m 835 374 b 743 229 817 296 772 251 b 564 176 683 183 615 176 b 381 232 483 176 421 200 b 289 374 335 267 303 324 z "},"ѳ":{"ha":822,"x_min":0,"x_max":0,"o":"m 775 310 b 682 540 775 389 744 478 b 411 640 626 596 532 640 b 140 540 290 640 196 596 b 47 310 78 478 47 389 b 140 79 47 231 78 142 b 411 -21 196 24 290 -21 b 682 79 532 -21 626 24 b 775 310 744 142 775 231 z m 263 369 b 301 439 269 393 283 421 b 411 479 319 457 351 479 b 510 449 440 479 478 474 b 560 369 535 428 551 397 z m 563 261 b 511 172 556 231 538 194 b 411 140 486 151 451 140 b 306 176 358 140 325 158 b 260 261 271 208 261 254 z "},"Ѵ":{"ha":942,"x_min":0,"x_max":0,"o":"m 6 926 l 399 0 l 543 0 l 936 926 l 706 926 l 471 333 l 236 926 z "},"ѵ":{"ha":758,"x_min":0,"x_max":0,"o":"m 3 619 l 317 0 l 442 0 l 756 619 l 536 619 l 379 288 l 222 619 z "},"Ґ":{"ha":669,"x_min":0,"x_max":0,"o":"m 101 926 l 101 0 l 315 0 l 315 746 l 649 746 l 649 747 l 649 1135 l 457 1135 l 457 926 z "},"ґ":{"ha":571,"x_min":0,"x_max":0,"o":"m 78 0 l 278 0 l 278 456 l 550 456 l 550 794 l 372 794 l 372 619 l 78 619 z "},"Ғ":{"ha":697,"x_min":0,"x_max":0,"o":"m 656 926 l 136 926 l 136 567 l 0 567 l 0 394 l 136 394 l 136 0 l 350 0 l 350 394 l 575 394 l 575 567 l 350 567 l 350 746 l 656 746 z "},"ғ":{"ha":539,"x_min":0,"x_max":0,"o":"m 108 0 l 308 0 l 308 197 l 457 197 l 457 331 l 308 331 l 308 456 l 525 456 l 525 619 l 108 619 l 108 331 l 7 331 l 7 197 l 108 197 z "},"Ҕ":{"ha":849,"x_min":0,"x_max":0,"o":"m 649 926 l 101 926 l 101 0 l 315 0 l 315 364 b 454 396 328 369 388 396 b 542 379 456 396 511 396 b 593 275 583 357 593 311 b 557 183 593 247 589 208 b 479 161 532 164 500 161 b 404 169 454 161 429 164 l 404 0 b 483 -8 429 -4 457 -8 b 700 43 554 -8 644 7 b 813 282 753 78 813 149 b 678 533 813 374 788 475 b 478 576 597 576 494 576 b 315 544 438 576 379 569 l 315 746 l 649 746 z "},"ҕ":{"ha":672,"x_min":0,"x_max":0,"o":"m 78 0 l 278 0 l 278 178 l 285 178 b 390 144 310 178 356 176 b 431 36 411 125 431 90 b 383 -90 431 -21 413 -61 b 290 -133 367 -106 336 -129 l 290 -289 b 533 -194 371 -285 469 -254 b 631 50 579 -151 631 -75 b 557 247 631 104 621 182 b 297 331 489 318 399 331 l 278 331 l 278 456 l 494 456 l 494 619 l 78 619 z "},"Җ":{"ha":1308,"x_min":0,"x_max":0,"o":"m 546 0 l 760 0 l 760 415 l 1040 0 l 1103 0 l 1103 -208 l 1294 -208 l 1294 181 l 1169 181 l 950 481 l 1278 926 l 1033 926 l 760 529 l 760 926 l 546 926 l 546 529 l 272 926 l 28 926 l 356 481 l 8 0 l 267 0 l 546 415 z "},"җ":{"ha":1065,"x_min":0,"x_max":0,"o":"m 432 619 l 432 371 l 256 619 l 28 619 l 253 329 l 3 0 l 247 0 l 432 268 l 432 0 l 626 0 l 626 268 l 811 0 l 860 0 l 860 -175 l 1038 -175 l 1038 161 l 928 161 l 806 329 l 1031 619 l 803 619 l 626 371 l 626 619 z "},"Ҙ":{"ha":819,"x_min":0,"x_max":0,"o":"m 178 679 b 261 735 201 700 233 722 b 365 758 290 749 326 758 b 463 733 400 758 439 751 b 500 661 485 717 500 692 b 474 599 500 632 488 611 b 321 563 442 569 388 563 l 289 563 l 289 390 l 324 390 b 500 356 429 390 475 375 b 533 282 517 342 533 317 b 489 196 533 243 514 214 b 382 168 463 178 422 168 b 256 197 340 168 296 176 b 161 274 221 215 186 244 l 42 117 b 310 -17 150 15 251 -10 l 310 -231 l 501 -231 l 501 -14 b 686 75 544 -10 619 4 b 761 264 747 139 761 210 b 699 426 761 346 726 399 b 585 492 667 460 624 481 b 674 560 613 503 646 521 b 710 681 700 597 710 636 b 639 863 710 749 692 811 b 390 947 568 932 472 947 b 210 914 317 947 268 936 b 83 843 164 897 126 878 z "},"ҙ":{"ha":643,"x_min":0,"x_max":0,"o":"m 133 433 b 200 474 153 450 174 463 b 282 490 226 485 250 490 b 344 479 315 490 335 483 b 375 439 369 468 375 450 b 346 397 375 426 369 408 b 271 386 326 389 289 386 l 214 386 l 214 250 l 289 250 b 361 239 311 250 344 246 b 390 197 379 231 390 218 b 363 150 390 183 386 164 b 290 135 343 139 313 135 b 194 154 258 135 221 143 b 118 204 169 165 140 185 l 33 72 b 232 -15 115 3 193 -11 l 232 -189 l 410 -189 l 410 -14 b 542 46 451 -11 499 1 b 596 176 583 88 596 135 b 554 278 596 219 581 251 b 471 322 532 300 501 315 b 524 357 482 326 504 336 b 561 456 551 386 561 418 b 499 589 561 522 531 564 b 306 640 444 632 364 640 b 160 618 257 640 207 635 b 57 567 126 606 83 583 z "},"Қ":{"ha":908,"x_min":0,"x_max":0,"o":"m 315 926 l 101 926 l 101 0 l 315 0 l 315 411 l 647 0 l 703 0 l 703 -208 l 894 -208 l 894 181 l 769 181 l 518 488 l 893 926 l 632 926 l 315 540 z "},"қ":{"ha":732,"x_min":0,"x_max":0,"o":"m 78 0 l 278 0 l 278 275 l 489 0 l 542 0 l 542 -175 l 719 -175 l 719 161 l 610 161 l 464 332 l 729 619 l 481 619 l 278 374 l 278 619 l 78 619 z "},"Ҝ":{"ha":1071,"x_min":0,"x_max":0,"o":"m 101 926 l 101 0 l 315 0 l 315 415 l 397 415 l 397 200 l 542 200 l 542 415 l 807 0 l 1063 0 l 726 493 l 1044 926 l 803 926 l 542 557 l 542 765 l 397 765 l 397 557 l 315 557 l 315 926 z "},"ҝ":{"ha":853,"x_min":0,"x_max":0,"o":"m 78 619 l 78 0 l 278 0 l 278 260 l 344 260 l 344 103 l 458 103 l 458 269 l 622 0 l 850 0 l 626 328 l 842 619 l 622 619 l 458 369 l 458 514 l 344 514 l 344 376 l 278 376 l 278 619 z "},"Ҡ":{"ha":1038,"x_min":0,"x_max":0,"o":"m 422 926 l 8 926 l 8 746 l 208 746 l 208 0 l 422 0 l 422 411 l 754 0 l 1029 0 l 625 488 l 1000 926 l 739 926 l 422 540 z "},"ҡ":{"ha":833,"x_min":0,"x_max":0,"o":"m 161 0 l 361 0 l 361 275 l 572 0 l 831 0 l 547 332 l 813 619 l 564 619 l 361 374 l 361 619 l 8 619 l 8 456 l 161 456 z "},"Ң":{"ha":1038,"x_min":0,"x_max":0,"o":"m 315 926 l 101 926 l 101 0 l 315 0 l 315 393 l 685 393 l 685 0 l 832 0 l 832 -208 l 1024 -208 l 1024 181 l 899 181 l 899 926 l 685 926 l 685 574 l 315 574 z "},"ң":{"ha":811,"x_min":0,"x_max":0,"o":"m 78 0 l 278 0 l 278 243 l 501 243 l 501 0 l 625 0 l 625 -175 l 803 -175 l 803 161 l 701 161 l 701 619 l 501 619 l 501 404 l 278 404 l 278 619 l 78 619 z "},"Ҥ":{"ha":1200,"x_min":0,"x_max":0,"o":"m 1183 926 l 685 926 l 685 574 l 315 574 l 315 926 l 101 926 l 101 0 l 315 0 l 315 393 l 685 393 l 685 0 l 899 0 l 899 746 l 1183 746 z "},"ҥ":{"ha":910,"x_min":0,"x_max":0,"o":"m 501 0 l 701 0 l 701 456 l 899 456 l 899 619 l 501 619 l 501 404 l 278 404 l 278 619 l 78 619 l 78 0 l 278 0 l 278 243 l 501 243 z "},"Ҫ":{"ha":840,"x_min":0,"x_max":0,"o":"m 771 275 b 558 179 689 194 614 179 b 358 257 444 179 378 238 b 278 461 317 297 278 365 b 365 675 278 550 314 625 b 554 747 414 722 476 747 b 771 649 653 747 724 699 l 771 896 b 549 947 681 935 610 947 b 203 814 404 947 285 893 b 58 465 119 733 58 611 b 203 114 58 317 119 194 b 463 -12 260 58 344 4 l 463 -231 l 654 -231 l 654 -12 b 771 29 694 -4 733 10 z "},"ҫ":{"ha":599,"x_min":0,"x_max":0,"o":"m 543 606 b 386 640 490 631 440 640 b 150 553 301 640 219 618 b 47 308 92 497 47 414 b 144 72 47 225 75 142 b 296 -10 192 25 242 1 l 296 -189 l 474 -189 l 474 -11 b 543 17 497 -7 519 1 l 543 197 b 415 149 497 158 450 149 b 294 199 371 149 325 165 b 253 310 269 225 253 264 b 299 426 253 360 272 400 b 413 471 313 440 350 471 b 543 424 444 471 494 464 z "},"Ү":{"ha":878,"x_min":0,"x_max":0,"o":"m 332 0 l 546 0 l 546 432 l 878 926 l 625 926 l 439 639 l 253 926 l 0 926 l 332 432 z "},"ү":{"ha":722,"x_min":0,"x_max":0,"o":"m 3 619 l 261 69 l 261 -318 l 461 -318 l 461 71 l 719 619 l 508 619 l 361 276 l 214 619 z "},"Ұ":{"ha":878,"x_min":0,"x_max":0,"o":"m 332 0 l 546 0 l 546 249 l 794 249 l 794 415 l 546 415 l 546 432 l 878 926 l 625 926 l 439 639 l 253 926 l 0 926 l 332 432 l 332 415 l 83 415 l 83 249 l 332 249 z "},"ұ":{"ha":722,"x_min":0,"x_max":0,"o":"m 3 619 l 261 69 l 261 29 l 68 29 l 68 -110 l 261 -110 l 261 -318 l 461 -318 l 461 -110 l 656 -110 l 656 29 l 461 29 l 461 71 l 719 619 l 508 619 l 361 276 l 214 619 z "},"Ҳ":{"ha":950,"x_min":0,"x_max":0,"o":"m 14 0 l 271 0 l 476 321 l 682 0 l 744 0 l 744 -208 l 936 -208 l 936 181 l 811 181 l 599 492 l 886 926 l 629 926 l 476 663 l 324 926 l 67 926 l 354 492 z "},"ҳ":{"ha":826,"x_min":0,"x_max":0,"o":"m 3 0 l 261 0 l 431 200 l 594 0 l 646 0 l 646 -175 l 824 -175 l 824 161 l 714 161 l 556 338 l 801 619 l 546 619 l 431 476 l 315 619 l 60 619 l 306 338 z "},"Ҷ":{"ha":935,"x_min":0,"x_max":0,"o":"m 281 926 l 67 926 l 67 642 b 138 438 67 572 74 499 b 425 356 213 367 342 356 b 582 369 482 356 533 361 l 582 0 l 729 0 l 729 -208 l 921 -208 l 921 181 l 796 181 l 796 926 l 582 926 l 582 553 b 456 542 538 544 501 542 b 321 572 393 542 349 550 b 281 685 279 606 281 657 z "},"ҷ":{"ha":751,"x_min":0,"x_max":0,"o":"m 565 0 l 565 -175 l 743 -175 l 743 161 l 642 161 l 642 619 l 442 619 l 442 364 b 358 351 414 354 389 351 b 278 372 335 351 299 354 b 253 440 254 393 253 424 l 253 619 l 56 619 l 56 413 b 113 253 56 371 58 304 b 317 193 167 201 250 193 b 442 208 361 193 397 197 l 442 0 z "},"Ҹ":{"ha":974,"x_min":0,"x_max":0,"o":"m 658 0 l 872 0 l 872 926 l 658 926 l 658 543 b 551 535 622 536 586 533 l 551 765 l 407 765 l 407 536 b 313 569 368 533 332 549 b 281 685 282 601 281 656 l 281 926 l 67 926 l 67 649 b 136 453 67 588 74 515 b 407 367 213 376 336 365 l 407 174 l 551 174 l 551 369 b 658 381 586 369 622 374 z "},"ҹ":{"ha":796,"x_min":0,"x_max":0,"o":"m 518 0 l 718 0 l 718 619 l 518 619 l 518 357 b 446 347 494 351 469 347 l 446 507 l 332 507 l 332 347 b 275 365 314 347 290 353 b 250 433 251 385 250 417 l 250 619 l 56 619 l 56 407 b 111 269 56 368 64 313 b 332 207 164 221 258 204 l 332 93 l 446 93 l 446 215 b 518 225 472 217 496 219 z "},"Һ":{"ha":911,"x_min":0,"x_max":0,"o":"m 315 926 l 101 926 l 101 0 l 315 0 l 315 394 b 451 406 363 403 403 406 b 597 368 531 406 574 392 b 631 254 629 338 631 289 l 631 0 l 844 0 l 844 319 b 775 508 844 372 836 451 b 500 586 711 569 594 586 b 315 572 438 586 365 579 z "},"һ":{"ha":793,"x_min":0,"x_max":0,"o":"m 83 0 l 283 0 l 283 310 b 325 439 283 340 285 400 b 404 469 336 450 361 469 b 482 442 433 469 464 460 b 515 318 514 411 515 361 l 515 0 l 715 0 l 715 393 b 654 574 715 440 711 517 b 479 636 600 629 528 636 b 358 610 435 636 400 632 b 283 546 335 597 308 576 l 283 1013 l 83 1013 z "},"Ӏ":{"ha":425,"x_min":0,"x_max":0,"o":"m 106 926 l 106 0 l 319 0 l 319 926 z "},"Ӂ":{"ha":1307,"x_min":0,"x_max":0,"o":"m 546 0 l 760 0 l 760 415 l 1040 0 l 1299 0 l 950 481 l 1278 926 l 1033 926 l 760 529 l 760 926 l 546 926 l 546 529 l 272 926 l 28 926 l 356 481 l 8 0 l 267 0 l 546 415 z m 782 1232 b 738 1165 775 1210 758 1182 b 656 1142 710 1144 676 1142 b 571 1165 624 1142 592 1150 b 525 1232 553 1179 535 1207 l 378 1169 b 483 1044 401 1114 442 1071 b 653 1006 539 1011 599 1006 b 824 1044 708 1006 768 1011 b 929 1169 865 1071 906 1114 z "},"ӂ":{"ha":1058,"x_min":0,"x_max":0,"o":"m 432 619 l 432 371 l 256 619 l 28 619 l 253 329 l 3 0 l 247 0 l 432 268 l 432 0 l 626 0 l 626 268 l 811 0 l 1056 0 l 806 329 l 1031 619 l 803 619 l 626 371 l 626 619 z m 642 924 b 606 860 636 896 622 874 b 529 835 588 844 564 835 b 453 860 494 835 471 844 b 417 924 436 874 422 896 l 278 869 b 367 751 294 819 328 776 b 529 713 419 717 483 713 b 692 751 575 713 639 717 b 781 869 731 776 764 819 z "},"Ӄ":{"ha":893,"x_min":0,"x_max":0,"o":"m 315 926 l 101 926 l 101 0 l 315 0 l 315 388 b 460 404 357 396 415 404 b 588 369 492 404 550 400 b 631 269 610 351 631 318 b 607 194 631 246 624 215 b 526 160 594 179 571 160 b 463 178 501 160 482 165 l 439 14 b 567 -10 482 -3 521 -10 b 775 71 644 -10 715 8 b 850 286 831 129 850 201 b 781 474 850 340 839 415 b 564 556 728 526 643 556 l 885 926 l 632 926 l 315 540 z "},"ӄ":{"ha":710,"x_min":0,"x_max":0,"o":"m 78 0 l 278 0 l 278 192 l 313 192 b 424 151 360 192 400 175 b 467 36 450 126 467 86 b 419 -89 467 -25 443 -65 b 326 -133 385 -124 347 -132 l 326 -289 b 569 -194 407 -285 506 -254 b 667 50 617 -151 667 -75 b 600 236 667 108 656 179 b 447 313 565 272 511 303 l 707 619 l 469 619 l 278 374 l 278 619 l 78 619 z "},"Ӈ":{"ha":1000,"x_min":0,"x_max":0,"o":"m 315 926 l 101 926 l 101 0 l 315 0 l 315 393 l 685 393 l 685 -54 b 665 -133 685 -81 685 -112 b 601 -154 647 -153 622 -154 b 549 -143 581 -154 567 -153 l 549 -304 b 665 -318 589 -315 619 -318 b 843 -267 725 -318 794 -314 b 899 -96 896 -217 899 -146 l 899 926 l 685 926 l 685 574 l 315 574 z "},"ӈ":{"ha":779,"x_min":0,"x_max":0,"o":"m 78 0 l 278 0 l 278 243 l 501 243 l 501 -31 b 478 -132 501 -65 501 -108 b 415 -154 468 -142 450 -154 b 364 -146 392 -154 374 -149 l 364 -304 b 475 -318 394 -311 432 -318 b 650 -260 578 -318 626 -285 b 701 -69 697 -210 701 -131 l 701 619 l 501 619 l 501 404 l 278 404 l 278 619 l 78 619 z "},"Ӑ":{"ha":940,"x_min":0,"x_max":0,"o":"m 715 0 l 938 0 l 572 926 l 376 926 l 3 0 l 225 0 l 296 175 l 646 175 z m 358 339 l 474 650 l 588 339 z m 599 1232 b 554 1165 592 1210 575 1182 b 472 1142 526 1144 493 1142 b 388 1165 440 1142 408 1150 b 342 1232 369 1179 351 1207 l 194 1169 b 300 1044 218 1114 258 1071 b 469 1006 356 1011 415 1006 b 640 1044 525 1006 585 1011 b 746 1169 682 1071 722 1114 z "},"ӑ":{"ha":831,"x_min":0,"x_max":0,"o":"m 553 550 b 358 640 496 628 411 640 b 143 556 272 640 197 610 b 47 306 86 499 47 410 b 138 74 47 224 72 143 b 369 -21 206 1 281 -21 b 553 75 421 -21 499 -8 l 553 0 l 753 0 l 753 619 l 553 619 z m 408 468 b 519 425 444 468 489 454 b 565 311 549 397 565 356 b 517 194 565 258 543 219 b 413 151 490 168 453 151 b 294 200 365 151 322 171 b 253 311 276 219 253 256 b 299 424 253 367 278 403 b 408 468 325 450 365 468 z m 528 924 b 492 860 522 896 508 874 b 415 835 474 844 450 835 b 339 860 381 835 357 844 b 303 924 322 874 308 896 l 164 869 b 253 751 181 819 214 776 b 415 713 306 717 369 713 b 578 751 461 713 525 717 b 667 869 617 776 650 819 z "},"Ӓ":{"ha":940,"x_min":0,"x_max":0,"o":"m 715 0 l 938 0 l 572 926 l 376 926 l 3 0 l 225 0 l 296 175 l 646 175 z m 358 339 l 474 650 l 588 339 z m 208 1126 b 318 1017 208 1067 258 1017 b 428 1126 378 1017 428 1067 b 318 1236 428 1186 378 1236 b 208 1126 258 1236 208 1186 z m 511 1126 b 621 1017 511 1067 561 1017 b 731 1126 681 1017 731 1067 b 621 1236 731 1186 681 1236 b 511 1126 561 1236 511 1186 z "},"ӓ":{"ha":831,"x_min":0,"x_max":0,"o":"m 553 550 b 358 640 496 628 411 640 b 143 556 272 640 197 610 b 47 306 86 499 47 410 b 138 74 47 224 72 143 b 369 -21 206 1 281 -21 b 553 75 421 -21 499 -8 l 553 0 l 753 0 l 753 619 l 553 619 z m 408 468 b 519 425 444 468 489 454 b 565 311 549 397 565 356 b 517 194 565 258 543 219 b 413 151 490 168 453 151 b 294 200 365 151 322 171 b 253 311 276 219 253 256 b 299 424 253 367 278 403 b 408 468 325 450 365 468 z m 457 832 b 567 722 457 772 507 722 b 676 832 626 722 676 772 b 567 942 676 892 626 942 b 457 832 507 942 457 892 z m 154 832 b 264 722 154 772 204 722 b 374 832 324 722 374 772 b 264 942 374 892 324 942 b 154 832 204 942 154 892 z "},"Ӕ":{"ha":1278,"x_min":0,"x_max":0,"o":"m 725 0 l 1269 0 l 1201 181 l 879 181 l 797 386 l 1118 386 l 1049 567 l 729 567 l 658 746 l 981 746 l 914 926 l 388 926 l 8 0 l 231 0 l 300 179 l 654 179 z m 363 343 l 482 647 l 596 343 z "},"ӕ":{"ha":1167,"x_min":0,"x_max":0,"o":"m 925 200 b 881 146 914 171 894 154 b 810 129 856 131 828 129 b 708 168 772 129 736 138 b 667 275 685 193 668 233 l 1119 275 l 1119 294 b 1036 546 1119 351 1113 463 b 794 640 986 600 906 640 b 557 533 731 640 626 624 b 328 640 521 593 461 640 b 146 615 272 640 210 633 l 146 463 b 306 493 200 481 261 493 b 426 454 360 493 403 478 b 463 363 447 433 463 397 l 463 350 b 317 388 428 371 386 388 b 99 315 211 388 140 357 b 47 186 60 276 47 233 b 101 47 47 126 68 81 b 310 -21 161 -12 242 -21 b 458 1 364 -21 408 -18 b 563 81 500 18 533 42 b 651 7 585 54 619 22 b 803 -21 701 -18 775 -21 b 992 26 868 -21 932 -12 b 1113 188 1015 42 1081 90 z m 343 265 b 439 233 375 265 415 257 b 457 190 451 219 457 206 b 439 147 457 169 447 156 b 342 115 415 124 371 115 b 251 147 308 115 272 126 b 233 190 239 161 233 175 b 251 233 233 208 240 222 b 343 265 271 254 304 265 z m 672 394 b 717 472 679 421 694 453 b 803 501 742 496 772 501 b 892 469 826 501 863 496 b 932 394 911 451 926 424 z "},"Ӗ":{"ha":697,"x_min":0,"x_max":0,"o":"m 625 926 l 101 926 l 101 0 l 625 0 l 625 181 l 315 181 l 315 386 l 610 386 l 610 567 l 315 567 l 315 746 l 625 746 z m 485 1232 b 440 1165 478 1210 461 1182 b 358 1142 413 1144 379 1142 b 274 1165 326 1142 294 1150 b 228 1232 256 1179 238 1207 l 81 1169 b 186 1044 104 1114 144 1071 b 356 1006 242 1011 301 1006 b 526 1044 411 1006 471 1011 b 632 1169 568 1071 608 1114 z "},"ӗ":{"ha":760,"x_min":0,"x_max":0,"o":"m 257 394 b 292 461 263 422 276 444 b 393 501 311 481 342 501 b 488 467 433 501 465 488 b 528 394 517 439 526 400 z m 713 296 b 625 547 713 372 699 469 b 379 640 549 628 449 640 b 142 551 310 640 217 626 b 47 307 79 488 47 396 b 140 68 47 204 86 122 b 388 -21 213 -4 294 -21 b 583 25 457 -21 524 -11 b 703 181 619 47 675 93 l 514 200 b 471 149 497 165 474 150 b 390 131 450 136 419 131 b 288 169 360 131 318 136 b 250 275 263 197 250 242 l 713 275 z m 492 924 b 456 860 486 896 472 874 b 379 835 438 844 414 835 b 303 860 344 835 321 844 b 267 924 286 874 272 896 l 128 869 b 217 751 144 819 178 776 b 379 713 269 717 333 713 b 542 751 425 713 489 717 b 631 869 581 776 614 819 z "},"Ә":{"ha":1063,"x_min":0,"x_max":0,"o":"m 58 521 l 58 515 b 215 97 58 396 97 217 b 531 -21 307 6 401 -21 b 863 100 650 -21 760 0 b 1004 468 978 213 1004 351 b 869 822 1004 574 982 713 b 540 947 761 929 629 947 b 254 874 426 947 326 919 b 94 704 161 815 110 731 l 292 628 b 383 718 317 669 350 700 b 522 750 431 744 479 750 b 708 681 585 750 654 736 b 781 521 768 619 779 535 z m 776 371 b 703 229 767 307 735 258 b 533 171 647 179 583 171 b 357 236 439 171 386 206 b 296 371 322 272 301 326 z "},"ә":{"ha":760,"x_min":0,"x_max":0,"o":"m 503 233 b 468 163 497 201 482 178 b 368 122 435 128 396 122 b 272 157 324 122 293 138 b 232 233 253 175 238 203 z m 47 324 b 135 72 47 247 61 150 b 378 -21 201 1 288 -21 b 618 68 457 -21 546 -4 b 713 315 681 131 713 222 b 619 551 713 415 674 496 b 374 640 547 624 465 640 b 176 594 319 640 243 636 b 57 439 140 572 85 526 l 246 419 b 289 471 263 454 286 469 b 372 489 313 486 347 489 b 472 449 401 489 442 483 b 508 349 493 425 508 388 l 47 349 z "},"Ӛ":{"ha":1063,"x_min":0,"x_max":0,"o":"m 58 521 l 58 515 b 215 97 58 396 97 217 b 531 -21 307 6 401 -21 b 863 100 650 -21 760 0 b 1004 468 978 213 1004 351 b 869 822 1004 574 982 713 b 540 947 761 929 629 947 b 254 874 426 947 326 919 b 94 704 161 815 110 731 l 292 628 b 383 718 317 669 350 700 b 522 750 431 744 479 750 b 708 681 585 750 654 736 b 781 521 768 619 779 535 z m 776 371 b 703 229 767 307 735 258 b 533 171 647 179 583 171 b 357 236 439 171 386 206 b 296 371 322 272 301 326 z m 269 1126 b 379 1017 269 1067 319 1017 b 489 1126 439 1017 489 1067 b 379 1236 489 1186 439 1236 b 269 1126 319 1236 269 1186 z m 572 1126 b 682 1017 572 1067 622 1017 b 792 1126 742 1017 792 1067 b 682 1236 792 1186 742 1236 b 572 1126 622 1236 572 1186 z "},"ӛ":{"ha":760,"x_min":0,"x_max":0,"o":"m 503 233 b 468 163 497 201 482 178 b 368 122 435 128 396 122 b 272 157 324 122 293 138 b 232 233 253 175 238 203 z m 47 324 b 135 72 47 247 61 150 b 378 -21 201 1 288 -21 b 618 68 457 -21 546 -4 b 713 315 681 131 713 222 b 619 551 713 415 674 496 b 374 640 547 624 465 640 b 176 594 319 640 243 636 b 57 439 140 572 85 526 l 246 419 b 289 471 263 454 286 469 b 372 489 313 486 347 489 b 472 449 401 489 442 483 b 508 349 493 425 508 388 l 47 349 z m 421 832 b 531 722 421 772 471 722 b 640 832 590 722 640 772 b 531 942 640 892 590 942 b 421 832 471 942 421 892 z m 118 832 b 228 722 118 772 168 722 b 338 832 288 722 338 772 b 228 942 338 892 288 942 b 118 832 168 942 118 892 z "},"Ӝ":{"ha":1307,"x_min":0,"x_max":0,"o":"m 546 0 l 760 0 l 760 415 l 1040 0 l 1299 0 l 950 481 l 1278 926 l 1033 926 l 760 529 l 760 926 l 546 926 l 546 529 l 272 926 l 28 926 l 356 481 l 8 0 l 267 0 l 546 415 z m 392 1126 b 501 1017 392 1067 442 1017 b 611 1126 561 1017 611 1067 b 501 1236 611 1186 561 1236 b 392 1126 442 1236 392 1186 z m 694 1126 b 804 1017 694 1067 744 1017 b 914 1126 864 1017 914 1067 b 804 1236 914 1186 864 1236 b 694 1126 744 1236 694 1186 z "},"ӝ":{"ha":1058,"x_min":0,"x_max":0,"o":"m 432 619 l 432 371 l 256 619 l 28 619 l 253 329 l 3 0 l 247 0 l 432 268 l 432 0 l 626 0 l 626 268 l 811 0 l 1056 0 l 806 329 l 1031 619 l 803 619 l 626 371 l 626 619 z m 571 832 b 681 722 571 772 621 722 b 790 832 740 722 790 772 b 681 942 790 892 740 942 b 571 832 621 942 571 892 z m 268 832 b 378 722 268 772 318 722 b 488 832 438 722 488 772 b 378 942 488 892 438 942 b 268 832 318 942 268 892 z "},"Ӟ":{"ha":819,"x_min":0,"x_max":0,"o":"m 178 679 b 261 735 201 700 233 722 b 365 758 290 749 326 758 b 463 733 400 758 439 751 b 500 661 485 717 500 692 b 474 599 500 632 488 611 b 321 563 442 569 388 563 l 289 563 l 289 390 l 324 390 b 500 356 429 390 475 375 b 533 282 517 342 533 317 b 489 196 533 243 514 214 b 382 168 463 178 422 168 b 256 197 340 168 296 176 b 161 274 221 215 186 244 l 42 117 b 185 19 85 76 136 40 b 407 -21 256 -12 331 -21 b 686 75 493 -21 604 -8 b 761 261 731 121 761 185 b 699 426 761 346 725 400 b 585 492 667 460 624 481 b 674 560 613 503 646 521 b 710 681 700 597 710 636 b 639 863 710 749 692 811 b 390 947 568 932 472 947 b 210 914 317 947 268 936 b 83 843 164 897 126 878 z m 128 1126 b 238 1017 128 1067 178 1017 b 347 1126 297 1017 347 1067 b 238 1236 347 1186 297 1236 b 128 1126 178 1236 128 1186 z m 431 1126 b 540 1017 431 1067 481 1017 b 650 1126 600 1017 650 1067 b 540 1236 650 1186 600 1236 b 431 1126 481 1236 431 1186 z "},"ӟ":{"ha":643,"x_min":0,"x_max":0,"o":"m 133 433 b 200 474 153 450 174 463 b 282 490 226 485 250 490 b 344 479 315 490 335 483 b 375 439 369 468 375 450 b 346 397 375 426 369 408 b 271 386 326 389 289 386 l 214 386 l 214 250 l 289 250 b 361 239 311 250 344 246 b 390 197 379 231 390 218 b 363 150 390 183 386 164 b 290 135 343 139 313 135 b 194 154 258 135 221 143 b 118 204 169 165 140 185 l 33 72 b 144 7 50 58 90 28 b 314 -21 200 -14 258 -21 b 542 46 417 -21 489 -6 b 596 175 582 86 596 132 b 554 278 596 215 585 249 b 471 322 546 286 517 311 b 524 357 490 329 508 342 b 561 463 554 389 561 424 b 515 576 561 504 550 543 b 306 640 453 638 339 640 b 160 618 258 640 207 635 b 57 567 126 606 83 583 z m 353 832 b 463 722 353 772 403 722 b 572 832 522 722 572 772 b 463 942 572 892 522 942 b 353 832 403 942 353 892 z m 50 832 b 160 722 50 772 100 722 b 269 832 219 722 269 772 b 160 942 269 892 219 942 b 50 832 100 942 50 892 z "},"Ӣ":{"ha":1035,"x_min":0,"x_max":0,"o":"m 101 926 l 101 -11 l 290 -11 l 719 607 l 719 0 l 933 0 l 933 938 l 744 938 l 315 321 l 315 926 z m 242 1046 l 781 1046 l 781 1174 l 242 1174 z "},"ӣ":{"ha":806,"x_min":0,"x_max":0,"o":"m 78 619 l 78 0 l 264 0 l 528 360 l 528 0 l 728 0 l 728 619 l 542 619 l 278 265 l 278 619 z m 139 754 l 667 754 l 667 879 l 139 879 z "},"Ӥ":{"ha":1035,"x_min":0,"x_max":0,"o":"m 101 926 l 101 -11 l 290 -11 l 719 607 l 719 0 l 933 0 l 933 938 l 744 938 l 315 321 l 315 926 z m 261 1126 b 371 1017 261 1067 311 1017 b 481 1126 431 1017 481 1067 b 371 1236 481 1186 431 1236 b 261 1126 311 1236 261 1186 z m 564 1126 b 674 1017 564 1067 614 1017 b 783 1126 733 1017 783 1067 b 674 1236 783 1186 733 1236 b 564 1126 614 1236 564 1186 z "},"ӥ":{"ha":806,"x_min":0,"x_max":0,"o":"m 78 619 l 78 0 l 264 0 l 528 360 l 528 0 l 728 0 l 728 619 l 542 619 l 278 265 l 278 619 z m 444 832 b 554 722 444 772 494 722 b 664 832 614 722 664 772 b 554 942 664 892 614 942 b 444 832 494 942 444 892 z m 142 832 b 251 722 142 772 192 722 b 361 832 311 722 361 772 b 251 942 361 892 311 942 b 142 832 192 942 142 892 z "},"Ӧ":{"ha":1125,"x_min":0,"x_max":0,"o":"m 564 947 b 201 811 379 947 264 874 b 58 460 118 728 58 593 b 203 115 58 324 114 199 b 564 -21 272 49 390 -21 b 922 115 719 -21 836 32 b 1067 463 1022 213 1067 339 b 922 813 1067 606 1010 728 b 564 947 829 903 708 947 z m 563 750 b 767 671 647 750 721 715 b 847 463 808 629 847 558 b 767 256 847 356 803 290 b 561 176 722 211 656 176 b 363 253 489 176 422 196 b 278 461 306 308 278 376 b 360 671 278 564 319 632 b 563 750 410 721 482 750 z m 301 1126 b 411 1017 301 1067 351 1017 b 521 1126 471 1017 521 1067 b 411 1236 521 1186 471 1236 b 301 1126 351 1236 301 1186 z m 604 1126 b 714 1017 604 1067 654 1017 b 824 1126 774 1017 824 1067 b 714 1236 824 1186 774 1236 b 604 1126 654 1236 604 1186 z "},"ӧ":{"ha":822,"x_min":0,"x_max":0,"o":"m 775 310 b 682 540 775 389 744 478 b 411 640 626 596 532 640 b 140 540 290 640 196 596 b 47 310 78 478 47 389 b 140 79 47 231 78 142 b 411 -21 196 24 290 -21 b 682 79 532 -21 626 24 b 775 310 744 142 775 231 z m 411 471 b 524 426 457 471 494 456 b 569 310 553 397 569 360 b 524 193 569 260 553 222 b 413 149 494 164 457 149 b 299 193 360 149 324 168 b 253 310 275 217 253 253 b 299 426 253 360 269 397 b 411 471 328 456 365 471 z m 453 832 b 563 722 453 772 503 722 b 672 832 622 722 672 772 b 563 942 672 892 622 942 b 453 832 503 942 453 892 z m 150 832 b 260 722 150 772 200 722 b 369 832 319 722 369 772 b 260 942 369 892 319 942 b 150 832 200 942 150 892 z "},"Ө":{"ha":1125,"x_min":0,"x_max":0,"o":"m 564 947 b 201 811 379 947 264 874 b 58 460 118 728 58 593 b 203 115 58 324 114 199 b 564 -21 272 49 390 -21 b 922 115 719 -21 836 32 b 1067 463 1022 213 1067 339 b 922 813 1067 606 1010 728 b 564 947 829 903 708 947 z m 292 554 b 382 690 315 631 361 674 b 561 750 439 736 504 750 b 738 699 643 750 700 726 b 833 554 772 674 815 628 z m 835 374 b 743 229 817 296 772 251 b 564 176 683 183 615 176 b 381 232 483 176 421 200 b 289 374 335 267 303 324 z "},"ө":{"ha":822,"x_min":0,"x_max":0,"o":"m 775 310 b 682 540 775 389 744 478 b 411 640 626 596 532 640 b 140 540 290 640 196 596 b 47 310 78 478 47 389 b 140 79 47 231 78 142 b 411 -21 196 24 290 -21 b 682 79 532 -21 626 24 b 775 310 744 142 775 231 z m 263 369 b 301 439 269 393 283 421 b 411 479 319 457 351 479 b 510 449 440 479 478 474 b 560 369 535 428 551 397 z m 563 261 b 511 172 556 231 538 194 b 411 140 486 151 451 140 b 306 176 358 140 325 158 b 260 261 271 208 261 254 z "},"Ӫ":{"ha":1125,"x_min":0,"x_max":0,"o":"m 564 947 b 201 811 379 947 264 874 b 58 460 118 728 58 593 b 203 115 58 324 114 199 b 564 -21 272 49 390 -21 b 922 115 719 -21 836 32 b 1067 463 1022 213 1067 339 b 922 813 1067 606 1010 728 b 564 947 829 903 708 947 z m 292 554 b 382 690 315 631 361 674 b 561 750 439 736 504 750 b 738 699 643 750 700 726 b 833 554 772 674 815 628 z m 835 374 b 743 229 817 296 772 251 b 564 176 683 183 615 176 b 381 232 483 176 421 200 b 289 374 335 267 303 324 z m 301 1126 b 411 1017 301 1067 351 1017 b 521 1126 471 1017 521 1067 b 411 1236 521 1186 471 1236 b 301 1126 351 1236 301 1186 z m 604 1126 b 714 1017 604 1067 654 1017 b 824 1126 774 1017 824 1067 b 714 1236 824 1186 774 1236 b 604 1126 654 1236 604 1186 z "},"ӫ":{"ha":822,"x_min":0,"x_max":0,"o":"m 775 310 b 682 540 775 389 744 478 b 411 640 626 596 532 640 b 140 540 290 640 196 596 b 47 310 78 478 47 389 b 140 79 47 231 78 142 b 411 -21 196 24 290 -21 b 682 79 532 -21 626 24 b 775 310 744 142 775 231 z m 263 369 b 301 439 269 393 283 421 b 411 479 319 457 351 479 b 510 449 440 479 478 474 b 560 369 535 428 551 397 z m 563 261 b 511 172 556 231 538 194 b 411 140 486 151 451 140 b 306 176 358 140 325 158 b 260 261 271 208 261 254 z m 453 832 b 563 722 453 772 503 722 b 672 832 622 722 672 772 b 563 942 672 892 622 942 b 453 832 503 942 453 892 z m 150 832 b 260 722 150 772 200 722 b 369 832 319 722 369 772 b 260 942 369 892 319 942 b 150 832 200 942 150 892 z "},"Ӯ":{"ha":864,"x_min":0,"x_max":0,"o":"m 6 926 l 336 267 l 201 0 l 432 0 l 856 926 l 625 926 l 439 499 l 244 926 z m 157 1046 l 696 1046 l 696 1174 l 157 1174 z "},"ӯ":{"ha":813,"x_min":0,"x_max":0,"o":"m 81 -318 l 306 -318 l 804 619 l 579 619 l 408 283 l 233 619 l 3 619 l 299 79 z m 131 754 l 658 754 l 658 879 l 131 879 z "},"Ӱ":{"ha":864,"x_min":0,"x_max":0,"o":"m 6 926 l 336 267 l 201 0 l 432 0 l 856 926 l 625 926 l 439 499 l 244 926 z m 171 1126 b 281 1017 171 1067 221 1017 b 390 1126 340 1017 390 1067 b 281 1236 390 1186 340 1236 b 171 1126 221 1236 171 1186 z m 474 1126 b 583 1017 474 1067 524 1017 b 693 1126 643 1017 693 1067 b 583 1236 693 1186 643 1236 b 474 1126 524 1236 474 1186 z "},"ӱ":{"ha":813,"x_min":0,"x_max":0,"o":"m 81 -318 l 306 -318 l 804 619 l 579 619 l 408 283 l 233 619 l 3 619 l 299 79 z m 447 832 b 557 722 447 772 497 722 b 667 832 617 722 667 772 b 557 942 667 892 617 942 b 447 832 497 942 447 892 z m 144 832 b 254 722 144 772 194 722 b 364 832 314 722 364 772 b 254 942 364 892 314 942 b 144 832 194 942 144 892 z "},"Ӳ":{"ha":864,"x_min":0,"x_max":0,"o":"m 6 926 l 336 267 l 201 0 l 432 0 l 856 926 l 625 926 l 439 499 l 244 926 z m 383 1285 l 232 1072 l 308 1006 l 503 1193 z m 642 1285 l 490 1072 l 568 1006 l 763 1193 z "},"ӳ":{"ha":813,"x_min":0,"x_max":0,"o":"m 81 -318 l 306 -318 l 804 619 l 579 619 l 408 283 l 233 619 l 3 619 l 299 79 z m 339 986 l 194 774 l 267 707 l 453 894 z m 589 985 l 444 774 l 518 707 l 704 894 z "},"Ӵ":{"ha":897,"x_min":0,"x_max":0,"o":"m 582 0 l 796 0 l 796 926 l 582 926 l 582 553 b 456 542 538 544 501 542 b 321 572 393 542 349 550 b 281 685 279 606 281 657 l 281 926 l 67 926 l 67 642 b 138 438 67 572 74 499 b 425 356 213 367 342 356 b 582 369 482 356 533 361 z m 188 1126 b 297 1017 188 1067 238 1017 b 407 1126 357 1017 407 1067 b 297 1236 407 1186 357 1236 b 188 1126 238 1236 188 1186 z m 490 1126 b 600 1017 490 1067 540 1017 b 710 1126 660 1017 710 1067 b 600 1236 710 1186 660 1236 b 490 1126 540 1236 490 1186 z "},"ӵ":{"ha":719,"x_min":0,"x_max":0,"o":"m 442 0 l 642 0 l 642 619 l 442 619 l 442 364 b 358 351 414 354 389 351 b 278 372 335 351 299 354 b 253 440 254 393 253 424 l 253 619 l 56 619 l 56 413 b 113 253 56 371 58 304 b 317 193 167 201 250 193 b 442 208 361 193 397 197 z m 401 832 b 511 722 401 772 451 722 b 621 832 571 722 621 772 b 511 942 621 892 571 942 b 401 832 451 942 401 892 z m 99 832 b 208 722 99 772 149 722 b 318 832 268 722 318 772 b 208 942 318 892 268 942 b 99 832 149 942 99 892 z "},"Ӹ":{"ha":1176,"x_min":0,"x_max":0,"o":"m 861 926 l 861 0 l 1075 0 l 1075 926 z m 101 0 l 436 0 b 700 78 514 0 624 6 b 775 282 764 139 775 221 b 697 488 775 343 764 425 b 443 565 624 557 522 565 l 315 565 l 315 926 l 101 926 z m 315 393 l 411 393 b 522 371 478 393 507 382 b 561 283 529 367 561 342 b 521 197 561 235 538 208 b 410 172 492 176 447 172 l 315 172 z m 321 1126 b 431 1017 321 1067 371 1017 b 540 1126 490 1017 540 1067 b 431 1236 540 1186 490 1236 b 321 1126 371 1236 321 1186 z m 624 1126 b 733 1017 624 1067 674 1017 b 843 1126 793 1017 843 1067 b 733 1236 843 1186 793 1236 b 624 1126 674 1236 624 1186 z "},"ӹ":{"ha":976,"x_min":0,"x_max":0,"o":"m 701 619 l 701 0 l 899 0 l 899 619 z m 278 407 l 278 619 l 78 619 l 78 0 l 408 0 b 579 54 460 0 528 4 b 635 207 628 101 635 164 b 583 349 635 243 629 303 b 415 407 557 375 504 407 z m 278 142 l 278 265 l 361 265 b 421 250 374 265 403 264 b 440 206 428 244 440 231 b 421 158 440 188 433 169 b 360 142 403 142 375 142 z m 513 832 b 622 722 513 772 563 722 b 732 832 682 722 732 772 b 622 942 732 892 682 942 b 513 832 563 942 513 892 z m 210 832 b 319 722 210 772 260 722 b 429 832 379 722 429 772 b 319 942 429 892 379 942 b 210 832 260 942 210 892 z "},"ẞ":{"ha":825,"x_min":0,"x_max":0,"o":"m 313 0 l 313 667 b 338 750 313 704 322 731 b 407 781 353 769 376 781 b 476 754 435 781 463 769 b 501 679 494 735 501 707 l 400 540 l 400 413 b 504 379 438 410 475 400 b 553 285 533 358 553 329 b 508 181 553 235 535 201 b 400 147 481 158 431 150 l 400 -19 b 660 58 521 -12 601 13 b 767 272 717 103 767 181 b 718 428 767 335 754 382 b 581 519 683 471 638 500 l 713 675 b 606 893 708 785 664 850 b 403 947 553 932 485 947 b 193 871 353 947 263 938 b 101 639 128 808 101 729 l 101 0 z "},"‐":{"ha":494,"x_min":0,"x_max":0,"o":"m 69 264 l 425 264 l 425 439 l 69 439 z "},"‑":{"ha":494,"x_min":0,"x_max":0,"o":"m 69 264 l 425 264 l 425 439 l 69 439 z "},"‒":{"ha":843,"x_min":0,"x_max":0,"o":"m 97 392 l 746 392 l 746 556 l 97 556 z "},"–":{"ha":843,"x_min":0,"x_max":0,"o":"m 97 269 l 746 269 l 746 433 l 97 433 z "},"—":{"ha":1214,"x_min":0,"x_max":0,"o":"m 97 269 l 1117 269 l 1117 433 l 97 433 z "},"―":{"ha":1214,"x_min":0,"x_max":0,"o":"m 97 269 l 1117 269 l 1117 433 l 97 433 z "},"‘":{"ha":454,"x_min":0,"x_max":0,"o":"m 393 926 l 268 932 l 58 544 l 240 535 z "},"’":{"ha":547,"x_min":0,"x_max":0,"o":"m 58 544 l 183 539 l 394 926 l 211 936 z "},"‚":{"ha":547,"x_min":0,"x_max":0,"o":"m 58 -178 l 183 -183 l 394 204 l 211 214 z "},"“":{"ha":743,"x_min":0,"x_max":0,"o":"m 682 926 l 557 932 l 346 544 l 528 535 z m 393 926 l 268 932 l 58 544 l 240 535 z "},"”":{"ha":851,"x_min":0,"x_max":0,"o":"m 86 544 l 211 539 l 422 926 l 239 936 z m 374 544 l 499 539 l 710 926 l 528 936 z "},"„":{"ha":851,"x_min":0,"x_max":0,"o":"m 72 -178 l 197 -183 l 408 204 l 225 214 z m 360 -178 l 485 -183 l 696 204 l 514 214 z "},"†":{"ha":808,"x_min":0,"x_max":0,"o":"m 313 732 l 94 732 l 94 571 l 313 571 l 313 -256 l 496 -256 l 496 571 l 714 571 l 714 732 l 496 732 l 496 1013 l 313 1013 z "},"‡":{"ha":807,"x_min":0,"x_max":0,"o":"m 313 732 l 94 732 l 94 571 l 313 571 l 313 253 l 94 253 l 94 93 l 313 93 l 313 -256 l 494 -256 l 494 93 l 713 93 l 713 253 l 494 253 l 494 571 l 713 571 l 713 732 l 494 732 l 494 1013 l 313 1013 z "},"•":{"ha":1389,"x_min":0,"x_max":0,"o":"m 500 472 b 694 278 500 365 588 278 b 889 472 801 278 889 365 b 694 667 889 579 801 667 b 500 472 588 667 500 579 z "},"…":{"ha":1242,"x_min":0,"x_max":0,"o":"m 88 106 b 214 -21 88 35 143 -21 b 340 106 285 -21 340 35 b 214 232 340 176 285 232 b 88 106 143 232 88 176 z m 494 106 b 621 -21 494 35 550 -21 b 747 106 692 -21 747 35 b 621 232 747 176 692 232 b 494 106 550 232 494 176 z m 901 106 b 1028 -21 901 35 957 -21 b 1154 106 1099 -21 1154 35 b 1028 232 1154 176 1099 232 b 901 106 957 232 901 176 z "},"‰":{"ha":1729,"x_min":0,"x_max":0,"o":"m 257 3 l 353 -19 l 897 921 l 800 942 z m 285 826 b 364 794 322 826 349 811 b 394 714 382 776 394 747 b 364 633 394 681 382 651 b 285 601 349 617 322 601 b 206 633 247 601 221 617 b 175 714 188 651 175 681 b 206 794 175 747 188 776 b 285 826 221 811 247 826 z m 528 714 b 468 869 528 796 492 846 b 285 939 425 914 358 939 b 101 869 211 939 144 914 b 42 714 78 846 42 796 b 101 558 42 632 78 582 b 285 489 144 514 211 489 b 468 558 358 489 425 514 b 528 714 492 582 528 632 z m 868 325 b 947 293 906 325 932 310 b 978 213 965 275 978 246 b 947 132 978 179 965 150 b 868 100 932 115 906 100 b 789 132 831 100 804 115 b 758 213 771 150 758 179 b 789 293 758 246 771 275 b 868 325 804 310 831 325 z m 1111 213 b 1051 368 1111 294 1075 344 b 868 438 1008 413 942 438 b 685 368 794 438 728 413 b 625 213 661 344 625 294 b 685 57 625 131 661 81 b 868 -12 728 13 794 -12 b 1051 57 942 -12 1008 13 b 1111 213 1075 81 1111 131 z m 1444 325 b 1524 293 1482 325 1508 310 b 1554 213 1542 275 1554 246 b 1524 132 1554 179 1542 150 b 1444 100 1508 115 1482 100 b 1365 132 1407 100 1381 115 b 1335 213 1347 150 1335 179 b 1365 293 1335 246 1347 275 b 1444 325 1381 310 1407 325 z m 1688 213 b 1628 368 1688 294 1651 344 b 1444 438 1585 413 1518 438 b 1261 368 1371 438 1304 413 b 1201 213 1238 344 1201 294 b 1261 57 1201 131 1238 81 b 1444 -12 1304 13 1371 -12 b 1628 57 1518 -12 1585 13 b 1688 213 1651 81 1688 131 z "},"‹":{"ha":453,"x_min":0,"x_max":0,"o":"m 381 533 l 271 610 l 56 311 l 271 11 l 383 90 l 219 311 z "},"›":{"ha":453,"x_min":0,"x_max":0,"o":"m 233 311 l 69 90 l 182 11 l 397 311 l 182 610 l 72 533 z "},"⁄":{"ha":358,"x_min":0,"x_max":0,"o":"m -139 14 l -44 -19 l 497 910 l 403 942 z "},"€":{"ha":833,"x_min":0,"x_max":0,"o":"m 758 251 b 542 167 732 224 669 167 b 403 199 496 167 443 175 b 325 296 351 228 333 271 l 561 296 l 611 421 l 301 421 b 300 500 297 446 296 472 l 638 500 l 688 625 l 321 625 b 394 722 336 675 367 704 b 539 760 450 757 519 760 b 711 714 589 760 651 750 l 786 893 b 551 947 711 931 633 947 b 201 821 379 947 268 888 b 93 625 153 772 113 704 l 22 625 l -28 500 l 78 500 b 78 421 76 472 76 446 l 22 421 l -28 296 l 93 296 b 231 61 110 201 161 115 b 514 -21 303 6 408 -21 b 758 39 653 -21 726 19 z "},"₴":{"ha":833,"x_min":0,"x_max":0,"o":"m 132 856 l 228 700 b 293 740 250 718 269 729 b 401 767 325 756 351 767 b 472 747 419 767 449 767 b 497 694 488 735 497 715 b 468 628 497 674 489 647 l 51 628 l 51 493 l 364 493 l 267 406 l 51 406 l 51 271 l 164 271 b 129 167 143 243 129 211 b 203 29 129 106 156 63 b 397 -21 263 -12 338 -21 b 608 8 474 -21 547 -11 b 744 78 663 26 707 50 l 643 231 b 563 188 624 218 585 196 b 438 168 528 174 472 168 b 364 182 410 168 388 171 b 331 226 350 189 331 201 b 356 271 331 242 340 260 l 778 271 l 778 406 l 482 406 l 579 493 l 778 493 l 778 628 l 675 628 b 717 742 696 653 717 689 b 656 883 717 800 690 850 b 453 947 594 942 517 947 b 258 917 386 947 328 940 b 132 856 215 901 174 883 z "},"₶":{"ha":833,"x_min":0,"x_max":0,"o":"m 460 926 l 133 926 l 133 500 l 33 500 l 33 344 l 133 344 l 133 257 l 33 257 l 33 122 l 133 122 l 133 0 l 347 0 l 347 122 l 597 122 l 597 257 l 347 257 l 347 344 l 478 344 b 714 418 611 344 682 389 b 793 625 785 481 793 564 b 703 850 793 690 782 779 b 460 926 629 915 540 926 z m 347 751 l 419 751 b 539 717 461 751 507 747 b 574 626 560 697 574 665 b 539 535 574 586 558 554 b 424 500 504 501 453 500 l 347 500 z "},"₸":{"ha":833,"x_min":0,"x_max":0,"o":"m 725 579 l 725 746 l 108 746 l 108 579 l 308 579 l 308 0 l 522 0 l 522 579 z m 725 801 l 725 926 l 108 926 l 108 801 z "},"№":{"ha":1599,"x_min":0,"x_max":0,"o":"m 1093 271 l 1510 271 l 1510 396 l 1093 396 z m 313 0 l 313 597 l 778 0 l 961 0 l 961 926 l 750 926 l 750 332 l 285 926 l 101 926 l 101 0 z m 1540 706 b 1479 860 1540 786 1504 835 b 1301 926 1451 888 1396 926 b 1124 860 1207 926 1151 888 b 1063 706 1099 835 1063 786 b 1124 554 1063 628 1097 581 b 1301 488 1151 526 1207 488 b 1479 554 1396 488 1451 526 b 1540 706 1506 581 1540 628 z m 1301 810 b 1374 781 1338 810 1361 793 b 1401 707 1392 763 1401 739 b 1374 632 1401 667 1385 643 b 1301 604 1356 614 1328 604 b 1229 632 1278 604 1247 614 b 1201 707 1211 650 1201 681 b 1229 781 1201 750 1222 774 b 1301 810 1246 797 1271 810 z "},"℗":{"ha":1057,"x_min":0,"x_max":0,"o":"m 349 735 l 349 208 l 499 208 l 499 385 l 547 385 b 713 435 600 385 668 389 b 756 556 733 457 756 493 b 710 679 756 590 749 639 b 546 735 660 732 592 735 z m 499 621 l 518 621 b 589 606 543 621 569 621 b 608 561 606 592 608 574 b 589 515 608 547 606 529 b 519 499 581 508 563 499 l 499 499 z m 528 861 b 793 753 617 861 724 819 b 913 464 861 686 913 576 b 793 174 913 350 861 239 b 528 65 724 107 617 65 b 263 174 439 65 332 107 b 143 464 194 239 143 350 b 263 753 143 576 194 686 b 528 861 332 819 439 861 z m 1010 463 b 867 810 1010 597 957 719 b 528 947 785 890 668 947 b 189 810 388 947 271 890 b 46 463 99 719 46 597 b 189 117 46 331 99 207 b 528 -21 271 36 388 -21 b 867 117 668 -21 785 36 b 1010 463 957 207 1010 331 z "},"™":{"ha":1064,"x_min":0,"x_max":0,"o":"m 368 813 l 368 926 l 11 926 l 11 813 l 124 813 l 124 399 l 254 399 l 254 813 z m 521 399 l 564 688 l 682 399 l 738 399 l 858 688 l 897 399 l 1028 399 l 946 926 l 832 926 l 710 636 l 596 926 l 481 926 l 390 399 z "},"∂":{"ha":779,"x_min":0,"x_max":0,"o":"m 121 788 b 365 721 206 782 301 757 b 513 554 415 693 475 642 b 342 610 465 590 414 610 b 140 531 261 610 196 585 b 47 307 94 486 47 415 b 144 72 47 226 75 140 b 383 -17 213 7 290 -17 b 626 79 476 -17 558 7 b 732 382 696 153 732 264 b 572 775 732 485 703 653 b 144 940 457 883 288 931 z m 390 153 b 283 194 338 153 304 174 b 239 304 254 224 239 265 b 288 417 239 346 256 388 b 385 451 315 442 349 451 b 483 418 422 451 458 440 b 532 304 511 394 532 351 b 485 190 532 258 511 217 b 390 153 457 164 425 153 z "},"∏":{"ha":1025,"x_min":0,"x_max":0,"o":"m 56 881 l 169 881 l 169 -186 l 56 -186 l 56 -347 l 461 -347 l 461 -186 l 350 -186 l 350 881 l 675 881 l 675 -186 l 564 -186 l 564 -347 l 969 -347 l 969 -186 l 856 -186 l 856 881 l 969 881 l 969 1042 l 56 1042 z "},"∑":{"ha":933,"x_min":0,"x_max":0,"o":"m 31 1042 l 31 861 l 368 371 l 31 -167 l 31 -347 l 875 -347 l 875 0 l 706 0 l 694 -186 l 233 -186 l 581 371 l 233 881 l 682 881 l 700 699 l 863 699 l 863 1042 z "},"−":{"ha":694,"x_min":0,"x_max":0,"o":"m 46 392 l 649 392 l 649 553 l 46 553 z "},"∕":{"ha":972,"x_min":0,"x_max":0,"o":"m 21 -256 l 178 -283 l 910 1013 l 753 1040 z "},"∙":{"ha":356,"x_min":0,"x_max":0,"o":"m 28 464 b 178 314 28 379 93 314 b 328 464 263 314 328 379 b 178 614 328 549 263 614 b 28 464 93 614 28 549 z "},"√":{"ha":928,"x_min":0,"x_max":0,"o":"m 525 1149 l 401 621 b 361 419 386 557 371 478 b 338 213 350 356 343 282 l 322 213 b 314 333 322 231 319 279 b 290 464 307 399 299 425 l 275 536 l 0 536 l 0 378 l 131 378 l 213 0 l 443 0 l 678 990 l 928 990 l 928 1149 z "},"∞":{"ha":936,"x_min":0,"x_max":0,"o":"m 656 543 b 713 522 675 543 699 535 b 733 475 726 510 733 492 b 713 421 733 454 725 433 b 656 400 700 408 679 400 b 586 431 635 400 611 408 b 551 471 574 442 560 460 b 593 519 563 489 578 507 b 656 543 613 536 633 543 z m 468 358 b 556 283 490 329 517 304 b 688 246 601 258 647 246 b 838 303 751 246 801 268 b 908 476 878 342 908 401 b 843 635 908 554 874 606 b 679 697 804 672 747 697 b 560 664 639 697 600 688 b 468 586 526 644 493 615 b 376 664 443 615 410 644 b 257 697 336 688 297 697 b 93 635 189 697 132 672 b 28 476 63 606 28 554 b 99 303 28 401 58 342 b 249 246 143 261 193 246 b 381 281 296 246 343 260 b 468 358 410 297 442 322 z m 281 543 b 343 519 303 543 324 536 b 385 471 358 507 374 489 b 350 431 375 454 364 443 b 281 400 332 415 310 400 b 224 421 257 400 236 408 b 203 475 211 433 203 454 b 224 522 203 492 210 510 b 281 543 238 535 261 543 z "},"∫":{"ha":704,"x_min":0,"x_max":0,"o":"m 442 775 b 465 865 442 797 442 842 b 526 886 475 875 494 886 b 597 872 550 886 576 881 l 631 1028 b 507 1042 593 1036 550 1042 b 328 981 453 1042 379 1035 b 261 714 267 917 261 808 l 261 -81 b 242 -168 261 -104 264 -143 b 182 -192 235 -176 217 -192 b 106 -178 160 -192 131 -186 l 74 -333 b 192 -347 114 -343 149 -347 b 375 -285 246 -347 318 -343 b 442 -43 438 -221 442 -128 z "},"≈":{"ha":694,"x_min":0,"x_max":0,"o":"m 357 236 b 471 210 396 222 428 210 b 604 267 524 210 567 228 b 685 394 633 297 667 349 l 585 451 b 540 396 575 433 557 408 b 483 378 524 383 506 378 b 392 400 456 378 415 392 l 332 422 b 219 449 293 436 263 449 b 89 394 164 449 122 429 b 8 256 56 361 24 300 l 106 194 b 146 256 114 213 132 243 b 210 281 161 271 183 281 b 300 257 235 281 263 271 z m 357 515 b 471 489 396 501 428 489 b 604 546 524 489 567 507 b 685 674 633 576 667 628 l 585 731 b 540 675 575 713 557 688 b 483 657 524 663 506 657 b 392 679 456 657 415 671 l 332 701 b 219 728 294 715 263 728 b 89 674 175 728 129 714 b 8 535 58 643 26 583 l 106 474 b 146 535 114 492 132 522 b 210 560 161 550 183 560 b 300 536 235 560 263 550 z "},"≠":{"ha":694,"x_min":0,"x_max":0,"o":"m 46 508 l 297 508 l 250 411 l 46 411 l 46 258 l 179 258 l 110 114 l 247 114 l 318 258 l 647 258 l 647 411 l 389 411 l 435 508 l 647 508 l 647 661 l 507 661 l 578 808 l 440 808 l 368 661 l 46 661 z "},"≤":{"ha":694,"x_min":0,"x_max":0,"o":"m 46 636 l 46 490 l 649 210 l 649 374 l 225 563 l 649 761 l 649 924 z m 46 169 l 46 11 l 649 11 l 649 169 z "},"≥":{"ha":694,"x_min":0,"x_max":0,"o":"m 649 636 l 46 924 l 46 761 l 469 563 l 46 374 l 46 210 l 649 490 z m 649 169 l 46 169 l 46 11 l 649 11 z "},"⋅":{"ha":356,"x_min":0,"x_max":0,"o":"m 28 464 b 178 314 28 379 93 314 b 328 464 263 314 328 379 b 178 614 328 549 263 614 b 28 464 93 614 28 549 z "},"◊":{"ha":972,"x_min":0,"x_max":0,"o":"m 125 464 l 486 -36 l 847 464 l 486 964 z m 643 464 l 486 249 l 329 464 l 486 679 z "},"◦":{"ha":697,"x_min":0,"x_max":0,"o":"m 243 715 b 349 818 243 771 290 818 b 454 715 407 818 454 771 b 349 613 454 660 407 613 b 243 715 290 613 243 660 z m 135 715 b 349 504 135 597 228 504 b 563 715 469 504 563 597 b 349 926 563 833 469 926 b 135 715 228 926 135 833 z "},"":{"ha":3,"x_min":0,"x_max":0,"o":"m -281 993 l -451 782 l -361 715 l -150 903 z "},"":{"ha":3,"x_min":0,"x_max":0,"o":"m -306 1285 l -492 1079 l -401 1006 l -174 1185 z "},"":{"ha":694,"x_min":0,"x_max":0,"o":"m 453 1214 b 426 1156 450 1192 439 1169 b 347 1126 408 1136 376 1126 b 268 1156 318 1126 286 1136 b 242 1214 256 1169 244 1192 l 108 1214 b 172 1068 111 1189 124 1117 b 347 1007 222 1018 296 1007 b 522 1068 399 1007 472 1018 b 586 1214 571 1117 583 1189 z "},"":{"ha":694,"x_min":0,"x_max":0,"o":"m 358 -64 l 231 -272 l 342 -328 l 497 -125 z "}}}
